<svg width="32" height="32" viewBox="0 0 32 32" fill="none" xmlns="http://www.w3.org/2000/svg">
<g id="arrow-circle-right">
<g id="Vector">
<path d="M19.0976 15.3062H10.1153V16.6958H19.0985L14.8275 20.6657L15.7749 21.684L21.8862 16.0014L15.7757 10.3189L14.8275 11.3372L19.0976 15.3062Z" fill="#0044C2"/>
<path fill-rule="evenodd" clip-rule="evenodd" d="M16.0008 2.66724C8.6365 2.66724 2.66699 8.63782 2.66699 16.0014C2.66699 23.3651 8.63738 29.3339 16.0008 29.3339C23.3642 29.3339 29.3337 23.3651 29.3337 16.0014C29.3337 8.63694 23.3642 2.66724 16.0008 2.66724ZM16.0008 27.9444C9.40436 27.9444 4.05649 22.5972 4.05649 16.0014C4.05649 9.40483 9.40348 4.05678 16.0008 4.05678C22.5963 4.05678 27.9442 9.40483 27.9442 16.0014C27.9442 22.5972 22.5963 27.9444 16.0008 27.9444Z" fill="#0044C2"/>
</g>
</g>
</svg>
