<svg width="32" height="32" viewBox="0 0 32 32" fill="none" xmlns="http://www.w3.org/2000/svg">
<g id="icons/default/x-circle">
<g id="Union">
<path d="M20.9427 11.0572C21.4634 11.5779 21.4634 12.4221 20.9427 12.9428L17.8855 16L20.9427 19.0572C21.4634 19.5779 21.4634 20.4221 20.9427 20.9428C20.422 21.4635 19.5778 21.4635 19.0571 20.9428L15.9999 17.8856L12.9427 20.9428C12.422 21.4635 11.5778 21.4635 11.0571 20.9428C10.5364 20.4221 10.5364 19.5779 11.0571 19.0572L14.1143 16L11.0571 12.9428C10.5364 12.4221 10.5364 11.5779 11.0571 11.0572C11.5778 10.5365 12.422 10.5365 12.9427 11.0572L15.9999 14.1144L19.0571 11.0572C19.5778 10.5365 20.422 10.5365 20.9427 11.0572Z" fill="#E0115F"/>
<path fill-rule="evenodd" clip-rule="evenodd" d="M1.33325 16C1.33325 7.89983 7.89974 1.33334 15.9999 1.33334C24.1001 1.33334 30.6666 7.89983 30.6666 16C30.6666 24.1002 24.1001 30.6667 15.9999 30.6667C7.89974 30.6667 1.33325 24.1002 1.33325 16ZM15.9999 4.00001C9.3725 4.00001 3.99992 9.37259 3.99992 16C3.99992 22.6274 9.3725 28 15.9999 28C22.6273 28 27.9999 22.6274 27.9999 16C27.9999 9.37259 22.6273 4.00001 15.9999 4.00001Z" fill="#E0115F"/>
</g>
</g>
</svg>
