<svg id="Layer_1" data-name="Layer 1" xmlns="http://www.w3.org/2000/svg" xmlns:xlink="http://www.w3.org/1999/xlink" width="167.387" height="50" viewBox="0 0 167.387 50">
  <defs>
    <clipPath id="clip-path">
      <rect id="Rectangle_145647" data-name="Rectangle 145647" width="167.387" height="50" fill="none"/>
    </clipPath>
  </defs>
  <g id="Group_6366" data-name="Group 6366" clip-path="url(#clip-path)">
    <g id="Group_6365" data-name="Group 6365" transform="translate(0.177 0.177)" style="isolation: isolate">
      <g id="Group_6364" data-name="Group 6364">
        <path id="Path_6398" data-name="Path 6398" d="M400.115,23.076l-6.246,16.566-6.086-16.566h-9.3V20.111c0-1.641,0-4.393,4.023-4.393a7.327,7.327,0,0,1,1.693.158v-5.4a15.493,15.493,0,0,0-3.071-.318c-5.556,0-9.209,2.487-9.209,8.891v4.023H354.764V16.884H348.2v6.192c-5.763,0-7.915,1.565-9.554,3.192l-.5-3.192h-5.98V46.788h6.616V35.25c0-5.105,4.262-6.941,9.418-6.774V46.79h6.564V28.476h5.566V46.79h6.564V28.476h5.028V46.79h6.564V28.476h4.375L390.8,47.688l-.476,1.323c-.794,2.011-1.641,3.705-5.292,3.705a20.115,20.115,0,0,1-3.335-.37l-.054,5.346a20.175,20.175,0,0,0,4.5.582c6.4,0,8.627-4.129,9.951-7.463l10.956-27.735h-6.933Zm-36.5-4.341a4.292,4.292,0,1,0,0-8.575,4.29,4.29,0,1,0,0,8.575M324.4,34.878c0-3.917-2.541-6.722-6.352-6.722s-6.352,2.8-6.352,6.722,2.593,6.774,6.352,6.774,6.352-2.911,6.352-6.774m6.722,0c0,7.357-5.292,12.6-13.073,12.6s-13.073-5.24-13.073-12.6,5.292-12.6,13.073-12.6,13.073,5.24,13.073,12.6m-26.147-6.4h-5.716V46.788H292.7V28.474h-4.34v-5.4h4.34V19.053c0-6.4,3.653-8.891,9.209-8.891a15.505,15.505,0,0,1,3.071.318v5.4a7.346,7.346,0,0,0-1.693-.158c-4.023,0-4.023,2.753-4.023,4.393v2.965h5.716v5.4Z" transform="translate(-240.016 -8.627)" fill="#00747e"/>
        <path id="Path_6399" data-name="Path 6399" d="M20.915,1.964a18.95,18.95,0,0,1,.513,37.893,15.356,15.356,0,0,0-.512-30.7V20.915a9.476,9.476,0,0,1,.375,18.945c-.125,0-.249.01-.375.01-.024,0-.047,0-.071,0h.071V20.917A9.475,9.475,0,0,0,20.54,39.86c-.045,0-.091,0-.138,0a15.357,15.357,0,0,1,.513-30.705V1.964m0-.914A19.865,19.865,0,1,0,40.781,20.915,19.889,19.889,0,0,0,20.915,1.05" transform="translate(-1.05 -1.05)" fill="#0aeeaa"/>
      </g>
    </g>
  </g>
</svg>
