<svg width="519" height="101" viewBox="0 0 519 101" fill="none" xmlns="http://www.w3.org/2000/svg">
<g clip-path="url(#clip0_10_150)">
<path d="M388.62 93.54C388.25 93.54 387.89 93.56 387.54 93.61C387.19 93.66 386.88 93.74 386.6 93.86C386.32 93.98 386.1 94.13 385.93 94.33C385.76 94.53 385.68 94.77 385.68 95.07C385.68 95.28 385.73 95.46 385.82 95.62C385.91 95.78 386.03 95.91 386.18 96.02C386.33 96.12 386.49 96.2 386.67 96.26C386.85 96.31 387.04 96.34 387.22 96.34C387.69 96.34 388.08 96.27 388.38 96.13C388.68 95.99 388.93 95.81 389.11 95.59C389.29 95.37 389.42 95.12 389.49 94.84C389.56 94.56 389.59 94.28 389.59 93.99V93.53H388.62V93.54ZM390.39 94.1C390.39 94.43 390.39 94.73 390.39 95C390.39 95.27 390.4 95.51 390.41 95.74C390.41 95.97 390.43 96.18 390.45 96.37C390.46 96.57 390.49 96.76 390.52 96.96H389.7C389.64 96.63 389.61 96.26 389.61 95.86H389.58C389.32 96.3 389.01 96.62 388.63 96.83C388.25 97.04 387.77 97.14 387.2 97.14C386.91 97.14 386.62 97.1 386.33 97.03C386.05 96.96 385.79 96.84 385.56 96.68C385.33 96.52 385.15 96.31 385.01 96.05C384.87 95.79 384.8 95.49 384.8 95.12C384.8 94.6 384.93 94.19 385.2 93.88C385.46 93.58 385.79 93.35 386.18 93.2C386.57 93.05 386.98 92.95 387.42 92.91C387.86 92.87 388.24 92.84 388.58 92.84H389.61V92.43C389.61 91.84 389.43 91.42 389.07 91.16C388.71 90.91 388.25 90.78 387.7 90.78C386.91 90.78 386.22 91.04 385.62 91.55L385.11 90.95C385.43 90.64 385.84 90.4 386.32 90.24C386.8 90.08 387.26 90 387.7 90C388.52 90 389.18 90.19 389.67 90.58C390.16 90.97 390.41 91.59 390.41 92.46V94.12L390.39 94.1Z" fill="white"/>
<path d="M397.17 93.56C397.17 93.94 397.24 94.3 397.39 94.64C397.54 94.98 397.74 95.27 397.99 95.52C398.24 95.77 398.54 95.97 398.89 96.12C399.23 96.27 399.61 96.34 400.01 96.34C400.41 96.34 400.79 96.27 401.13 96.12C401.46 95.97 401.75 95.77 401.98 95.52C402.22 95.27 402.39 94.98 402.52 94.64C402.64 94.3 402.7 93.94 402.7 93.56C402.7 93.18 402.64 92.82 402.52 92.48C402.4 92.14 402.22 91.85 401.98 91.6C401.74 91.35 401.46 91.15 401.13 91C400.8 90.85 400.42 90.78 400.01 90.78C399.6 90.78 399.24 90.85 398.89 91C398.55 91.15 398.25 91.35 397.99 91.6C397.73 91.85 397.53 92.14 397.39 92.48C397.24 92.82 397.17 93.18 397.17 93.56ZM396.38 85.83H397.26V91.35H397.29C397.43 91.11 397.6 90.91 397.81 90.74C398.02 90.57 398.24 90.43 398.48 90.31C398.72 90.2 398.97 90.11 399.24 90.06C399.51 90.01 399.77 89.98 400.02 89.98C400.54 89.98 401.02 90.07 401.45 90.24C401.88 90.41 402.26 90.66 402.58 90.98C402.9 91.3 403.15 91.68 403.32 92.11C403.5 92.55 403.59 93.02 403.59 93.54C403.59 94.06 403.5 94.54 403.32 94.97C403.14 95.41 402.9 95.78 402.58 96.1C402.26 96.42 401.88 96.67 401.45 96.84C401.02 97.01 400.54 97.1 400.02 97.1C399.77 97.1 399.51 97.07 399.24 97.02C398.97 96.97 398.72 96.88 398.48 96.77C398.24 96.66 398.02 96.51 397.81 96.34C397.6 96.17 397.43 95.96 397.29 95.73H397.26V96.92H396.38V85.79V85.83Z" fill="white"/>
<path d="M404.97 92.07C404.97 91.94 404.97 91.79 404.96 91.61C404.96 91.43 404.94 91.25 404.94 91.06C404.94 90.87 404.93 90.7 404.92 90.54C404.92 90.38 404.91 90.25 404.91 90.16H405.79C405.79 90.42 405.81 90.66 405.81 90.9C405.81 91.14 405.83 91.29 405.85 91.36C406.07 90.96 406.36 90.63 406.72 90.37C407.07 90.11 407.51 89.99 408.02 89.99C408.11 89.99 408.19 89.99 408.28 90.01C408.36 90.02 408.45 90.04 408.54 90.06L408.44 90.93C408.32 90.89 408.21 90.87 408.1 90.87C407.72 90.87 407.39 90.93 407.11 91.05C406.83 91.17 406.6 91.34 406.42 91.56C406.24 91.78 406.1 92.03 406.02 92.32C405.93 92.61 405.89 92.92 405.89 93.25V96.96H405.01V92.07H404.97Z" fill="white"/>
<path d="M409.43 90.16H410.31V96.96H409.43V90.16ZM409.21 87.46C409.21 87.27 409.27 87.12 409.4 86.99C409.53 86.86 409.68 86.8 409.87 86.8C410.06 86.8 410.21 86.86 410.34 86.99C410.47 87.12 410.53 87.27 410.53 87.46C410.53 87.65 410.47 87.8 410.34 87.93C410.21 88.06 410.06 88.12 409.87 88.12C409.68 88.12 409.53 88.06 409.4 87.93C409.27 87.8 409.21 87.65 409.21 87.46Z" fill="white"/>
<path d="M418.26 93.56C418.26 93.18 418.19 92.82 418.04 92.48C417.89 92.14 417.69 91.85 417.44 91.6C417.18 91.35 416.89 91.15 416.54 91C416.2 90.85 415.82 90.78 415.42 90.78C415.02 90.78 414.64 90.85 414.3 91C413.97 91.15 413.68 91.35 413.45 91.6C413.21 91.85 413.04 92.14 412.91 92.48C412.79 92.82 412.73 93.18 412.73 93.56C412.73 93.94 412.79 94.3 412.91 94.64C413.03 94.98 413.21 95.27 413.45 95.52C413.68 95.77 413.97 95.97 414.3 96.12C414.63 96.27 415.01 96.34 415.42 96.34C415.83 96.34 416.19 96.27 416.54 96.12C416.88 95.97 417.18 95.77 417.44 95.52C417.69 95.27 417.9 94.98 418.04 94.64C418.19 94.3 418.26 93.94 418.26 93.56ZM418.17 95.76H418.14C418 96 417.83 96.2 417.63 96.37C417.42 96.54 417.2 96.68 416.96 96.8C416.72 96.91 416.47 97 416.2 97.05C415.93 97.1 415.67 97.13 415.42 97.13C414.9 97.13 414.42 97.04 413.98 96.87C413.54 96.69 413.16 96.45 412.85 96.13C412.54 95.81 412.29 95.43 412.11 95C411.93 94.56 411.85 94.09 411.85 93.57C411.85 93.05 411.94 92.57 412.11 92.14C412.29 91.7 412.53 91.33 412.85 91.01C413.16 90.69 413.54 90.44 413.98 90.27C414.42 90.09 414.9 90.01 415.42 90.01C415.68 90.01 415.94 90.04 416.2 90.09C416.46 90.14 416.72 90.23 416.96 90.34C417.2 90.45 417.42 90.6 417.63 90.77C417.84 90.94 418.01 91.14 418.14 91.38H418.17V85.86H419.05V96.99H418.17V95.8V95.76Z" fill="white"/>
<path d="M426.61 93.47C426.61 93.1 426.54 92.75 426.4 92.42C426.26 92.09 426.07 91.81 425.83 91.57C425.59 91.33 425.31 91.14 424.98 91C424.65 90.86 424.3 90.79 423.93 90.79C423.56 90.79 423.21 90.86 422.88 91C422.55 91.14 422.27 91.33 422.03 91.57C421.79 91.81 421.6 92.1 421.46 92.42C421.32 92.75 421.25 93.1 421.25 93.47C421.25 93.84 421.32 94.19 421.46 94.52C421.6 94.85 421.79 95.13 422.03 95.37C422.27 95.61 422.55 95.8 422.88 95.94C423.21 96.08 423.56 96.15 423.93 96.15C424.3 96.15 424.65 96.08 424.98 95.94C425.31 95.8 425.59 95.61 425.83 95.37C426.07 95.13 426.26 94.85 426.4 94.52C426.54 94.19 426.61 93.84 426.61 93.47ZM427.46 96.52C427.46 97.36 427.34 98.05 427.09 98.57C426.84 99.09 426.54 99.49 426.17 99.78C425.8 100.06 425.41 100.26 424.99 100.35C424.57 100.45 424.19 100.5 423.84 100.5C423.49 100.5 423.16 100.47 422.83 100.4C422.5 100.34 422.19 100.24 421.89 100.12C421.6 100 421.33 99.85 421.09 99.67C420.85 99.49 420.64 99.29 420.46 99.07L421.15 98.42C421.46 98.86 421.86 99.19 422.33 99.39C422.8 99.6 423.3 99.7 423.83 99.7C424.28 99.7 424.66 99.64 424.97 99.52C425.28 99.4 425.53 99.25 425.74 99.06C425.94 98.87 426.1 98.66 426.21 98.43C426.32 98.2 426.41 97.97 426.46 97.74C426.51 97.51 426.55 97.29 426.56 97.09C426.56 96.88 426.57 96.72 426.57 96.59V95.65H426.54C426.29 96.06 425.94 96.39 425.5 96.62C425.06 96.85 424.55 96.97 423.96 96.97C423.46 96.97 422.99 96.88 422.55 96.7C422.11 96.52 421.72 96.27 421.39 95.95C421.06 95.63 420.8 95.26 420.61 94.84C420.42 94.42 420.32 93.97 420.32 93.49C420.32 93.01 420.42 92.56 420.61 92.14C420.8 91.72 421.06 91.35 421.39 91.04C421.72 90.73 422.1 90.48 422.55 90.29C422.99 90.1 423.46 90.01 423.96 90.01C424.55 90.01 425.06 90.13 425.5 90.36C425.94 90.59 426.28 90.92 426.54 91.33H426.57V90.18H427.45V96.54L427.46 96.52Z" fill="white"/>
<path d="M434.36 92.98C434.36 92.68 434.3 92.39 434.18 92.13C434.06 91.87 433.89 91.63 433.68 91.43C433.47 91.23 433.22 91.07 432.93 90.95C432.64 90.83 432.33 90.77 432.01 90.77C431.53 90.77 431.13 90.87 430.81 91.06C430.49 91.26 430.24 91.48 430.05 91.74C429.86 92 429.73 92.24 429.65 92.48C429.57 92.72 429.53 92.88 429.53 92.97H434.36V92.98ZM435.04 95.68C434.7 96.2 434.27 96.57 433.77 96.8C433.26 97.03 432.71 97.14 432.1 97.14C431.58 97.14 431.11 97.05 430.69 96.87C430.27 96.69 429.91 96.45 429.6 96.13C429.3 95.81 429.06 95.43 428.9 95C428.74 94.56 428.66 94.08 428.66 93.55C428.66 93.02 428.74 92.57 428.91 92.14C429.08 91.71 429.31 91.33 429.62 91.01C429.92 90.69 430.28 90.44 430.69 90.26C431.1 90.08 431.56 89.99 432.06 89.99C432.56 89.99 433.04 90.08 433.44 90.26C433.84 90.44 434.17 90.68 434.44 90.98C434.71 91.28 434.91 91.62 435.05 92C435.19 92.38 435.26 92.77 435.26 93.16V93.78H429.55C429.55 93.97 429.59 94.2 429.66 94.49C429.73 94.78 429.87 95.06 430.06 95.34C430.26 95.61 430.52 95.85 430.85 96.05C431.18 96.25 431.6 96.34 432.12 96.34C432.57 96.34 433.01 96.23 433.43 96.02C433.85 95.8 434.18 95.51 434.4 95.14L435.05 95.68H435.04Z" fill="white"/>
<path d="M440.07 95.9C440.42 95.9 440.74 95.84 441.03 95.72C441.31 95.6 441.55 95.43 441.75 95.22C441.95 95.01 442.1 94.75 442.21 94.45C442.32 94.15 442.37 93.82 442.37 93.47C442.37 93.12 442.32 92.79 442.21 92.49C442.1 92.19 441.95 91.94 441.75 91.72C441.55 91.51 441.31 91.34 441.03 91.22C440.75 91.1 440.43 91.04 440.07 91.04C439.71 91.04 439.4 91.1 439.11 91.22C438.83 91.34 438.59 91.51 438.39 91.72C438.19 91.93 438.04 92.19 437.93 92.49C437.82 92.79 437.77 93.12 437.77 93.47C437.77 93.82 437.82 94.15 437.93 94.45C438.04 94.75 438.19 95 438.39 95.22C438.59 95.43 438.83 95.6 439.11 95.72C439.4 95.84 439.71 95.9 440.07 95.9ZM436.45 85.83H437.78V90.98H437.81C438.05 90.62 438.38 90.33 438.83 90.12C439.27 89.91 439.74 89.8 440.24 89.8C440.78 89.8 441.27 89.89 441.7 90.08C442.14 90.27 442.51 90.52 442.82 90.85C443.13 91.18 443.37 91.57 443.53 92.01C443.7 92.46 443.78 92.94 443.78 93.46C443.78 93.98 443.7 94.46 443.53 94.9C443.36 95.34 443.13 95.73 442.82 96.06C442.51 96.39 442.14 96.65 441.7 96.84C441.26 97.03 440.78 97.12 440.24 97.12C439.77 97.12 439.31 97.02 438.86 96.81C438.41 96.6 438.06 96.31 437.81 95.94H437.78V96.94H436.45V85.81V85.83Z" fill="white"/>
<path d="M444.96 89.98H446.28V96.96H444.96V89.98ZM444.65 87.48C444.65 87.22 444.75 86.99 444.94 86.8C445.13 86.61 445.36 86.51 445.62 86.51C445.88 86.51 446.11 86.61 446.3 86.8C446.49 86.99 446.59 87.22 446.59 87.48C446.59 87.74 446.49 87.97 446.3 88.16C446.11 88.35 445.88 88.45 445.62 88.45C445.36 88.45 445.13 88.35 444.94 88.16C444.75 87.97 444.65 87.74 444.65 87.48Z" fill="white"/>
<path d="M448.87 93.47C448.87 93.82 448.92 94.15 449.03 94.45C449.14 94.75 449.29 95 449.49 95.22C449.69 95.43 449.93 95.6 450.21 95.72C450.49 95.84 450.81 95.9 451.17 95.9C451.53 95.9 451.84 95.84 452.13 95.72C452.41 95.6 452.65 95.43 452.85 95.22C453.05 95.01 453.2 94.75 453.31 94.45C453.42 94.15 453.47 93.82 453.47 93.47C453.47 93.12 453.42 92.79 453.31 92.49C453.2 92.19 453.05 91.94 452.85 91.72C452.65 91.51 452.41 91.34 452.13 91.22C451.84 91.1 451.53 91.04 451.17 91.04C450.81 91.04 450.5 91.1 450.21 91.22C449.93 91.34 449.69 91.51 449.49 91.72C449.29 91.93 449.14 92.19 449.03 92.49C448.92 92.79 448.87 93.12 448.87 93.47ZM447.46 93.47C447.46 92.96 447.56 92.48 447.75 92.04C447.94 91.6 448.2 91.21 448.54 90.88C448.87 90.55 449.27 90.28 449.72 90.09C450.17 89.9 450.66 89.8 451.18 89.8C451.7 89.8 452.19 89.9 452.64 90.09C453.09 90.28 453.48 90.54 453.82 90.88C454.15 91.21 454.42 91.6 454.61 92.04C454.8 92.48 454.9 92.96 454.9 93.47C454.9 93.98 454.8 94.46 454.61 94.9C454.42 95.34 454.16 95.73 453.82 96.06C453.49 96.39 453.09 96.65 452.64 96.84C452.19 97.03 451.7 97.13 451.18 97.13C450.66 97.13 450.17 97.03 449.72 96.84C449.27 96.65 448.88 96.39 448.54 96.06C448.21 95.73 447.94 95.34 447.75 94.9C447.56 94.45 447.46 93.97 447.46 93.47Z" fill="white"/>
<path d="M465.33 95.96C465 96.36 464.62 96.66 464.2 96.85C463.78 97.04 463.32 97.14 462.83 97.14C462.31 97.14 461.83 97.05 461.39 96.88C460.95 96.7 460.57 96.46 460.26 96.14C459.95 95.82 459.7 95.44 459.52 95.01C459.34 94.57 459.25 94.1 459.25 93.58C459.25 93.06 459.34 92.58 459.52 92.15C459.7 91.71 459.94 91.34 460.26 91.02C460.57 90.7 460.95 90.45 461.39 90.28C461.83 90.1 462.31 90.02 462.83 90.02C463.35 90.02 463.79 90.12 464.22 90.33C464.65 90.54 465.03 90.83 465.36 91.2L464.65 91.73C464.39 91.45 464.11 91.22 463.81 91.06C463.51 90.9 463.18 90.82 462.82 90.82C462.41 90.82 462.03 90.89 461.7 91.04C461.37 91.19 461.08 91.39 460.85 91.64C460.61 91.89 460.44 92.18 460.31 92.52C460.19 92.86 460.13 93.22 460.13 93.6C460.13 93.98 460.19 94.34 460.31 94.68C460.43 95.02 460.61 95.31 460.85 95.56C461.09 95.81 461.37 96.01 461.7 96.16C462.03 96.31 462.41 96.38 462.82 96.38C463.19 96.38 463.53 96.29 463.84 96.12C464.15 95.95 464.42 95.72 464.64 95.44L465.32 96L465.33 95.96Z" fill="white"/>
<path d="M467.21 93.56C467.21 93.94 467.27 94.3 467.39 94.64C467.51 94.98 467.69 95.27 467.93 95.52C468.17 95.77 468.45 95.97 468.78 96.12C469.11 96.27 469.49 96.34 469.9 96.34C470.31 96.34 470.69 96.27 471.02 96.12C471.35 95.97 471.64 95.77 471.87 95.52C472.11 95.27 472.28 94.98 472.41 94.64C472.53 94.3 472.59 93.94 472.59 93.56C472.59 93.18 472.53 92.82 472.41 92.48C472.29 92.14 472.11 91.85 471.87 91.6C471.64 91.35 471.35 91.15 471.02 91C470.69 90.85 470.31 90.78 469.9 90.78C469.49 90.78 469.12 90.85 468.78 91C468.45 91.15 468.16 91.35 467.93 91.6C467.69 91.85 467.52 92.14 467.39 92.48C467.27 92.82 467.21 93.18 467.21 93.56ZM466.33 93.56C466.33 93.04 466.42 92.56 466.6 92.13C466.78 91.69 467.02 91.32 467.34 91C467.65 90.68 468.03 90.43 468.47 90.26C468.91 90.08 469.39 90 469.91 90C470.43 90 470.91 90.09 471.35 90.26C471.79 90.44 472.16 90.68 472.48 91C472.8 91.32 473.05 91.7 473.22 92.13C473.4 92.57 473.49 93.04 473.49 93.56C473.49 94.08 473.4 94.56 473.22 94.99C473.04 95.42 472.8 95.8 472.48 96.12C472.16 96.44 471.78 96.69 471.35 96.86C470.91 97.04 470.43 97.12 469.91 97.12C469.39 97.12 468.91 97.03 468.47 96.86C468.03 96.68 467.65 96.44 467.34 96.12C467.03 95.8 466.78 95.42 466.6 94.99C466.42 94.55 466.33 94.08 466.33 93.56Z" fill="white"/>
<path d="M475.46 92.07C475.46 91.94 475.46 91.79 475.45 91.61C475.44 91.43 475.43 91.25 475.43 91.06C475.43 90.87 475.42 90.7 475.41 90.54C475.41 90.38 475.4 90.25 475.4 90.16H476.28C476.28 90.42 476.3 90.66 476.3 90.9C476.3 91.14 476.32 91.29 476.34 91.36H476.38C476.56 90.99 476.85 90.67 477.26 90.4C477.67 90.13 478.15 90 478.7 90C479.15 90 479.56 90.12 479.94 90.35C480.31 90.58 480.58 90.96 480.75 91.48C480.97 90.97 481.29 90.6 481.71 90.36C482.14 90.12 482.59 90.01 483.06 90.01C483.59 90.01 484.02 90.09 484.36 90.26C484.69 90.43 484.96 90.65 485.15 90.91C485.34 91.18 485.47 91.49 485.55 91.84C485.62 92.19 485.66 92.56 485.66 92.93V96.98H484.78V92.98C484.78 92.71 484.76 92.44 484.71 92.18C484.66 91.92 484.57 91.69 484.45 91.48C484.33 91.27 484.16 91.11 483.94 90.99C483.72 90.87 483.43 90.81 483.08 90.81C482.67 90.81 482.33 90.89 482.06 91.04C481.79 91.19 481.59 91.39 481.43 91.62C481.28 91.85 481.17 92.11 481.11 92.38C481.05 92.65 481.01 92.92 481.01 93.16V96.99H480.13V92.9C480.13 92.27 480.01 91.77 479.78 91.38C479.55 91 479.19 90.81 478.71 90.81C478.39 90.81 478.08 90.87 477.79 90.98C477.5 91.09 477.25 91.26 477.04 91.5C476.83 91.73 476.66 92.02 476.54 92.37C476.42 92.72 476.36 93.13 476.36 93.6V97H475.48V92.11L475.46 92.07Z" fill="white"/>
<path d="M488.6 93.56C488.6 93.94 488.67 94.3 488.82 94.64C488.97 94.98 489.17 95.27 489.42 95.52C489.67 95.77 489.97 95.97 490.32 96.12C490.66 96.27 491.04 96.34 491.44 96.34C491.84 96.34 492.22 96.27 492.56 96.12C492.89 95.97 493.18 95.77 493.41 95.52C493.65 95.27 493.82 94.98 493.95 94.64C494.07 94.3 494.13 93.94 494.13 93.56C494.13 93.18 494.07 92.82 493.95 92.48C493.83 92.14 493.65 91.85 493.41 91.6C493.17 91.35 492.89 91.15 492.56 91C492.23 90.85 491.85 90.78 491.44 90.78C491.03 90.78 490.67 90.85 490.32 91C489.98 91.15 489.68 91.35 489.42 91.6C489.16 91.85 488.96 92.14 488.82 92.48C488.67 92.82 488.6 93.18 488.6 93.56ZM487.8 90.16H488.68V91.35H488.71C488.85 91.12 489.02 90.91 489.23 90.74C489.44 90.57 489.66 90.43 489.9 90.31C490.14 90.2 490.39 90.11 490.66 90.06C490.93 90.01 491.19 89.98 491.44 89.98C491.96 89.98 492.44 90.07 492.87 90.24C493.31 90.42 493.68 90.66 494 90.98C494.32 91.3 494.57 91.68 494.74 92.11C494.92 92.55 495.01 93.02 495.01 93.54C495.01 94.06 494.92 94.54 494.74 94.98C494.56 95.42 494.32 95.79 494 96.11C493.68 96.43 493.3 96.68 492.87 96.85C492.43 97.03 491.96 97.12 491.44 97.12C491.19 97.12 490.93 97.09 490.66 97.04C490.39 96.99 490.14 96.9 489.9 96.79C489.66 96.68 489.44 96.53 489.23 96.36C489.02 96.19 488.85 95.98 488.71 95.75H488.68V100.3H487.8V90.15V90.16Z" fill="white"/>
<path d="M500.5 93.54C500.13 93.54 499.77 93.56 499.42 93.61C499.07 93.66 498.76 93.74 498.48 93.86C498.2 93.98 497.98 94.13 497.81 94.33C497.64 94.53 497.56 94.77 497.56 95.07C497.56 95.28 497.61 95.46 497.7 95.62C497.79 95.78 497.91 95.91 498.06 96.02C498.21 96.12 498.37 96.2 498.55 96.26C498.73 96.31 498.92 96.34 499.1 96.34C499.57 96.34 499.96 96.27 500.26 96.13C500.56 95.99 500.81 95.81 500.99 95.59C501.17 95.37 501.3 95.12 501.37 94.84C501.44 94.56 501.47 94.28 501.47 93.99V93.53H500.5V93.54ZM502.27 94.1C502.27 94.43 502.27 94.73 502.27 95C502.27 95.27 502.28 95.51 502.29 95.74C502.29 95.97 502.31 96.18 502.33 96.37C502.34 96.57 502.37 96.76 502.4 96.96H501.58C501.52 96.63 501.49 96.26 501.49 95.86H501.46C501.2 96.3 500.89 96.62 500.51 96.83C500.13 97.04 499.65 97.14 499.08 97.14C498.79 97.14 498.5 97.1 498.21 97.03C497.93 96.96 497.67 96.84 497.44 96.68C497.21 96.52 497.03 96.31 496.89 96.05C496.75 95.79 496.68 95.49 496.68 95.12C496.68 94.6 496.81 94.19 497.08 93.88C497.35 93.58 497.67 93.35 498.06 93.2C498.45 93.05 498.86 92.95 499.3 92.91C499.74 92.87 500.12 92.84 500.46 92.84H501.49V92.43C501.49 91.84 501.31 91.42 500.95 91.16C500.59 90.91 500.13 90.78 499.58 90.78C498.79 90.78 498.1 91.04 497.5 91.55L496.99 90.95C497.31 90.64 497.72 90.4 498.2 90.24C498.68 90.08 499.14 90 499.58 90C500.4 90 501.06 90.19 501.55 90.58C502.04 90.97 502.29 91.59 502.29 92.46V94.12L502.27 94.1Z" fill="white"/>
<path d="M504.63 92.07C504.63 91.94 504.63 91.79 504.62 91.61C504.62 91.43 504.6 91.25 504.6 91.06C504.6 90.87 504.59 90.7 504.58 90.54C504.58 90.38 504.57 90.25 504.57 90.16H505.45C505.45 90.42 505.47 90.66 505.47 90.9C505.47 91.14 505.49 91.29 505.51 91.36H505.55C505.73 90.99 506.02 90.67 506.43 90.4C506.84 90.13 507.32 90 507.87 90C508.42 90 508.83 90.08 509.17 90.25C509.5 90.42 509.77 90.64 509.96 90.9C510.15 91.17 510.28 91.48 510.36 91.83C510.43 92.18 510.47 92.55 510.47 92.92V96.97H509.59V92.97C509.59 92.7 509.57 92.43 509.52 92.17C509.47 91.91 509.39 91.68 509.26 91.47C509.14 91.26 508.97 91.1 508.75 90.98C508.53 90.86 508.24 90.8 507.89 90.8C507.57 90.8 507.26 90.86 506.97 90.97C506.68 91.08 506.43 91.25 506.22 91.49C506.01 91.72 505.84 92.01 505.72 92.36C505.6 92.71 505.54 93.12 505.54 93.59V96.99H504.66V92.1L504.63 92.07Z" fill="white"/>
<path d="M514.72 99.06C514.55 99.5 514.32 99.85 514.03 100.1C513.74 100.36 513.34 100.48 512.85 100.48C512.7 100.48 512.56 100.47 512.41 100.44C512.26 100.41 512.12 100.38 511.98 100.34L512.07 99.52C512.2 99.56 512.33 99.6 512.46 99.63C512.59 99.66 512.73 99.68 512.86 99.68C513.02 99.68 513.16 99.65 513.28 99.58C513.4 99.51 513.51 99.42 513.6 99.31C513.69 99.2 513.76 99.08 513.83 98.95C513.89 98.82 513.95 98.68 514 98.55L514.62 96.98L511.85 90.15H512.84L515.09 95.88L517.28 90.15H518.22L514.72 99.05V99.06Z" fill="white"/>
<mask id="mask0_10_150" style="mask-type:luminance" maskUnits="userSpaceOnUse" x="0" y="0" width="50" height="56">
<path d="M49.34 0H0V55.81H49.34V0Z" fill="white"/>
</mask>
<g mask="url(#mask0_10_150)">
<path d="M42.29 30.24C41.73 32.3 40.97 34.18 40.03 35.83C38.85 37.9 36.83 39.58 34.82 40.53C36.45 39.2 37.79 37.61 38.95 35.59C39.88 33.97 40.62 32.12 41.17 30.1C41.74 28 42.41 25.15 42.46 23.99C40.34 24.35 33.94 27.32 30.32 36.02C30.32 36.02 27.35 42.61 20.47 44.91C20.47 44.91 27.46 50.73 37.19 46.19C37.19 46.19 50.02 39.82 43.02 24.72C42.95 25.95 42.85 28.17 42.29 30.23" fill="white"/>
<path d="M27.66 15.73L25.49 11.22C25.34 10.92 25.47 10.55 25.77 10.41C26.58 10.02 26.92 9.05 26.53 8.24C26.14 7.44 25.17 7.09 24.36 7.48L13.43 12.74C12.63 13.13 12.28 14.1 12.67 14.91C13.06 15.71 14.03 16.06 14.84 15.67L14.95 15.62C15.25 15.47 15.62 15.6 15.76 15.9L18.09 20.75C18.34 21.28 18.28 21.91 17.92 22.37C8.73999 34.31 19.15 43.68 19.15 43.68C27.89 40.68 27.73 36.22 31.53 30.27C35.33 24.32 41.84 22.74 41.84 22.74C37.44 16.68 31.54 16.43 29.18 16.61C28.54 16.66 27.93 16.31 27.66 15.73Z" fill="white"/>
</g>
<path d="M82.1 68.66L63.69 26.25L63.62 26.09H56.02V77.83H61.32V33.37L80.78 77.67L80.85 77.83H83.29L102.52 33.38V77.83H107.83V26.09H100.59L82.1 68.66Z" fill="white"/>
<path d="M118.64 26.09H113.34V77.83H142.51V72.96H118.64V26.09Z" fill="white"/>
<path d="M178.24 50.52C183.47 49.07 186.57 45.14 186.57 39.88C186.57 34.62 184.74 30.77 181.13 28.55C178.44 26.89 174.73 26.09 169.82 26.09H154.8V77.83H171.41C173.95 77.83 178.8 77.47 182.72 75.05C186.76 72.56 188.81 68.59 188.81 63.24C188.81 56.51 184.59 51.48 178.24 50.51V50.52ZM160.1 30.96H170.39C177.71 30.96 181.26 33.88 181.26 39.88C181.26 47.62 172.44 48.22 169.74 48.22H160.1V30.96ZM170.75 72.96H160.09V53.09H171.47C180.34 53.09 183.5 58.41 183.5 63.38C183.5 72.02 174.58 72.95 170.75 72.95V72.96Z" fill="white"/>
<path d="M201.83 43.89H196.96V77.84H201.83V43.89Z" fill="white"/>
<path d="M226.66 43.02C216.32 43.02 208.82 50.52 208.82 60.86C208.82 71.2 216.32 78.7 226.66 78.7C237 78.7 244.5 71.2 244.5 60.86C244.5 50.52 237 43.02 226.66 43.02ZM226.66 74.26C219.02 74.26 213.69 68.75 213.69 60.85C213.69 52.95 219.02 47.45 226.66 47.45C234.3 47.45 239.63 52.96 239.63 60.85C239.63 68.74 234.3 74.26 226.66 74.26Z" fill="white"/>
<path d="M269.9 49.76C263.77 47.91 257.99 46.17 257.99 39.09C257.99 34.74 260.93 29.66 269.22 29.66C273.4 29.66 276.6 31.28 278.99 34.61L279.14 34.83L283.7 31.55L283.53 31.33C280.22 26.99 275.46 24.79 269.36 24.79C264.89 24.79 260.77 26.09 257.76 28.44C254.43 31.04 252.68 34.72 252.68 39.08C252.68 49.75 260.59 52.24 267.58 54.43C273.5 56.29 279.08 58.05 279.08 64.47C279.08 70.23 274.46 74.26 267.85 74.26C262.78 74.26 258.81 72.08 256.36 67.95L256.22 67.71L251.2 71.05L251.36 71.27C255.08 76.48 260.75 79.12 268.21 79.12C272.52 79.12 276.52 77.78 279.45 75.33C282.68 72.65 284.38 68.89 284.38 64.46C284.38 54.11 277.02 51.89 269.89 49.74L269.9 49.76Z" fill="white"/>
<path d="M306.54 43.02C296.2 43.02 288.7 50.52 288.7 60.86C288.7 71.2 296.2 78.7 306.54 78.7C316.88 78.7 324.38 71.2 324.38 60.86C324.38 50.52 316.88 43.02 306.54 43.02ZM306.54 74.26C298.9 74.26 293.57 68.75 293.57 60.85C293.57 52.95 298.9 47.45 306.54 47.45C314.18 47.45 319.51 52.96 319.51 60.85C319.51 68.74 314.18 74.26 306.54 74.26Z" fill="white"/>
<path d="M336.25 25.8H331.38V77.83H336.25V25.8Z" fill="white"/>
<path d="M373.93 68.16V43.88H369.06V60.85C369.06 70.73 363.22 74.26 357.75 74.26C352.28 74.26 349.63 70.85 349.63 63.82V43.88H344.76V64.04C344.76 73.9 349.01 78.7 357.75 78.7C362.68 78.7 367.13 76.18 369.2 72.26C369.29 73.26 369.35 75.3 369.41 77.14L369.43 77.84H374.29V77.57C374.29 76.77 374.21 75.23 374.13 73.6C374.03 71.68 373.93 69.5 373.93 68.17V68.16Z" fill="white"/>
<path d="M398.94 73.13C397.18 73.88 395.56 74.27 394.13 74.27C391.4 74.27 389.77 72.61 389.77 69.83V48.32H399.32V43.88H389.77V34.26H384.9V43.88H377.67V48.32H384.9V69.83C384.9 75.47 388.13 78.7 393.77 78.7C395.49 78.7 397.95 78.09 399.5 77.53L399.69 77.46L399.28 72.99L398.95 73.13H398.94Z" fill="white"/>
<path d="M406.79 28.89C404.42 28.89 402.49 30.82 402.49 33.19C402.49 35.56 404.42 37.49 406.79 37.49C409.16 37.49 411.09 35.56 411.09 33.19C411.09 30.82 409.16 28.89 406.79 28.89Z" fill="white"/>
<path d="M199.39 28.89C197.02 28.89 195.09 30.82 195.09 33.19C195.09 35.56 197.02 37.49 199.39 37.49C201.76 37.49 203.69 35.56 203.69 33.19C203.69 30.82 201.76 28.89 199.39 28.89Z" fill="white"/>
<path d="M409.22 43.89H404.35V77.84H409.22V43.89Z" fill="white"/>
<path d="M434.05 43.02C423.71 43.02 416.21 50.52 416.21 60.86C416.21 71.2 423.71 78.7 434.05 78.7C444.39 78.7 451.89 71.2 451.89 60.86C451.89 50.52 444.39 43.02 434.05 43.02ZM434.05 74.26C426.41 74.26 421.08 68.75 421.08 60.85C421.08 52.95 426.41 47.45 434.05 47.45C441.69 47.45 447.02 52.96 447.02 60.85C447.02 68.74 441.69 74.26 434.05 74.26Z" fill="white"/>
<path d="M473.53 43.11C468.6 43.11 464.15 45.63 462.08 49.55C461.99 48.55 461.93 46.51 461.87 44.68L461.85 43.97H456.99V44.24C456.99 45.04 457.07 46.58 457.15 48.21C457.25 50.13 457.35 52.31 457.35 53.64V77.92H462.22V60.95C462.22 51.07 468.06 47.55 473.53 47.55C479 47.55 481.65 50.96 481.65 57.99V77.93H486.52V57.78C486.52 47.92 482.27 43.12 473.53 43.12V43.11Z" fill="white"/>
<path d="M505.72 58.07C501.31 57.17 497.51 56.4 497.51 52.55C497.51 50.5 499.68 47.46 504.33 47.46C507.89 47.46 510.25 48.87 511.98 52.02L512.11 52.26L516.47 49.68L516.36 49.46C514.22 45.25 510.06 43.02 504.33 43.02C498.6 43.02 492.64 46.42 492.64 52.9C492.64 60 498.66 61.33 503.97 62.5C508.34 63.46 512.46 64.38 512.46 68.38C512.46 72.06 508.7 74.26 505.06 74.26C500.97 74.26 497.26 72.16 495.6 68.91L495.46 68.64L491.18 71.55L491.3 71.76C493.78 76.17 498.77 78.69 504.98 78.69C508.32 78.69 511.37 77.75 513.57 76.04C516.03 74.13 517.32 71.38 517.32 68.08C517.32 60.42 511.15 59.16 505.71 58.05L505.72 58.07Z" fill="white"/>
</g>
<defs>
<clipPath id="clip0_10_150">
<rect width="518.23" height="100.49" fill="white"/>
</clipPath>
</defs>
</svg>
