<svg xmlns="http://www.w3.org/2000/svg" xmlns:xlink="http://www.w3.org/1999/xlink" width="565" height="358.701" viewBox="0 0 565 358.701">
  <defs>
    <linearGradient id="linear-gradient" y1="0.5" x2="1" y2="0.5" gradientUnits="objectBoundingBox">
      <stop offset="0" stop-color="#0693e3"/>
      <stop offset="1" stop-color="#a3ddf5" stop-opacity="0"/>
    </linearGradient>
    <linearGradient id="linear-gradient-2" y1="0.5" x2="1" y2="0.5" gradientUnits="objectBoundingBox">
      <stop offset="0" stop-color="#a3ddf5"/>
      <stop offset="1" stop-color="#a3ddf5" stop-opacity="0"/>
    </linearGradient>
  </defs>
  <g id="Group_4511" data-name="Group 4511" transform="translate(-253.155 -1827.484)">
    <g id="Group_4510" data-name="Group 4510" transform="translate(0 29)">
      <g id="Layer_2" data-name="Layer 2" transform="translate(253.155 1833.825)">
        <path id="Path_816" data-name="Path 816" d="M227.34,108.32l142.89-63.4v262.5L227.34,240.56Z" fill="url(#linear-gradient)"/>
        <path id="Path_817" data-name="Path 817" d="M328.75,321.24s-8.3-5.53-8.89-8.49-5.93-36.74-7.7-45.63-5.53-22.52-7.6-29.03-5.33-22.18-5.33-33.61-4.3-33.35-3.11-41.5,4.15-30.81-14.37-43.55c0,0-4.74-1.48-9.63-2.67s-30.96-12-36.59-15.7-3.41-6.52-1.04-10.67,4.89-8.89,5.78-12.07,1.78-5.11,3.48-6.44,2.15-3.11,2.37-5.33-.44-4.37.67-5.85,3.48-7.7,1.11-10.89c0,0-.44-.81-.37-4.52s1.63-17.04-2.89-27.33S230.86,1,217.09,1h-1.15c-13.78,0-23.04,6.67-27.55,16.96s-2.96,23.63-2.89,27.33-.37,4.52-.37,4.52c-2.37,3.18,0,9.41,1.11,10.89s.44,3.63.67,5.85.67,4,2.37,5.33,2.59,3.26,3.48,6.44,3.41,7.93,5.78,12.07,4.59,6.96-1.04,10.67-31.7,14.52-36.59,15.7-9.63,2.67-9.63,2.67c-18.52,12.74-15.55,35.4-14.37,43.55s-3.11,30.07-3.11,41.5-3.26,27.09-5.33,33.61-5.83,20.15-7.6,29.03-7.11,42.66-7.7,45.63-8.89,8.49-8.89,8.49" fill="#fff"/>
        <g id="Group_4329" data-name="Group 4329" opacity="0.22">
          <path id="Path_818" data-name="Path 818" d="M157.26,246.44c.41-9.96,3.58-34.44,4.88-58.64-3.62,19.35-11.58,61.49-14.18,71.79-3.4,13.49-29.22,60.63-29.22,60.63l6.63,3.14c5.45-10.59,17.81-34.79,21.63-43.77,4.95-11.64,9.79-21.84,10.25-33.16Z" fill="#d5a3cb"/>
        </g>
        <g id="Group_4330" data-name="Group 4330" opacity="0.22">
          <path id="Path_819" data-name="Path 819" d="M319.86,312.75c-.59-2.96-5.93-36.74-7.7-45.63s-5.53-22.52-7.6-29.03-5.33-22.18-5.33-33.61-4.3-33.35-3.11-41.5,4.15-30.81-14.37-43.55c0,0-4.74-1.48-9.63-2.67-4.39-1.06-25.82-9.88-34.24-14.35l-2.58,4.27s15.41,7.94,22.6,9.83,24.16,3.28,28.47,21.18,1.66,35.04,2.79,43.49,3.4,40.5,5.29,48.36,8.01,30.42,12.07,53.24,5.07,34.29,9.99,36.93c2.56,1.38,6.72.84,10.12.01-2.5-1.85-6.36-4.99-6.76-6.98Z" fill="#d5a3cb"/>
        </g>
        <path id="Path_820" data-name="Path 820" d="M269.58,185.57c-3.71,14.24-10.49,42.2-10.49,56.75,0,0-1.89,42.35,5.67,78.15l8.73.96c-2.24-12.72-7.48-45.07-7.48-69.26,0-22.9,2.36-52.82,3.57-66.61Z" fill="#d5a3cb" opacity="0.22"/>
        <g id="Group_4331" data-name="Group 4331">
          <circle id="Ellipse_64" data-name="Ellipse 64" cx="41.28" cy="41.28" r="41.28" transform="translate(174.34 193.85)" fill="#f5f5f5"/>
          <path id="Path_821" data-name="Path 821" d="M215.62,276.9a41.78,41.78,0,1,1,41.78-41.78A41.822,41.822,0,0,1,215.62,276.9Zm0-82.55a40.78,40.78,0,1,0,40.78,40.78,40.819,40.819,0,0,0-40.78-40.78Z" fill="#99a0a3"/>
        </g>
        <text id="Acute_symptoms" data-name="Acute symptoms" transform="translate(373 88.13)" fill="#73726d" font-size="16" font-family="Helvetica-Bold, Helvetica" font-weight="700"><tspan x="0" y="0" letter-spacing="-0.01em">A</tspan><tspan y="0">cute symptoms</tspan></text>
        <text id="_Seizures_Numbness_and_or_tingling_Muscle_spasms_Muscle_cramps" data-name="• Seizures
• Numbness and / or tingling
• Muscle spasms
• Muscle cramps" transform="translate(373 110.52)" fill="#ab4897" font-size="14" font-family="Helvetica"><tspan x="0" y="0">• </tspan><tspan y="0" fill="#73726d">Seizures</tspan><tspan x="0" y="16">• </tspan><tspan y="16" fill="#73726d">Numbness and </tspan><tspan y="16" fill="#73726d" letter-spacing="-0.12em">/ </tspan><tspan y="16" fill="#73726d">or tingling</tspan><tspan x="0" y="32">• </tspan><tspan y="32" fill="#73726d">Muscle spasms</tspan><tspan x="0" y="48">• </tspan><tspan y="48" fill="#73726d">Muscle cramps</tspan></text>
        <text id="Long-term_complications" data-name="Long-term complications" transform="translate(373 218.53)" fill="#73726d" font-size="16" font-family="Helvetica-Bold, Helvetica" font-weight="700"><tspan x="0" y="0">Long-term complications</tspan></text>
        <text id="_Kidney_stones_Calcium_deposits_in_kidneys_Chronic_kidney_disease" data-name="• Kidney stones
• Calcium deposits in kidneys
• Chronic kidney disease" transform="translate(373 240.92)" fill="#ab4897" font-size="14" font-family="Helvetica"><tspan x="0" y="0">• </tspan><tspan y="0" fill="#73726d">Kidn</tspan><tspan y="0" fill="#73726d" letter-spacing="-0.01em">e</tspan><tspan y="0" fill="#73726d">y stones</tspan><tspan x="0" y="16">• </tspan><tspan y="16" fill="#73726d" letter-spacing="-0.02em">C</tspan><tspan y="16" fill="#73726d">alcium deposits in kidneys</tspan><tspan x="0" y="32">• </tspan><tspan y="32" fill="#73726d">Chronic kidney disease</tspan></text>
        <path id="Path_895" data-name="Path 895" d="M126.5,322.24a1.108,1.108,0,0,1-.46-.11,1.006,1.006,0,0,1-.43-1.35c.16-.3,15.59-30.11,20.47-41.58.46-1.09.92-2.16,1.38-3.22,4.5-10.47,8.38-19.51,8.79-29.58.17-4.24.82-10.9,1.65-19.33,1.4-14.31,3.14-32.12,3.65-49.1a1,1,0,0,1,.97-.97.978.978,0,0,1,1.03.9c.04.43,4.27,43.82,4.27,74.27s-7.43,68.88-7.51,69.26a1,1,0,1,1-1.96-.38c.07-.38,7.47-38.57,7.47-68.88,0-19.36-1.71-43.98-2.97-59.39-.78,12.24-1.95,24.25-2.95,34.48-.82,8.4-1.47,15.04-1.64,19.22-.42,10.44-4.57,20.08-8.95,30.29-.46,1.06-.92,2.13-1.38,3.22-4.91,11.54-20.38,41.42-20.54,41.72a1.012,1.012,0,0,1-.89.54Z" fill="#ab4897"/>
        <path id="Path_896" data-name="Path 896" d="M176.83,120.79l1.74,5.37h5.64l-4.56,3.32,1.74,5.36-4.56-3.31-4.57,3.31,1.75-5.36-4.57-3.32h5.65Z" fill="#ff00d6"/>
        <path id="Path_897" data-name="Path 897" d="M176.83,164.52l1.74,5.37h5.64l-4.56,3.32,1.74,5.36-4.56-3.31-4.57,3.31,1.75-5.36-4.57-3.32h5.65Z" fill="#ff00d6"/>
        <g id="Group_4335" data-name="Group 4335">
          <path id="Path_898" data-name="Path 898" d="M196.1,247.47c-9.13,0-13.9-10.33-13.9-20.54,0-12.85,5.2-19.92,14.63-19.92,3.27,0,5.81,1.04,7.54,3.08,3.3,3.89,2.34,9.98,2.29,10.23a1.252,1.252,0,1,1-2.47-.41h0c0-.05.81-5.22-1.74-8.22a7,7,0,0,0-5.63-2.19c-10.03,0-12.13,9.47-12.13,17.42,0,8.96,3.92,18.04,11.4,18.04,3.78,0,5.68-1.66,6.61-3.05a7.132,7.132,0,0,0,.67-6.48,1.249,1.249,0,0,1,2.31-.95,9.656,9.656,0,0,1-.9,8.82c-1.8,2.68-4.88,4.16-8.69,4.16Z" fill="#ab4897"/>
          <path id="Path_899" data-name="Path 899" d="M210.43,264.17a1,1,0,0,1-1-1V240.55c0-8.37-3.14-9.92-8.27-11.75-5.68-2.03-11.34-7.65-11.58-7.89a1,1,0,0,1,1.41-1.41c.06.05,5.59,5.54,10.84,7.42,5.62,2.01,9.6,4.16,9.6,13.63v22.62A1,1,0,0,1,210.43,264.17Z" fill="#82c9f1"/>
          <path id="Path_900" data-name="Path 900" d="M213.63,264.17a1,1,0,0,1-1-1V237.49a12.088,12.088,0,0,0-7.96-11.46,22.863,22.863,0,0,1-9.58-7.32,1,1,0,0,1,1.64-1.15,21.244,21.244,0,0,0,8.69,6.61,14.2,14.2,0,0,1,9.22,13.32v25.68a1,1,0,0,1-1,1Z" fill="#82c9f1"/>
          <path id="Path_901" data-name="Path 901" d="M206.08,225.93a8.625,8.625,0,0,1-4.18-1.25.992.992,0,0,1-.31-1.38,1.011,1.011,0,0,1,1.38-.31c.04.02,2.18,1.33,4.02.82a3.274,3.274,0,0,0,2.05-1.87,1,1,0,0,1,1.78.9,5.252,5.252,0,0,1-3.31,2.9,5.461,5.461,0,0,1-1.43.19Z" fill="#82c9f1"/>
          <path id="Path_902" data-name="Path 902" d="M190.97,232.37a.939.939,0,0,1-.55-.17.988.988,0,0,1-.28-1.38c.04-.06,4.08-6.02,12.83-3.47a1,1,0,0,1-.56,1.92c-7.29-2.12-10.47,2.46-10.6,2.66a.987.987,0,0,1-.83.44Z" fill="#82c9f1"/>
          <path id="Path_903" data-name="Path 903" d="M197.54,236.03a1.048,1.048,0,0,1-.56-.17,1,1,0,0,1-.27-1.39c.14-.2,3.39-4.94,7.47-5.24a5.964,5.964,0,0,1,4.93,2.21.995.995,0,1,1-1.47,1.34,3.993,3.993,0,0,0-3.31-1.56c-3.11.22-5.93,4.32-5.96,4.37a1.012,1.012,0,0,1-.83.44Z" fill="#82c9f1"/>
        </g>
        <g id="Group_4336" data-name="Group 4336">
          <path id="Path_904" data-name="Path 904" d="M236.01,247.47c-3.81,0-6.89-1.48-8.69-4.16a9.656,9.656,0,0,1-.9-8.82,1.249,1.249,0,0,1,2.31.95,7.072,7.072,0,0,0,.67,6.48c.93,1.39,2.84,3.05,6.61,3.05,7.49,0,11.4-9.08,11.4-18.04,0-7.95-2.1-17.42-12.13-17.42a7.027,7.027,0,0,0-5.63,2.19c-2.55,3-1.75,8.17-1.74,8.22a1.245,1.245,0,0,1-1.03,1.43,1.261,1.261,0,0,1-1.44-1.03c-.04-.26-1.01-6.34,2.29-10.23,1.74-2.05,4.27-3.08,7.54-3.08,9.44,0,14.63,7.07,14.63,19.92,0,10.21-4.78,20.54-13.9,20.54Z" fill="#ab4897"/>
          <path id="Path_905" data-name="Path 905" d="M221.68,264.17a1,1,0,0,1-1-1V240.55c0-9.47,3.98-11.62,9.6-13.63,5.26-1.88,10.78-7.36,10.84-7.42a1,1,0,0,1,1.41,1.41c-.24.24-5.9,5.86-11.58,7.89-5.13,1.83-8.27,3.38-8.27,11.75v22.62A1,1,0,0,1,221.68,264.17Z" fill="#82c9f1"/>
          <path id="Path_906" data-name="Path 906" d="M218.47,264.17a1,1,0,0,1-1-1V237.49a14.194,14.194,0,0,1,9.22-13.32,21.151,21.151,0,0,0,8.69-6.61,1,1,0,0,1,1.39-.24,1.007,1.007,0,0,1,.25,1.39,22.863,22.863,0,0,1-9.58,7.32,12.074,12.074,0,0,0-7.96,11.46v25.68a1,1,0,0,1-1,1Z" fill="#82c9f1"/>
          <path id="Path_907" data-name="Path 907" d="M226.03,225.93a5.071,5.071,0,0,1-1.43-.19,5.252,5.252,0,0,1-3.31-2.9,1,1,0,0,1,1.78-.9,3.358,3.358,0,0,0,2.06,1.88c1.83.51,3.99-.81,4.01-.82a1,1,0,1,1,1.07,1.69,8.744,8.744,0,0,1-4.18,1.25Z" fill="#82c9f1"/>
          <path id="Path_908" data-name="Path 908" d="M241.14,232.38a1,1,0,0,1-.83-.45c-.14-.21-3.32-4.78-10.6-2.66a1,1,0,1,1-.56-1.92c8.74-2.55,12.79,3.41,12.83,3.47a.99.99,0,0,1-.29,1.38,1,1,0,0,1-.55.16Z" fill="#82c9f1"/>
          <path id="Path_909" data-name="Path 909" d="M234.57,236.03a1,1,0,0,1-.83-.44c-.03-.04-2.85-4.14-5.96-4.37a4.049,4.049,0,0,0-3.31,1.56.995.995,0,1,1-1.47-1.34,5.931,5.931,0,0,1,4.93-2.21c4.08.29,7.33,5.04,7.47,5.24a1,1,0,0,1-.27,1.39.969.969,0,0,1-.56.17Z" fill="#82c9f1"/>
        </g>
        <path id="Path_910" data-name="Path 910" d="M560.69,185.1H373.01a1,1,0,0,1,0-2H560.69a1,1,0,0,1,0,2Z" fill="#ab4897"/>
        <g id="Group_4337" data-name="Group 4337" opacity="0.22">
          <path id="Path_911" data-name="Path 911" d="M243.96,71.88c1.7-1.33,2.15-3.11,2.37-5.33s-.44-4.37.67-5.85,3.48-7.7,1.11-10.89c0,0-.44-.81-.37-4.52s1.63-17.04-2.89-27.33S231.07,1,217.3,1h-1.15a37.921,37.921,0,0,0-5.97.47c8.53,1.1,17.6,3.75,21.79,9.82,9.03,13.09,9.03,22.16,8.4,32.5s2.81,6.75.98,12.24-2.51,4.64-3.54,7.39-1.06,6.75-2.31,12.66c-.51,2.39,1.09,4.79,3.17,6.81a30.622,30.622,0,0,0,1.8-4.56c.89-3.18,1.78-5.11,3.48-6.44Z" fill="#d5a3cb"/>
        </g>
        <path id="Path_912" data-name="Path 912" d="M328.75,322.24a.938.938,0,0,1-.55-.17c-1.44-.96-8.67-5.92-9.31-9.13-.22-1.1-1.07-6.32-2.15-12.93-1.87-11.43-4.43-27.08-5.55-32.69-1.8-8.99-5.56-22.57-7.58-28.93-2.26-7.09-5.38-22.82-5.38-33.91,0-5-.85-12.17-1.67-19.1-1.09-9.19-2.11-17.86-1.43-22.54,1.08-7.4,4.35-29.89-13.82-42.5-.83-.26-5.09-1.56-9.42-2.61-4.93-1.19-31.08-12.01-36.9-15.84-6.03-3.96-3.99-7.46-1.84-11.15l.49-.84c3.12-5.47,4.98-9.34,5.68-11.85.87-3.13,1.82-5.39,3.83-6.96,1.39-1.08,1.78-2.52,1.99-4.65a15.737,15.737,0,0,0,.02-2.06c-.05-1.49-.11-3.02.84-4.29,1.01-1.34,3.06-7.08,1.11-9.69-.03-.04-.05-.08-.08-.12-.17-.31-.56-1.43-.49-5.02.01-.52.05-1.23.1-2.09.29-5.25.9-16.17-2.9-24.82C239.11,7.8,229.65,1.99,217.1,1.99h-1.15c-12.55,0-22.01,5.81-26.64,16.36-3.8,8.65-3.19,19.57-2.9,24.82.05.86.09,1.57.1,2.09.07,3.58-.32,4.7-.49,5.02a.834.834,0,0,1-.08.12c-1.95,2.62.1,8.35,1.11,9.69.95,1.26.89,2.8.84,4.29a15.734,15.734,0,0,0,.02,2.06c.21,2.12.61,3.56,1.99,4.65,2.01,1.57,2.95,3.83,3.83,6.96.7,2.5,2.56,6.38,5.68,11.85l.49.84c2.15,3.7,4.18,7.19-1.84,11.15-5.82,3.83-31.97,14.64-36.9,15.84-4.33,1.05-8.59,2.35-9.42,2.61-18.17,12.61-14.9,35.1-13.82,42.5.68,4.67-.35,13.35-1.43,22.54-.82,6.94-1.67,14.11-1.67,19.1,0,11.09-3.12,26.82-5.38,33.91-2.02,6.35-5.78,19.94-7.58,28.93-1.12,5.62-3.68,21.27-5.55,32.69-1.08,6.61-1.93,11.83-2.15,12.93-.64,3.21-7.87,8.17-9.31,9.13a1,1,0,0,1-1.11-1.67c3.3-2.2,8.11-6.1,8.46-7.86.21-1.07,1.06-6.27,2.14-12.86,1.87-11.44,4.43-27.11,5.56-32.76,1.81-9.06,5.6-22.74,7.63-29.14,2.22-6.97,5.29-22.42,5.29-33.3a188.428,188.428,0,0,1,1.68-19.34c1.02-8.65,2.08-17.6,1.44-22.02-1.12-7.72-4.54-31.22,14.79-44.52a.845.845,0,0,1,.27-.13c.05-.02,4.83-1.5,9.69-2.68,4.72-1.14,30.75-11.93,36.28-15.57,4.45-2.92,3.37-4.78,1.21-8.48l-.5-.86c-3.25-5.69-5.12-9.6-5.87-12.3-.92-3.28-1.74-4.83-3.13-5.92-2.15-1.68-2.55-3.99-2.75-6.02a18.294,18.294,0,0,1-.03-2.33,4.973,4.973,0,0,0-.44-3.02c-1.21-1.62-3.84-8.25-1.18-11.99a15.219,15.219,0,0,0,.24-4c0-.5-.05-1.19-.09-2.02-.3-5.4-.92-16.64,3.07-25.73C192.47,6.23,202.58-.01,215.97-.01h1.15c13.39,0,23.5,6.24,28.47,17.56,3.99,9.09,3.37,20.33,3.07,25.73-.05.83-.08,1.52-.09,2.02a14.085,14.085,0,0,0,.26,4.02c2.63,3.74.01,10.35-1.2,11.97a4.887,4.887,0,0,0-.44,3.02,16.586,16.586,0,0,1-.03,2.33c-.2,2.03-.6,4.34-2.75,6.02-1.38,1.08-2.23,2.69-3.13,5.92-.75,2.7-2.62,6.61-5.87,12.3l-.5.86c-2.15,3.7-3.23,5.55,1.21,8.48,5.52,3.63,31.56,14.42,36.28,15.57,4.86,1.18,9.64,2.67,9.69,2.68a.845.845,0,0,1,.27.13c19.33,13.3,15.92,36.8,14.79,44.52-.64,4.41.42,13.36,1.44,22.02a188.194,188.194,0,0,1,1.68,19.34c0,10.89,3.07,26.34,5.29,33.3,2.04,6.4,5.82,20.08,7.63,29.14,1.13,5.65,3.69,21.32,5.56,32.76,1.08,6.59,1.93,11.79,2.14,12.86.35,1.76,5.16,5.66,8.46,7.86a1.01,1.01,0,0,1,.28,1.39,1,1,0,0,1-.83.45Z" fill="#ab4897"/>
        <path id="Path_913" data-name="Path 913" d="M275.75,246.44c-.46-11.31-4.49-41.35-5.3-68.44,0,0-4.26,43.42-4.26,74.18,0,2.17.04,4.38.11,6.61l13.73,6.43a59.956,59.956,0,0,1-4.28-18.78Z" opacity="0.62" fill="url(#linear-gradient-2)"/>
        <path id="Path_914" data-name="Path 914" d="M305.62,321.7c-.16-.3-15.63-30.18-20.54-41.72-.46-1.08-.92-2.16-1.38-3.22-4.39-10.21-8.53-19.84-8.95-30.29-.17-4.18-.82-10.82-1.64-19.22-1-10.23-2.18-22.24-2.95-34.48-1.25,15.41-2.97,40.03-2.97,59.39,0,30.31,7.4,68.5,7.47,68.88l-1.96.38c-.08-.38-7.51-38.76-7.51-69.26s4.22-73.84,4.27-74.27l1.99.07c.51,16.98,2.25,34.79,3.65,49.1.83,8.43,1.48,15.09,1.65,19.33.41,10.07,4.29,19.11,8.79,29.58.46,1.06.92,2.14,1.38,3.22,4.88,11.47,20.32,41.28,20.47,41.58l-1.78.92Z" fill="#ab4897"/>
        <g id="Group_4338" data-name="Group 4338">
          <circle id="Ellipse_65" data-name="Ellipse 65" cx="26.25" cy="26.25" r="26.25" transform="translate(190.42 66.19)" fill="#f5f5f5"/>
          <path id="Path_915" data-name="Path 915" d="M216.67,119.19a26.75,26.75,0,1,1,26.75-26.75A26.78,26.78,0,0,1,216.67,119.19Zm0-52.5a25.75,25.75,0,1,0,25.75,25.75A25.777,25.777,0,0,0,216.67,66.69Z" fill="#99a0a3"/>
        </g>
        <path id="Path_916" data-name="Path 916" d="M211.39,103.85c-1.29,0-2.67-1.07-3.91-3.06a24.353,24.353,0,0,1-2.95-8.14c-.96-5.05-.61-9.7.91-11.85a2.693,2.693,0,0,1,1.78-1.22,3.846,3.846,0,0,1,4.04,1.96l-.04-.34.33.81a12.926,12.926,0,0,1,1.1,2.69h0l.2.47c.45.98,2.11,4.22,4.05,4.21,1.32-.02,2.7-1.63,3.98-4.66a8.384,8.384,0,0,1,1.13-2.7l.29-.68-.04.33a4.46,4.46,0,0,1,4.08-2.1h0c2.8.54,3.97,6.27,2.67,13.07a24.518,24.518,0,0,1-2.95,8.14c-1.38,2.22-2.93,3.29-4.35,3.02-.97-.19-1.38-.96-1.9-1.94-.12-.23-.25-.48-.4-.75l-.33-.53c-.69-1.14-1.42-1.71-2.17-1.72h-.01c-1.31,0-2.43,1.71-2.44,1.73l-.74,1.16v-.02c-.08.14-.15.28-.22.41-.42.8-.78,1.49-1.67,1.66a2.119,2.119,0,0,1-.44.04Zm-3.46-23.33a3.657,3.657,0,0,0-.57.05,1.737,1.737,0,0,0-1.12.81c-1.35,1.91-1.64,6.37-.74,11.09a23.445,23.445,0,0,0,2.82,7.8c1.13,1.82,2.34,2.76,3.31,2.57.39-.08.58-.4.97-1.14a11.753,11.753,0,0,1,1.02-1.67l.73-.98v.08a3.734,3.734,0,0,1,2.53-1.25h.02A3.005,3.005,0,0,1,219.12,99l.02-.16.78,1.22c.31.5.55.95.76,1.35.49.92.72,1.34,1.2,1.43.96.18,2.18-.75,3.31-2.57a23.362,23.362,0,0,0,2.82-7.8c1.25-6.56.02-11.54-1.88-11.9h0c-1.3-.25-3.58,1.19-4.31,4.45l-.32-.06.3.13c-1.49,3.54-3.09,5.27-4.9,5.3h-.04c-2.46,0-4.27-3.36-4.94-4.81l-.21-.49.19-.08-.21.05c-1.11-3.77-2.53-4.52-3.77-4.52Z" fill="#ab4897"/>
        <g id="Group_4339" data-name="Group 4339">
          <circle id="Ellipse_66" data-name="Ellipse 66" cx="0.73" cy="0.73" r="0.73" transform="translate(207.92 87.25)" fill="#82c9f1"/>
          <path id="Path_917" data-name="Path 917" d="M208.65,89.21a1.23,1.23,0,1,1,1.23-1.23A1.229,1.229,0,0,1,208.65,89.21Zm0-1.46a.226.226,0,0,0-.23.23c0,.25.46.25.46,0a.226.226,0,0,0-.23-.23Z" fill="#82c9f1"/>
        </g>
        <g id="Group_4340" data-name="Group 4340">
          <circle id="Ellipse_67" data-name="Ellipse 67" cx="0.73" cy="0.73" r="0.73" transform="translate(209.78 95.2)" fill="#82c9f1"/>
          <path id="Path_918" data-name="Path 918" d="M210.51,97.16a1.23,1.23,0,1,1,1.23-1.23A1.229,1.229,0,0,1,210.51,97.16Zm0-1.46a.226.226,0,0,0-.23.23c0,.25.46.25.46,0a.233.233,0,0,0-.23-.23Z" fill="#82c9f1"/>
        </g>
        <g id="Group_4341" data-name="Group 4341">
          <circle id="Ellipse_68" data-name="Ellipse 68" cx="0.73" cy="0.73" r="0.73" transform="translate(221.97 95.05)" fill="#82c9f1"/>
          <path id="Path_919" data-name="Path 919" d="M222.7,97.01a1.23,1.23,0,1,1,1.23-1.23A1.229,1.229,0,0,1,222.7,97.01Zm0-1.46a.226.226,0,0,0-.23.23c0,.25.46.25.46,0a.226.226,0,0,0-.23-.23Z" fill="#82c9f1"/>
        </g>
        <g id="Group_4342" data-name="Group 4342">
          <circle id="Ellipse_69" data-name="Ellipse 69" cx="0.73" cy="0.73" r="0.73" transform="translate(223.55 87.47)" fill="#82c9f1"/>
          <path id="Path_920" data-name="Path 920" d="M224.28,89.43a1.23,1.23,0,1,1,1.23-1.23A1.229,1.229,0,0,1,224.28,89.43Zm0-1.46a.226.226,0,0,0-.23.23c0,.25.46.25.46,0a.226.226,0,0,0-.23-.23Z" fill="#82c9f1"/>
        </g>
        <g id="Group_4343" data-name="Group 4343">
          <circle id="Ellipse_70" data-name="Ellipse 70" cx="58.85" cy="58.85" r="58.85" transform="translate(0.5 124.2)" fill="#f5f5f5"/>
          <path id="Path_921" data-name="Path 921" d="M59.35,242.4a59.35,59.35,0,1,1,59.35-59.35A59.418,59.418,0,0,1,59.35,242.4Zm0-117.69a58.35,58.35,0,1,0,58.35,58.35,58.415,58.415,0,0,0-58.35-58.35Z" fill="#99a0a3"/>
        </g>
        <path id="Path_922" data-name="Path 922" d="M98.47,195H20.23a.43.43,0,1,1,0-.86H98.47a.43.43,0,1,1,0,.86Z" fill="#fff"/>
        <path id="Path_923" data-name="Path 923" d="M98.47,207.98H20.23a.43.43,0,1,1,0-.86H98.47a.43.43,0,1,1,0,.86Z" fill="#fff"/>
        <path id="Path_924" data-name="Path 924" d="M52.59,190.24H52.5a.432.432,0,0,1-.33-.51c1.97-9.23-2.62-14.13-2.67-14.18a.438.438,0,0,1,.01-.61.425.425,0,0,1,.6,0c.2.21,4.96,5.25,2.89,14.95a.428.428,0,0,1-.42.34Z" fill="#fff"/>
        <path id="Path_925" data-name="Path 925" d="M46.93,224.28c-1.19,0-2.45-1.57-3.68-3.1-.96-1.2-2.06-2.56-2.77-2.64a.436.436,0,0,0-.33.1c-1.67,1.35.09,4.8.11,4.83a.429.429,0,0,1-.76.4c-.09-.17-2.1-4.11.11-5.9a1.255,1.255,0,0,1,.96-.29c1.06.11,2.17,1.49,3.34,2.95,1.14,1.42,2.55,3.18,3.31,2.68.71-.47.33-1.61-.33-3.31-.67-1.73-1.43-3.68.16-4.58a1.323,1.323,0,0,1,1.16-.14c.84.31,1.29,1.48,1.8,2.84.8,2.13,1.48,3.62,2.88,3.35a1.109,1.109,0,0,0,.91-.64c.6-1.44-1.27-4.73-2.04-5.88a.426.426,0,0,1,.71-.47c.31.46,3.01,4.57,2.12,6.69a1.933,1.933,0,0,1-1.54,1.15c-2.21.42-3.12-1.97-3.84-3.89-.38-1.01-.82-2.16-1.29-2.33a.517.517,0,0,0-.45.08c-.88.5-.49,1.72.22,3.52.63,1.62,1.34,3.45,0,4.33a1.341,1.341,0,0,1-.77.24Z" fill="#fff"/>
        <g id="Group_4344" data-name="Group 4344">
          <path id="Path_926" data-name="Path 926" d="M49.81,206.17a2.73,2.73,0,0,1-5.46,0V191.06a2.73,2.73,0,0,1,5.46,0Z" fill="#0693e3"/>
          <path id="Path_927" data-name="Path 927" d="M47.08,209.12a2.945,2.945,0,0,1-2.94-2.94V191.07a2.94,2.94,0,1,1,5.88,0v15.11A2.945,2.945,0,0,1,47.08,209.12Zm0-20.57a2.522,2.522,0,0,0-2.52,2.52v15.11a2.52,2.52,0,1,0,5.04,0V191.07A2.522,2.522,0,0,0,47.08,188.55Z" fill="#fff"/>
        </g>
        <g id="Group_4345" data-name="Group 4345">
          <path id="Path_928" data-name="Path 928" d="M54.26,206.17a2.73,2.73,0,0,1-5.46,0V191.06a2.73,2.73,0,0,1,5.46,0Z" fill="#0693e3"/>
          <path id="Path_929" data-name="Path 929" d="M51.53,209.12a2.945,2.945,0,0,1-2.94-2.94V191.07a2.94,2.94,0,1,1,5.88,0v15.11A2.945,2.945,0,0,1,51.53,209.12Zm0-20.57a2.522,2.522,0,0,0-2.52,2.52v15.11a2.52,2.52,0,1,0,5.04,0V191.07A2.522,2.522,0,0,0,51.53,188.55Z" fill="#fff"/>
        </g>
        <g id="Group_4346" data-name="Group 4346">
          <path id="Path_930" data-name="Path 930" d="M51.97,208.75a2.73,2.73,0,0,1-5.46,0V193.64a2.73,2.73,0,0,1,5.46,0Z" fill="#0693e3"/>
          <path id="Path_931" data-name="Path 931" d="M49.24,211.69a2.945,2.945,0,0,1-2.94-2.94V193.64a2.94,2.94,0,1,1,5.88,0v15.11A2.945,2.945,0,0,1,49.24,211.69Zm0-20.57a2.522,2.522,0,0,0-2.52,2.52v15.11a2.52,2.52,0,1,0,5.04,0V193.64A2.522,2.522,0,0,0,49.24,191.12Z" fill="#fff"/>
        </g>
        <g id="Group_4347" data-name="Group 4347">
          <path id="Path_932" data-name="Path 932" d="M56.98,208.75a2.73,2.73,0,0,1-5.46,0V193.64a2.73,2.73,0,0,1,5.46,0Z" fill="#0693e3"/>
          <path id="Path_933" data-name="Path 933" d="M54.25,211.69a2.945,2.945,0,0,1-2.94-2.94V193.64a2.94,2.94,0,1,1,5.88,0v15.11A2.945,2.945,0,0,1,54.25,211.69Zm0-20.57a2.522,2.522,0,0,0-2.52,2.52v15.11a2.52,2.52,0,1,0,5.04,0V193.64A2.522,2.522,0,0,0,54.25,191.12Z" fill="#fff"/>
        </g>
        <g id="Group_4348" data-name="Group 4348">
          <path id="Path_934" data-name="Path 934" d="M41.5,208.75a2.73,2.73,0,0,0,5.46,0V193.64a2.73,2.73,0,0,0-5.46,0Z" fill="#0693e3"/>
          <path id="Path_935" data-name="Path 935" d="M44.23,211.69a2.945,2.945,0,0,1-2.94-2.94V193.64a2.94,2.94,0,1,1,5.88,0v15.11A2.945,2.945,0,0,1,44.23,211.69Zm0-20.57a2.522,2.522,0,0,0-2.52,2.52v15.11a2.52,2.52,0,1,0,5.04,0V193.64A2.522,2.522,0,0,0,44.23,191.12Z" fill="#fff"/>
        </g>
        <g id="Group_4349" data-name="Group 4349">
          <path id="Path_936" data-name="Path 936" d="M49.81,211.99a2.73,2.73,0,0,1-5.46,0V196.88a2.73,2.73,0,0,1,5.46,0Z" fill="#82c9f1"/>
          <path id="Path_937" data-name="Path 937" d="M47.08,214.93a2.945,2.945,0,0,1-2.94-2.94V196.88a2.94,2.94,0,1,1,5.88,0v15.11A2.945,2.945,0,0,1,47.08,214.93Zm0-20.57a2.522,2.522,0,0,0-2.52,2.52v15.11a2.52,2.52,0,1,0,5.04,0V196.88A2.522,2.522,0,0,0,47.08,194.36Z" fill="#fff"/>
        </g>
        <g id="Group_4350" data-name="Group 4350">
          <path id="Path_938" data-name="Path 938" d="M54.26,211.99a2.73,2.73,0,0,1-5.46,0V196.88a2.73,2.73,0,0,1,5.46,0Z" fill="#82c9f1"/>
          <path id="Path_939" data-name="Path 939" d="M51.53,214.93a2.945,2.945,0,0,1-2.94-2.94V196.88a2.94,2.94,0,1,1,5.88,0v15.11A2.945,2.945,0,0,1,51.53,214.93Zm0-20.57a2.522,2.522,0,0,0-2.52,2.52v15.11a2.52,2.52,0,1,0,5.04,0V196.88A2.522,2.522,0,0,0,51.53,194.36Z" fill="#fff"/>
        </g>
        <g id="Group_4351" data-name="Group 4351">
          <ellipse id="Ellipse_71" data-name="Ellipse 71" cx="17.81" cy="8.89" rx="17.81" ry="8.89" transform="translate(21.137 166.299) rotate(-14.11)" fill="#0693e3"/>
          <path id="Path_940" data-name="Path 940" d="M34.76,180.44a22.348,22.348,0,0,1-4.9-.5c-3.75-.83-6.15-2.59-6.75-4.98-1.22-4.87,5.62-10.8,15.26-13.22s18.47-.43,19.7,4.43-5.62,10.8-15.26,13.22a33.488,33.488,0,0,1-8.04,1.04Zm11.66-19.31a32.891,32.891,0,0,0-7.96,1.03c-9.41,2.37-16.11,8.06-14.95,12.7.56,2.22,2.84,3.88,6.43,4.67a28.7,28.7,0,0,0,12.75-.54c9.41-2.37,16.11-8.06,14.95-12.7-.82-3.27-5.34-5.15-11.22-5.15Z" fill="#fff"/>
        </g>
        <g id="Group_4352" data-name="Group 4352">
          <ellipse id="Ellipse_72" data-name="Ellipse 72" cx="8.89" cy="17.81" rx="8.89" ry="17.81" transform="translate(21.152 153.521) rotate(-75.89)" fill="#0693e3"/>
          <path id="Path_941" data-name="Path 941" d="M46.41,159.13a33.363,33.363,0,0,1-8.04-1.04c-9.64-2.42-16.48-8.35-15.26-13.22.6-2.38,3-4.15,6.75-4.98a29.112,29.112,0,0,1,12.94.55c9.64,2.42,16.48,8.35,15.26,13.22-.6,2.39-3,4.15-6.75,4.98a23.042,23.042,0,0,1-4.9.5ZM34.77,139.82a22.141,22.141,0,0,0-4.81.49c-3.59.79-5.87,2.45-6.43,4.67-1.17,4.64,5.54,10.34,14.95,12.7a28.556,28.556,0,0,0,12.75.54c3.59-.79,5.87-2.45,6.43-4.67,1.17-4.64-5.54-10.33-14.95-12.7A33.106,33.106,0,0,0,34.77,139.82Z" fill="#fff"/>
        </g>
        <circle id="Ellipse_73" data-name="Ellipse 73" cx="9.22" cy="9.22" r="9.22" transform="translate(37.54 150.25)" fill="#fff"/>
        <text id="Ca" transform="translate(39.37 162.45)" fill="#73726d" font-size="8.57" font-family="Helvetica-Bold, Helvetica" font-weight="700"><tspan x="0" y="0">Ca</tspan></text>
        <text id="_2_" data-name="2+" transform="translate(48.87 159.59)" fill="#73726d" font-size="5" font-family="Helvetica-Bold, Helvetica" font-weight="700"><tspan x="0" y="0">2+</tspan></text>
        <path id="Path_942" data-name="Path 942" d="M66.06,190.24a.428.428,0,0,1-.42-.34c-2.07-9.7,2.68-14.74,2.89-14.95a.417.417,0,0,1,.6,0,.437.437,0,0,1,.01.61c-.05.05-4.63,4.95-2.67,14.18a.432.432,0,0,1-.33.51h-.09Z" fill="#fff"/>
        <path id="Path_943" data-name="Path 943" d="M71.72,224.28a1.42,1.42,0,0,1-.77-.24c-1.34-.89-.63-2.72,0-4.33.7-1.81,1.1-3.03.22-3.52a.484.484,0,0,0-.45-.08c-.47.17-.91,1.32-1.29,2.33-.73,1.92-1.63,4.32-3.84,3.89a1.952,1.952,0,0,1-1.54-1.15c-.89-2.12,1.81-6.23,2.12-6.69a.426.426,0,0,1,.71.47c-.77,1.15-2.64,4.45-2.04,5.88a1.1,1.1,0,0,0,.91.64c1.4.27,2.08-1.22,2.88-3.35.51-1.36.96-2.53,1.8-2.84a1.385,1.385,0,0,1,1.16.14c1.59.9.83,2.86.16,4.58-.66,1.69-1.04,2.84-.33,3.31.76.5,2.17-1.26,3.31-2.68,1.17-1.46,2.28-2.84,3.34-2.95a1.255,1.255,0,0,1,.96.29c2.22,1.79.2,5.73.11,5.9a.429.429,0,0,1-.76-.4c.02-.04,1.78-3.49.11-4.83a.4.4,0,0,0-.33-.1c-.71.08-1.8,1.44-2.77,2.64-1.23,1.53-2.49,3.1-3.68,3.1Z" fill="#fff"/>
        <g id="Group_4353" data-name="Group 4353">
          <path id="Path_944" data-name="Path 944" d="M68.83,206.17a2.73,2.73,0,0,0,5.46,0V191.06a2.73,2.73,0,0,0-5.46,0Z" fill="#0693e3"/>
          <path id="Path_945" data-name="Path 945" d="M71.56,209.12a2.945,2.945,0,0,1-2.94-2.94V191.07a2.94,2.94,0,1,1,5.88,0v15.11A2.945,2.945,0,0,1,71.56,209.12Zm0-20.57a2.522,2.522,0,0,0-2.52,2.52v15.11a2.52,2.52,0,1,0,5.04,0V191.07A2.522,2.522,0,0,0,71.56,188.55Z" fill="#fff"/>
        </g>
        <g id="Group_4354" data-name="Group 4354">
          <path id="Path_946" data-name="Path 946" d="M64.39,206.17a2.73,2.73,0,0,0,5.46,0V191.06a2.73,2.73,0,0,0-5.46,0Z" fill="#0693e3"/>
          <path id="Path_947" data-name="Path 947" d="M67.12,209.12a2.945,2.945,0,0,1-2.94-2.94V191.07a2.94,2.94,0,1,1,5.88,0v15.11A2.945,2.945,0,0,1,67.12,209.12Zm0-20.57a2.522,2.522,0,0,0-2.52,2.52v15.11a2.52,2.52,0,1,0,5.04,0V191.07A2.522,2.522,0,0,0,67.12,188.55Z" fill="#fff"/>
        </g>
        <g id="Group_4355" data-name="Group 4355">
          <path id="Path_948" data-name="Path 948" d="M66.68,208.75a2.73,2.73,0,0,0,5.46,0V193.64a2.73,2.73,0,0,0-5.46,0Z" fill="#0693e3"/>
          <path id="Path_949" data-name="Path 949" d="M69.41,211.69a2.945,2.945,0,0,1-2.94-2.94V193.64a2.94,2.94,0,0,1,5.88,0v15.11A2.945,2.945,0,0,1,69.41,211.69Zm0-20.57a2.522,2.522,0,0,0-2.52,2.52v15.11a2.52,2.52,0,1,0,5.04,0V193.64A2.522,2.522,0,0,0,69.41,191.12Z" fill="#fff"/>
        </g>
        <g id="Group_4356" data-name="Group 4356">
          <path id="Path_950" data-name="Path 950" d="M61.66,208.75a2.73,2.73,0,0,0,5.46,0V193.64a2.73,2.73,0,0,0-5.46,0Z" fill="#0693e3"/>
          <path id="Path_951" data-name="Path 951" d="M64.39,211.69a2.945,2.945,0,0,1-2.94-2.94V193.64a2.94,2.94,0,1,1,5.88,0v15.11A2.945,2.945,0,0,1,64.39,211.69Zm0-20.57a2.522,2.522,0,0,0-2.52,2.52v15.11a2.52,2.52,0,1,0,5.04,0V193.64A2.522,2.522,0,0,0,64.39,191.12Z" fill="#fff"/>
        </g>
        <g id="Group_4357" data-name="Group 4357">
          <path id="Path_952" data-name="Path 952" d="M77.15,208.75a2.73,2.73,0,0,1-5.46,0V193.64a2.73,2.73,0,0,1,5.46,0Z" fill="#0693e3"/>
          <path id="Path_953" data-name="Path 953" d="M74.42,211.69a2.945,2.945,0,0,1-2.94-2.94V193.64a2.94,2.94,0,0,1,5.88,0v15.11A2.945,2.945,0,0,1,74.42,211.69Zm0-20.57a2.522,2.522,0,0,0-2.52,2.52v15.11a2.52,2.52,0,1,0,5.04,0V193.64A2.522,2.522,0,0,0,74.42,191.12Z" fill="#fff"/>
        </g>
        <g id="Group_4358" data-name="Group 4358">
          <path id="Path_954" data-name="Path 954" d="M68.83,211.99a2.73,2.73,0,0,0,5.46,0V196.88a2.73,2.73,0,0,0-5.46,0Z" fill="#82c9f1"/>
          <path id="Path_955" data-name="Path 955" d="M71.56,214.93a2.945,2.945,0,0,1-2.94-2.94V196.88a2.94,2.94,0,0,1,5.88,0v15.11A2.945,2.945,0,0,1,71.56,214.93Zm0-20.57a2.522,2.522,0,0,0-2.52,2.52v15.11a2.52,2.52,0,1,0,5.04,0V196.88A2.522,2.522,0,0,0,71.56,194.36Z" fill="#fff"/>
        </g>
        <g id="Group_4359" data-name="Group 4359">
          <path id="Path_956" data-name="Path 956" d="M64.39,211.99a2.73,2.73,0,0,0,5.46,0V196.88a2.73,2.73,0,0,0-5.46,0Z" fill="#82c9f1"/>
          <path id="Path_957" data-name="Path 957" d="M67.12,214.93a2.945,2.945,0,0,1-2.94-2.94V196.88a2.94,2.94,0,0,1,5.88,0v15.11A2.945,2.945,0,0,1,67.12,214.93Zm0-20.57a2.522,2.522,0,0,0-2.52,2.52v15.11a2.52,2.52,0,1,0,5.04,0V196.88A2.522,2.522,0,0,0,67.12,194.36Z" fill="#fff"/>
        </g>
        <g id="Group_4360" data-name="Group 4360">
          <ellipse id="Ellipse_74" data-name="Ellipse 74" cx="8.89" cy="17.81" rx="8.89" ry="17.81" transform="translate(58.623 174.837) rotate(-75.89)" fill="#0693e3"/>
          <path id="Path_958" data-name="Path 958" d="M83.88,180.44a33.363,33.363,0,0,1-8.04-1.04c-9.64-2.42-16.48-8.35-15.26-13.22s10.06-6.85,19.7-4.43,16.48,8.35,15.26,13.22c-.6,2.39-3,4.15-6.75,4.98a22.974,22.974,0,0,1-4.9.5ZM72.22,161.13c-5.89,0-10.4,1.88-11.22,5.15-1.17,4.64,5.54,10.34,14.95,12.7a28.556,28.556,0,0,0,12.75.54c3.59-.79,5.87-2.45,6.43-4.67,1.17-4.64-5.54-10.34-14.95-12.7a32.891,32.891,0,0,0-7.96-1.03Z" fill="#fff"/>
        </g>
        <g id="Group_4361" data-name="Group 4361">
          <ellipse id="Ellipse_75" data-name="Ellipse 75" cx="17.81" cy="8.89" rx="17.81" ry="8.89" transform="translate(58.612 144.987) rotate(-14.11)" fill="#0693e3"/>
          <path id="Path_959" data-name="Path 959" d="M72.24,159.13a22.348,22.348,0,0,1-4.9-.5c-3.75-.83-6.15-2.59-6.75-4.98-1.22-4.87,5.62-10.8,15.26-13.22a29.112,29.112,0,0,1,12.94-.55c3.75.83,6.15,2.59,6.75,4.98,1.22,4.87-5.62,10.8-15.26,13.22a33.488,33.488,0,0,1-8.04,1.04Zm11.64-19.31a33.17,33.17,0,0,0-7.94,1.03c-9.41,2.37-16.11,8.06-14.95,12.7.56,2.22,2.84,3.88,6.43,4.67a28.7,28.7,0,0,0,12.75-.54c9.41-2.37,16.11-8.06,14.95-12.7-.56-2.22-2.84-3.88-6.43-4.67a22.207,22.207,0,0,0-4.81-.49Z" fill="#fff"/>
        </g>
        <circle id="Ellipse_76" data-name="Ellipse 76" cx="9.22" cy="9.22" r="9.22" transform="translate(62.67 150.25)" fill="#fff"/>
        <text id="Ca-2" data-name="Ca" transform="translate(64.5 162.45)" fill="#73726d" font-size="8.57" font-family="Helvetica-Bold, Helvetica" font-weight="700"><tspan x="0" y="0">Ca</tspan></text>
        <text id="_2_2" data-name="2+" transform="translate(74 159.59)" fill="#73726d" font-size="5" font-family="Helvetica-Bold, Helvetica" font-weight="700"><tspan x="0" y="0">2+</tspan></text>
        <g id="Group_4379" data-name="Group 4379">
          <path id="Path_965" data-name="Path 965" d="M99.32,195.16H20.42a.43.43,0,1,1,0-.86h78.9a.43.43,0,1,1,0,.86Z" fill="#72726e"/>
          <path id="Path_966" data-name="Path 966" d="M99.32,208.25H20.42a.43.43,0,1,1,0-.86h78.9a.43.43,0,1,1,0,.86Z" fill="#72726e"/>
          <path id="Path_967" data-name="Path 967" d="M53.06,190.36h-.09a.432.432,0,0,1-.33-.51,18.625,18.625,0,0,0-.59-10.68,11.631,11.631,0,0,0-2.1-3.62.431.431,0,0,1,.62-.6c.21.21,5,5.3,2.91,15.08a.428.428,0,0,1-.42.34Z" fill="#72726e"/>
          <path id="Path_968" data-name="Path 968" d="M47.35,224.69c-1.2,0-2.48-1.58-3.71-3.12-.97-1.21-2.07-2.58-2.79-2.66a.436.436,0,0,0-.33.1c-1.68,1.36.09,4.84.11,4.87a.429.429,0,0,1-.76.4c-.09-.17-2.12-4.14.11-5.94a1.278,1.278,0,0,1,.97-.29c1.07.12,2.19,1.5,3.37,2.98,1.15,1.43,2.57,3.21,3.34,2.7.72-.47.33-1.63-.33-3.33-.68-1.74-1.44-3.71.16-4.62a1.38,1.38,0,0,1,1.17-.15c.85.31,1.3,1.49,1.81,2.86.81,2.15,1.5,3.65,2.91,3.38a1.12,1.12,0,0,0,.92-.65c.61-1.45-1.28-4.77-2.06-5.93a.433.433,0,0,1,.72-.48c.31.47,3.03,4.61,2.14,6.75a1.959,1.959,0,0,1-1.55,1.16c-2.23.42-3.15-1.99-3.88-3.93-.39-1.02-.82-2.18-1.3-2.35a.5.5,0,0,0-.45.09c-.89.5-.49,1.73.22,3.55.63,1.63,1.35,3.47,0,4.37a1.409,1.409,0,0,1-.78.25Z" fill="#72726e"/>
          <g id="Group_4362" data-name="Group 4362">
            <path id="Path_969" data-name="Path 969" d="M50.26,206.43a2.75,2.75,0,0,1-5.5,0V191.2a2.75,2.75,0,0,1,5.5,0Z" fill="#aa4797"/>
            <path id="Path_970" data-name="Path 970" d="M47.5,209.68a3.256,3.256,0,0,1-3.25-3.25V191.2a3.25,3.25,0,0,1,6.5,0v15.23A3.256,3.256,0,0,1,47.5,209.68Zm0-20.74a2.253,2.253,0,0,0-2.25,2.25v15.23a2.25,2.25,0,0,0,4.5,0V191.19A2.253,2.253,0,0,0,47.5,188.94Z" fill="#fff"/>
          </g>
          <g id="Group_4363" data-name="Group 4363">
            <path id="Path_971" data-name="Path 971" d="M54.74,206.43a2.75,2.75,0,0,1-5.5,0V191.2a2.75,2.75,0,0,1,5.5,0Z" fill="#aa4797"/>
            <path id="Path_972" data-name="Path 972" d="M51.98,209.68a3.256,3.256,0,0,1-3.25-3.25V191.2a3.25,3.25,0,0,1,6.5,0v15.23A3.256,3.256,0,0,1,51.98,209.68Zm0-20.74a2.253,2.253,0,0,0-2.25,2.25v15.23a2.25,2.25,0,0,0,4.5,0V191.19A2.253,2.253,0,0,0,51.98,188.94Z" fill="#fff"/>
          </g>
          <g id="Group_4364" data-name="Group 4364">
            <path id="Path_973" data-name="Path 973" d="M52.43,209.03a2.75,2.75,0,0,1-5.5,0V193.8a2.75,2.75,0,0,1,5.5,0Z" fill="#aa4797"/>
            <path id="Path_974" data-name="Path 974" d="M49.68,212.28a3.256,3.256,0,0,1-3.25-3.25V193.8a3.25,3.25,0,0,1,6.5,0v15.23A3.256,3.256,0,0,1,49.68,212.28Zm0-20.74a2.253,2.253,0,0,0-2.25,2.25v15.23a2.25,2.25,0,0,0,4.5,0V193.79A2.253,2.253,0,0,0,49.68,191.54Z" fill="#fff"/>
          </g>
          <g id="Group_4365" data-name="Group 4365">
            <path id="Path_975" data-name="Path 975" d="M57.49,209.03a2.75,2.75,0,0,1-5.5,0V193.8a2.75,2.75,0,0,1,5.5,0Z" fill="#aa4797"/>
            <path id="Path_976" data-name="Path 976" d="M54.74,212.28a3.256,3.256,0,0,1-3.25-3.25V193.8a3.25,3.25,0,0,1,6.5,0v15.23A3.256,3.256,0,0,1,54.74,212.28Zm0-20.74a2.253,2.253,0,0,0-2.25,2.25v15.23a2.25,2.25,0,0,0,4.5,0V193.79A2.253,2.253,0,0,0,54.74,191.54Z" fill="#fff"/>
          </g>
          <g id="Group_4366" data-name="Group 4366">
            <path id="Path_977" data-name="Path 977" d="M41.87,209.03a2.75,2.75,0,0,0,5.5,0V193.8a2.75,2.75,0,0,0-5.5,0Z" fill="#aa4797"/>
            <path id="Path_978" data-name="Path 978" d="M44.62,212.28a3.256,3.256,0,0,1-3.25-3.25V193.8a3.25,3.25,0,0,1,6.5,0v15.23A3.256,3.256,0,0,1,44.62,212.28Zm0-20.74a2.253,2.253,0,0,0-2.25,2.25v15.23a2.25,2.25,0,0,0,4.5,0V193.79A2.253,2.253,0,0,0,44.62,191.54Z" fill="#fff"/>
          </g>
          <g id="Group_4367" data-name="Group 4367">
            <path id="Path_979" data-name="Path 979" d="M50.26,212.29a2.75,2.75,0,0,1-5.5,0V197.06a2.75,2.75,0,0,1,5.5,0Z" fill="#55234b"/>
            <path id="Path_980" data-name="Path 980" d="M47.5,215.54a3.256,3.256,0,0,1-3.25-3.25V197.06a3.25,3.25,0,0,1,6.5,0v15.23A3.256,3.256,0,0,1,47.5,215.54Zm0-20.74a2.253,2.253,0,0,0-2.25,2.25v15.23a2.25,2.25,0,0,0,4.5,0V197.05A2.253,2.253,0,0,0,47.5,194.8Z" fill="#fff"/>
          </g>
          <g id="Group_4368" data-name="Group 4368">
            <path id="Path_981" data-name="Path 981" d="M54.74,212.29a2.75,2.75,0,0,1-5.5,0V197.06a2.75,2.75,0,0,1,5.5,0Z" fill="#55234b"/>
            <path id="Path_982" data-name="Path 982" d="M51.98,215.54a3.256,3.256,0,0,1-3.25-3.25V197.06a3.25,3.25,0,0,1,6.5,0v15.23A3.256,3.256,0,0,1,51.98,215.54Zm0-20.74a2.253,2.253,0,0,0-2.25,2.25v15.23a2.25,2.25,0,0,0,4.5,0V197.05A2.253,2.253,0,0,0,51.98,194.8Z" fill="#fff"/>
          </g>
          <ellipse id="Ellipse_77" data-name="Ellipse 77" cx="17.96" cy="8.96" rx="17.96" ry="8.96" transform="translate(21.334 166.221) rotate(-14.11)" fill="#aa4797"/>
          <ellipse id="Ellipse_78" data-name="Ellipse 78" cx="8.96" cy="17.96" rx="8.96" ry="17.96" transform="translate(21.354 153.34) rotate(-75.89)" fill="#aa4797"/>
          <g id="Group_4369" data-name="Group 4369">
            <circle id="Ellipse_79" data-name="Ellipse 79" cx="9.29" cy="9.29" r="9.29" transform="translate(37.89 150.05)" fill="#fff"/>
            <path id="Path_983" data-name="Path 983" d="M47.18,169.13a9.79,9.79,0,1,1,9.79-9.79A9.8,9.8,0,0,1,47.18,169.13Zm0-18.59a8.79,8.79,0,1,0,8.79,8.79A8.8,8.8,0,0,0,47.18,150.54Z" fill="#aa4797"/>
          </g>
          <text id="Ca-3" data-name="Ca" transform="translate(38.76 162.34)" fill="#73726d" font-size="8.64" font-family="Helvetica-Bold, Helvetica" font-weight="700"><tspan x="0" y="0" letter-spacing="-0.01em">C</tspan><tspan y="0">a</tspan></text>
          <text id="_2_3" data-name="2+" transform="translate(49.9 159.46)" fill="#73726d" font-size="5" font-family="Helvetica-Bold, Helvetica" font-weight="700"><tspan x="0" y="0">2+</tspan></text>
          <path id="Path_984" data-name="Path 984" d="M66.64,190.36a.428.428,0,0,1-.42-.34c-2.08-9.78,2.71-14.87,2.91-15.08a.431.431,0,0,1,.62.6,11.631,11.631,0,0,0-2.1,3.62,18.625,18.625,0,0,0-.59,10.68.432.432,0,0,1-.33.51h-.09Z" fill="#72726e"/>
          <path id="Path_985" data-name="Path 985" d="M72.35,224.69a1.409,1.409,0,0,1-.78-.25c-1.35-.89-.63-2.74,0-4.37.71-1.82,1.11-3.05.22-3.55a.535.535,0,0,0-.45-.09c-.48.17-.91,1.33-1.3,2.35-.73,1.94-1.64,4.35-3.88,3.93a1.942,1.942,0,0,1-1.55-1.16c-.89-2.13,1.83-6.28,2.14-6.75a.433.433,0,0,1,.72.48c-.78,1.16-2.66,4.48-2.06,5.93a1.12,1.12,0,0,0,.92.65c1.41.27,2.1-1.23,2.91-3.38.52-1.37.96-2.55,1.81-2.86a1.38,1.38,0,0,1,1.17.15c1.61.91.84,2.88.16,4.62-.66,1.71-1.04,2.86-.33,3.33.77.51,2.19-1.27,3.34-2.7,1.18-1.47,2.3-2.86,3.37-2.98a1.29,1.29,0,0,1,.97.29c2.23,1.8.2,5.78.11,5.94a.429.429,0,0,1-.76-.4c.02-.04,1.8-3.51.11-4.87a.386.386,0,0,0-.33-.1c-.72.08-1.82,1.45-2.79,2.66-1.24,1.54-2.51,3.12-3.71,3.12Z" fill="#72726e"/>
          <g id="Group_4370" data-name="Group 4370">
            <path id="Path_986" data-name="Path 986" d="M69.44,206.43a2.75,2.75,0,0,0,5.5,0V191.2a2.75,2.75,0,0,0-5.5,0Z" fill="#aa4797"/>
            <path id="Path_987" data-name="Path 987" d="M72.19,209.68a3.256,3.256,0,0,1-3.25-3.25V191.2a3.25,3.25,0,0,1,6.5,0v15.23A3.256,3.256,0,0,1,72.19,209.68Zm0-20.74a2.253,2.253,0,0,0-2.25,2.25v15.23a2.25,2.25,0,0,0,4.5,0V191.19A2.253,2.253,0,0,0,72.19,188.94Z" fill="#fff"/>
          </g>
          <g id="Group_4371" data-name="Group 4371">
            <path id="Path_988" data-name="Path 988" d="M64.96,206.43a2.75,2.75,0,0,0,5.5,0V191.2a2.75,2.75,0,0,0-5.5,0Z" fill="#aa4797"/>
            <path id="Path_989" data-name="Path 989" d="M67.71,209.68a3.256,3.256,0,0,1-3.25-3.25V191.2a3.25,3.25,0,0,1,6.5,0v15.23A3.256,3.256,0,0,1,67.71,209.68Zm0-20.74a2.253,2.253,0,0,0-2.25,2.25v15.23a2.25,2.25,0,0,0,4.5,0V191.19A2.253,2.253,0,0,0,67.71,188.94Z" fill="#fff"/>
          </g>
          <g id="Group_4372" data-name="Group 4372">
            <path id="Path_990" data-name="Path 990" d="M67.26,209.03a2.75,2.75,0,0,0,5.5,0V193.8a2.75,2.75,0,0,0-5.5,0Z" fill="#aa4797"/>
            <path id="Path_991" data-name="Path 991" d="M70.02,212.28a3.256,3.256,0,0,1-3.25-3.25V193.8a3.25,3.25,0,0,1,6.5,0v15.23A3.256,3.256,0,0,1,70.02,212.28Zm0-20.74a2.253,2.253,0,0,0-2.25,2.25v15.23a2.25,2.25,0,0,0,4.5,0V193.79A2.253,2.253,0,0,0,70.02,191.54Z" fill="#fff"/>
          </g>
          <g id="Group_4373" data-name="Group 4373">
            <path id="Path_992" data-name="Path 992" d="M62.21,209.03a2.75,2.75,0,0,0,5.5,0V193.8a2.75,2.75,0,0,0-5.5,0Z" fill="#aa4797"/>
            <path id="Path_993" data-name="Path 993" d="M64.96,212.28a3.256,3.256,0,0,1-3.25-3.25V193.8a3.25,3.25,0,0,1,6.5,0v15.23A3.256,3.256,0,0,1,64.96,212.28Zm0-20.74a2.253,2.253,0,0,0-2.25,2.25v15.23a2.25,2.25,0,0,0,4.5,0V193.79A2.253,2.253,0,0,0,64.96,191.54Z" fill="#fff"/>
          </g>
          <g id="Group_4374" data-name="Group 4374">
            <path id="Path_994" data-name="Path 994" d="M77.82,209.03a2.75,2.75,0,0,1-5.5,0V193.8a2.75,2.75,0,0,1,5.5,0Z" fill="#aa4797"/>
            <path id="Path_995" data-name="Path 995" d="M75.07,212.28a3.256,3.256,0,0,1-3.25-3.25V193.8a3.25,3.25,0,0,1,6.5,0v15.23A3.256,3.256,0,0,1,75.07,212.28Zm0-20.74a2.253,2.253,0,0,0-2.25,2.25v15.23a2.25,2.25,0,0,0,4.5,0V193.79A2.253,2.253,0,0,0,75.07,191.54Z" fill="#fff"/>
          </g>
          <g id="Group_4375" data-name="Group 4375">
            <path id="Path_996" data-name="Path 996" d="M69.44,212.29a2.75,2.75,0,0,0,5.5,0V197.06a2.75,2.75,0,0,0-5.5,0Z" fill="#55234b"/>
            <path id="Path_997" data-name="Path 997" d="M72.19,215.54a3.256,3.256,0,0,1-3.25-3.25V197.06a3.25,3.25,0,0,1,6.5,0v15.23A3.256,3.256,0,0,1,72.19,215.54Zm0-20.74a2.253,2.253,0,0,0-2.25,2.25v15.23a2.25,2.25,0,0,0,4.5,0V197.05A2.253,2.253,0,0,0,72.19,194.8Z" fill="#fff"/>
          </g>
          <g id="Group_4376" data-name="Group 4376">
            <path id="Path_998" data-name="Path 998" d="M64.96,212.29a2.75,2.75,0,0,0,5.5,0V197.06a2.75,2.75,0,0,0-5.5,0Z" fill="#55234b"/>
            <path id="Path_999" data-name="Path 999" d="M67.71,215.54a3.256,3.256,0,0,1-3.25-3.25V197.06a3.25,3.25,0,0,1,6.5,0v15.23A3.256,3.256,0,0,1,67.71,215.54Zm0-20.74a2.253,2.253,0,0,0-2.25,2.25v15.23a2.25,2.25,0,0,0,4.5,0V197.05A2.253,2.253,0,0,0,67.71,194.8Z" fill="#fff"/>
          </g>
          <ellipse id="Ellipse_80" data-name="Ellipse 80" cx="8.96" cy="17.96" rx="8.96" ry="17.96" transform="translate(59.138 174.829) rotate(-75.89)" fill="#aa4797"/>
          <ellipse id="Ellipse_81" data-name="Ellipse 81" cx="17.96" cy="8.96" rx="17.96" ry="8.96" transform="translate(59.135 144.737) rotate(-14.11)" fill="#aa4797"/>
          <g id="Group_4377" data-name="Group 4377">
            <circle id="Ellipse_82" data-name="Ellipse 82" cx="9.29" cy="9.29" r="9.29" transform="translate(63.23 150.05)" fill="#fff"/>
            <path id="Path_1000" data-name="Path 1000" d="M72.52,169.13a9.79,9.79,0,1,1,9.79-9.79A9.8,9.8,0,0,1,72.52,169.13Zm0-18.59a8.79,8.79,0,1,0,8.79,8.79A8.8,8.8,0,0,0,72.52,150.54Z" fill="#aa4797"/>
          </g>
          <text id="Ca-4" data-name="Ca" transform="translate(64.1 162.34)" fill="#73726d" font-size="8.64" font-family="Helvetica-Bold, Helvetica" font-weight="700"><tspan x="0" y="0" letter-spacing="-0.01em">C</tspan><tspan y="0">a</tspan></text>
          <text id="_2_4" data-name="2+" transform="translate(75.24 159.46)" fill="#73726d" font-size="5" font-family="Helvetica-Bold, Helvetica" font-weight="700"><tspan x="0" y="0">2+</tspan></text>
          <path id="Path_960" data-name="Path 960" d="M59.35,162l1.66,5.11h5.37l-4.35,3.16,1.66,5.11-4.34-3.16L55,175.38l1.66-5.11-4.35-3.16h5.38Z" fill="#ff00d6"/>
        </g>
        <text id="CaSR_with_activating_variant" data-name="CaSR with
activating variant" transform="translate(59.845 261.175)" fill="#73726d" font-size="11" font-family="Helvetica-Bold, Helvetica" font-weight="700"><tspan x="-27.197" y="0">CaSR with</tspan><tspan x="-45.238" y="13">activating variant</tspan></text>
      </g>
      <path id="Path_1763" data-name="Path 1763" d="M93.945,9.633H89.7L88.906,12H86.391L90.5.484h2.719L97.3,12H94.688Zm-.672-1.984L91.836,3.117,90.352,7.648ZM103.719,12H98.758V.484h4.961a6.053,6.053,0,0,1,1.781.25A3.8,3.8,0,0,1,107.461,2.2a5.125,5.125,0,0,1,.82,1.859,8.926,8.926,0,0,1,.219,1.906,7.654,7.654,0,0,1-.922,3.891A4.16,4.16,0,0,1,103.719,12Zm1.789-8.578a2.339,2.339,0,0,0-2.2-.937h-2.219V10h2.219a2.4,2.4,0,0,0,2.375-1.68,5.924,5.924,0,0,0,.367-2.2A5.46,5.46,0,0,0,105.508,3.422ZM117.18,12V6.859h-4.5V12H110.3V.484h2.383V4.875h4.5V.484h2.391V12Zm9.523,0h-2.281V4.188h-2.664V2.672a9.869,9.869,0,0,0,1.477-.141,2.083,2.083,0,0,0,1.094-.594,1.955,1.955,0,0,0,.438-.812,1.865,1.865,0,0,0,.086-.453H126.7Zm14.2-8.125a2.743,2.743,0,0,1,1.148,2.2H139.82a1.317,1.317,0,0,0-.242-.68,1.524,1.524,0,0,0-1.25-.453,1.8,1.8,0,0,0-1.035.227.652.652,0,0,0-.309.531.581.581,0,0,0,.328.555,14.2,14.2,0,0,0,2.32.617,4.262,4.262,0,0,1,1.992.945,2.146,2.146,0,0,1,.656,1.6,2.588,2.588,0,0,1-.941,2.066,5.648,5.648,0,0,1-5.875-.047,2.758,2.758,0,0,1-.957-2.16h2.258a1.487,1.487,0,0,0,.3.844,2.06,2.06,0,0,0,1.531.445,2.334,2.334,0,0,0,1.043-.2.655.655,0,0,0,.074-1.156,12.713,12.713,0,0,0-2.32-.672,4.832,4.832,0,0,1-2.039-.9,1.948,1.948,0,0,1-.594-1.531,2.656,2.656,0,0,1,.926-2.027,3.718,3.718,0,0,1,2.605-.848A4.824,4.824,0,0,1,140.9,3.875Zm6.492,5.891,1.758-6.281h2.367l-2.922,8.375a11.76,11.76,0,0,1-1.336,3,2.539,2.539,0,0,1-1.969.582q-.3,0-.477,0t-.539-.027V13.633l.281.016a3.509,3.509,0,0,0,.625-.023,1.122,1.122,0,0,0,.5-.18,1.2,1.2,0,0,0,.363-.555,1.173,1.173,0,0,0,.137-.516l-3.125-8.891h2.477Zm10.219-3.937a1.091,1.091,0,0,0-1.1-.617,1.315,1.315,0,0,0-1.281.617,2.378,2.378,0,0,0-.18,1.047V12h-2.258V3.5h2.164V4.742a3.583,3.583,0,0,1,.781-.945,3.091,3.091,0,0,1,3.258-.07,2.5,2.5,0,0,1,.734,1.023,2.831,2.831,0,0,1,1.086-1.1,3.314,3.314,0,0,1,1.531-.352,2.964,2.964,0,0,1,1.109.219,2.475,2.475,0,0,1,.992.766,2.446,2.446,0,0,1,.484,1.094,7.56,7.56,0,0,1,.078,1.258L164.992,12h-2.281V6.578a1.78,1.78,0,0,0-.156-.8,1.11,1.11,0,0,0-1.094-.594,1.28,1.28,0,0,0-1.273.766,2.4,2.4,0,0,0-.18.977V12h-2.242V6.93A2.848,2.848,0,0,0,157.609,5.828ZM174.188,4.4a4.569,4.569,0,0,1,1.031,3.234,5.13,5.13,0,0,1-1.012,3.43,3.275,3.275,0,0,1-2.605,1.18,2.719,2.719,0,0,1-1.687-.508,3.274,3.274,0,0,1-.719-.82v4.438h-2.2V3.484h2.133V4.742a3.575,3.575,0,0,1,.766-.875,2.813,2.813,0,0,1,1.766-.57A3.348,3.348,0,0,1,174.188,4.4Zm-1.266,3.344A3.351,3.351,0,0,0,172.473,6a1.564,1.564,0,0,0-1.457-.758,1.658,1.658,0,0,0-1.664,1.148,4.356,4.356,0,0,0-.234,1.547,2.467,2.467,0,0,0,.789,2.086,1.8,1.8,0,0,0,1.109.352,1.608,1.608,0,0,0,1.418-.719A3.352,3.352,0,0,0,172.922,7.742Zm7.8,2.672v1.664l-1.055.039a2.83,2.83,0,0,1-2.156-.547,1.628,1.628,0,0,1-.375-1.18V5.148h-1.187V3.563h1.188V1.188h2.2V3.563h1.383V5.148h-1.383v4.5a1.013,1.013,0,0,0,.133.652,1.462,1.462,0,0,0,.813.129q.1,0,.215,0T180.727,10.414Zm8.531-5.852a4.969,4.969,0,0,1,1.078,3.2,4.936,4.936,0,0,1-1.078,3.207,4.688,4.688,0,0,1-6.547,0,4.936,4.936,0,0,1-1.078-3.207,4.969,4.969,0,0,1,1.078-3.2,4.64,4.64,0,0,1,6.547,0Zm-3.281.531a1.779,1.779,0,0,0-1.5.691,3.2,3.2,0,0,0-.527,1.973,3.217,3.217,0,0,0,.527,1.977,1.97,1.97,0,0,0,3,0A3.235,3.235,0,0,0,188,7.758a3.217,3.217,0,0,0-.523-1.973A1.769,1.769,0,0,0,185.977,5.094Zm10.734.734a1.091,1.091,0,0,0-1.1-.617,1.315,1.315,0,0,0-1.281.617,2.378,2.378,0,0,0-.18,1.047V12h-2.258V3.5h2.164V4.742a3.583,3.583,0,0,1,.781-.945,3.091,3.091,0,0,1,3.258-.07,2.5,2.5,0,0,1,.734,1.023,2.831,2.831,0,0,1,1.086-1.1,3.314,3.314,0,0,1,1.531-.352,2.964,2.964,0,0,1,1.109.219,2.475,2.475,0,0,1,.992.766,2.446,2.446,0,0,1,.484,1.094,7.56,7.56,0,0,1,.078,1.258L204.094,12h-2.281V6.578a1.78,1.78,0,0,0-.156-.8,1.11,1.11,0,0,0-1.094-.594,1.28,1.28,0,0,0-1.273.766,2.4,2.4,0,0,0-.18.977V12h-2.242V6.93A2.848,2.848,0,0,0,196.711,5.828Zm15.313-1.953a2.743,2.743,0,0,1,1.148,2.2h-2.227a1.317,1.317,0,0,0-.242-.68,1.524,1.524,0,0,0-1.25-.453,1.8,1.8,0,0,0-1.035.227.652.652,0,0,0-.309.531.581.581,0,0,0,.328.555,14.2,14.2,0,0,0,2.32.617,4.262,4.262,0,0,1,1.992.945,2.146,2.146,0,0,1,.656,1.6,2.588,2.588,0,0,1-.941,2.066,5.648,5.648,0,0,1-5.875-.047,2.758,2.758,0,0,1-.957-2.16h2.258a1.487,1.487,0,0,0,.3.844,2.06,2.06,0,0,0,1.531.445,2.334,2.334,0,0,0,1.043-.2.655.655,0,0,0,.074-1.156,12.713,12.713,0,0,0-2.32-.672,4.832,4.832,0,0,1-2.039-.9,1.948,1.948,0,0,1-.594-1.531,2.656,2.656,0,0,1,.926-2.027,3.718,3.718,0,0,1,2.605-.848A4.824,4.824,0,0,1,212.023,3.875Z" transform="translate(322 1798)" fill="#a13f8d"/>
    </g>
    <text id="Inadequate_PTH_secretion" data-name="Inadequate
PTH secretion" transform="translate(442 1993)" fill="#73726d" font-size="11" font-family="Helvetica"><tspan x="0" y="0">Inadequate</tspan><tspan x="0" y="13">PTH secretion</tspan></text>
    <text id="Diminished_Ca2_reabsorption" data-name="Diminished Ca2+
reabsorption" transform="translate(442 2036)" fill="#73726d" font-size="11" font-family="Helvetica"><tspan x="0" y="0">Diminished Ca</tspan><tspan y="0" font-size="6.416" baseline-shift="3.6662998971165743">2+</tspan><tspan x="0" y="13">reabsorption</tspan></text>
  </g>
</svg>
