<svg xmlns="http://www.w3.org/2000/svg" xmlns:xlink="http://www.w3.org/1999/xlink" width="373.913" height="918.436" viewBox="0 0 373.913 918.436">
  <defs>
    <linearGradient id="linear-gradient" x1="0.5" x2="0.5" y2="0.65" gradientUnits="objectBoundingBox">
      <stop offset="0" stop-color="#6f4d98" stop-opacity="0.302"/>
      <stop offset="1" stop-color="#fff"/>
    </linearGradient>
    <linearGradient id="linear-gradient-2" x1="0.5" x2="0.5" y2="0.636" gradientUnits="objectBoundingBox">
      <stop offset="0" stop-color="#a13f8d" stop-opacity="0.302"/>
      <stop offset="1" stop-color="#fff"/>
    </linearGradient>
    <linearGradient id="linear-gradient-3" x1="0.5" x2="0.5" y2="0.445" gradientUnits="objectBoundingBox">
      <stop offset="0" stop-color="#73726d" stop-opacity="0.302"/>
      <stop offset="1" stop-color="#fff"/>
    </linearGradient>
  </defs>
  <g id="Group_4506" data-name="Group 4506" transform="translate(-1020 -1452.148)">
    <g id="CAL1123009_Graphic_1_R4_2" data-name="CAL1123009_Graphic_1_R4 2" transform="translate(992.384 1471.711)">
      <path id="Path_1636" data-name="Path 1636" d="M200.172,128.792H28.555a.939.939,0,1,1,0-1.877H200.172a.939.939,0,1,1,0,1.877Z" fill="#72726e"/>
      <path id="Path_1637" data-name="Path 1637" d="M200.172,157.275H28.555a.939.939,0,0,1,0-1.878H200.172a.939.939,0,0,1,0,1.878Z" fill="#72726e"/>
      <path id="Path_1638" data-name="Path 1638" d="M99.537,118.357a.591.591,0,0,1-.195-.022.938.938,0,0,1-.722-1.112c2.253-10.587.549-18.473-1.285-23.225a25.388,25.388,0,0,0-4.564-7.872.94.94,0,1,1,1.351-1.307c.448.462,10.869,11.519,6.333,32.794A.94.94,0,0,1,99.537,118.357Z" fill="#72726e"/>
      <path id="Path_1639" data-name="Path 1639" d="M87.123,193.023c-2.614,0-5.387-3.445-8.074-6.8-2.116-2.629-4.514-5.611-6.066-5.778a.957.957,0,0,0-.729.224c-3.669,2.954.2,10.522.245,10.6a.937.937,0,1,1-1.661.866c-.188-.368-4.615-9.012.246-12.934a2.757,2.757,0,0,1,2.109-.628c2.333.253,4.759,3.271,7.33,6.471,2.5,3.1,5.6,6.976,7.265,5.871,1.553-1.025.729-3.539-.715-7.251-1.473-3.784-3.142-8.074.354-10.045a2.993,2.993,0,0,1,2.549-.318c1.849.672,2.824,3.243,3.943,6.218,1.769,4.673,3.264,7.944,6.326,7.359a2.4,2.4,0,0,0,1.993-1.408c1.322-3.156-2.787-10.385-4.477-12.9a.942.942,0,0,1,1.56-1.055c.679,1.011,6.593,10.031,4.65,14.675a4.263,4.263,0,0,1-3.379,2.535c-4.853.917-6.839-4.326-8.435-8.543-.838-2.225-1.791-4.738-2.831-5.113a1.133,1.133,0,0,0-.982.187c-1.935,1.091-1.069,3.77.469,7.728,1.379,3.538,2.939,7.553,0,9.5a3.016,3.016,0,0,1-1.7.535Z" fill="#72726e"/>
      <path id="Path_1640" data-name="Path 1640" d="M93.449,153.31a5.987,5.987,0,1,1-11.974,0V120.17a5.987,5.987,0,1,1,11.974,0Z" fill="#aa4797" stroke="#fff" stroke-miterlimit="10" stroke-width="0.722"/>
      <path id="Path_1641" data-name="Path 1641" d="M103.2,153.31a5.987,5.987,0,1,1-11.974,0V120.17a5.987,5.987,0,1,1,11.974,0Z" fill="#aa4797" stroke="#fff" stroke-miterlimit="10" stroke-width="0.722"/>
      <path id="Path_1642" data-name="Path 1642" d="M98.187,158.958a5.987,5.987,0,0,1-11.974,0V125.817a5.987,5.987,0,1,1,11.974,0Z" fill="#aa4797" stroke="#fff" stroke-miterlimit="10" stroke-width="0.722"/>
      <path id="Path_1643" data-name="Path 1643" d="M109.185,158.958a5.987,5.987,0,0,1-11.973,0V125.817a5.987,5.987,0,1,1,11.973,0Z" fill="#aa4797" stroke="#fff" stroke-miterlimit="10" stroke-width="0.722"/>
      <path id="Path_1644" data-name="Path 1644" d="M75.207,158.958a5.987,5.987,0,0,0,11.974,0V125.817a5.987,5.987,0,1,0-11.974,0Z" fill="#aa4797" stroke="#fff" stroke-miterlimit="10" stroke-width="0.722"/>
      <path id="Path_1645" data-name="Path 1645" d="M93.449,166.057a5.987,5.987,0,0,1-11.974,0V132.916a5.987,5.987,0,1,1,11.974,0Z" fill="#55234b" stroke="#fff" stroke-miterlimit="10" stroke-width="0.722"/>
      <path id="Path_1646" data-name="Path 1646" d="M103.2,166.057a5.987,5.987,0,0,1-11.974,0V132.916a5.987,5.987,0,1,1,11.974,0Z" fill="#55234b" stroke="#fff" stroke-miterlimit="10" stroke-width="0.722"/>
      <path id="Path_1647" data-name="Path 1647" d="M77.959,94.116c20.923-5.259,35.756-17.986,33.132-28.426S89.378,51.05,68.455,56.309,32.7,74.3,35.323,84.735,57.036,99.375,77.959,94.116Z" fill="#aa4797"/>
      <path id="Path_1648" data-name="Path 1648" d="M111.1,37.984c2.624-10.44-12.21-23.167-33.132-28.426S37.954,8.5,35.33,18.938,47.54,42.1,68.462,47.364,108.474,48.424,111.1,37.984Z" fill="#aa4797"/>
      <path id="Path_1649" data-name="Path 1649" d="M86.755,71.091A20.214,20.214,0,1,0,66.541,50.877,20.213,20.213,0,0,0,86.755,71.091Z" fill="#fff" stroke="#aa4797" stroke-miterlimit="10" stroke-width="0.722"/>
      <path id="Path_1650" data-name="Path 1650" d="M83.31,54.858a2.465,2.465,0,0,1,.771-1.9,3.671,3.671,0,0,1,1.993-.9l2.275-.338q.7-.094.7-.658a1.068,1.068,0,0,0-.414-.865,1.715,1.715,0,0,0-1.147-.338,1.787,1.787,0,0,0-1.259.432,1.634,1.634,0,0,0-.508,1.072l-2.218-.47a3.253,3.253,0,0,1,1.184-2.124,4.907,4.907,0,0,1,5.827.075,3.41,3.41,0,0,1,.978,2.519V55.91a8.507,8.507,0,0,0,.113,1.466H89.306a5.207,5.207,0,0,1-.094-1.109,3.014,3.014,0,0,1-2.726,1.372,3.246,3.246,0,0,1-2.312-.827A2.617,2.617,0,0,1,83.31,54.858Zm3.7.921a2.131,2.131,0,0,0,1.448-.489,2.089,2.089,0,0,0,.583-1.654v-.413l-2.087.32q-1.147.169-1.147,1.165a1.05,1.05,0,0,0,.32.771A1.238,1.238,0,0,0,87.013,55.779Z" fill="#73726d"/>
      <path id="Path_1651" data-name="Path 1651" d="M76,57.659A7.048,7.048,0,0,1,71.166,45.7a6.673,6.673,0,0,1,4.794-1.936,6.155,6.155,0,0,1,4.1,1.3,5.811,5.811,0,0,1,2.011,3.12l-2.444.771a3.589,3.589,0,0,0-1.184-1.9,3.64,3.64,0,0,0-2.481-.79,4.073,4.073,0,0,0-2.876,1.166,4.968,4.968,0,0,0-.019,6.5A4.064,4.064,0,0,0,76,55.121a3.628,3.628,0,0,0,2.481-.808A3.933,3.933,0,0,0,79.738,52.4l2.425.733a5.781,5.781,0,0,1-.677,1.579A6.322,6.322,0,0,1,80.3,56.155a5.491,5.491,0,0,1-1.861,1.09A6.945,6.945,0,0,1,76,57.659Z" fill="#73726d"/>
      <path id="Path_1652" data-name="Path 1652" d="M99.123,47.262h2.061V45.136H102.4v2.126h2.072V48.45H102.4v2.137h-1.221V48.45H99.123Z" fill="#73726d"/>
      <path id="Path_1653" data-name="Path 1653" d="M94.555,46.727l-1.428-.044a2.21,2.21,0,0,1-.054-.491,2.253,2.253,0,0,1,.7-1.668,2.549,2.549,0,0,1,1.886-.7,2.575,2.575,0,0,1,1.854.665,2.124,2.124,0,0,1,.7,1.614A2.5,2.5,0,0,1,96.834,48.3l-1.363.829a1.441,1.441,0,0,0-.611.643h3.391v1.3H93.018a3.93,3.93,0,0,1,.382-1.734,3.3,3.3,0,0,1,1.286-1.287l1.167-.7a1.437,1.437,0,0,0,.84-1.221.936.936,0,0,0-.284-.687,1.039,1.039,0,0,0-.785-.283,1.071,1.071,0,0,0-.84.327,1.252,1.252,0,0,0-.284.85A1.463,1.463,0,0,0,94.555,46.727Z" fill="#73726d"/>
      <path id="Path_1654" data-name="Path 1654" d="M129.088,118.357a.94.94,0,0,1-.917-.744c-4.535-21.275,5.886-32.339,6.334-32.794a.94.94,0,1,1,1.35,1.307A25.388,25.388,0,0,0,131.291,94c-1.834,4.752-3.539,12.645-1.285,23.225a.939.939,0,0,1-.723,1.112A.864.864,0,0,1,129.088,118.357Z" fill="#72726e"/>
      <path id="Path_1655" data-name="Path 1655" d="M141.5,193.023a3.031,3.031,0,0,1-1.7-.535c-2.94-1.943-1.373-5.958,0-9.5,1.538-3.965,2.4-6.637.469-7.728a1.133,1.133,0,0,0-.982-.187c-1.04.375-1.986,2.9-2.831,5.113-1.6,4.217-3.568,9.46-8.435,8.543a4.275,4.275,0,0,1-3.38-2.535c-1.942-4.644,3.972-13.664,4.651-14.675a.942.942,0,0,1,1.56,1.055c-1.69,2.52-5.8,9.749-4.478,12.9a2.4,2.4,0,0,0,1.994,1.408c3.076.585,4.556-2.686,6.326-7.359,1.126-2.975,2.094-5.546,3.943-6.218a2.965,2.965,0,0,1,2.549.318c3.495,1.971,1.827,6.261.354,10.045-1.444,3.712-2.275,6.226-.715,7.251,1.661,1.1,4.774-2.766,7.265-5.871,2.571-3.2,5-6.218,7.33-6.471a2.785,2.785,0,0,1,2.109.628c4.86,3.922.433,12.566.245,12.934a.937.937,0,1,1-1.661-.866c.037-.08,3.907-7.648.246-10.6a.9.9,0,0,0-.729-.224c-1.56.167-3.958,3.149-6.067,5.778-2.693,3.351-5.459,6.8-8.074,6.8Z" fill="#72726e"/>
      <path id="Path_1656" data-name="Path 1656" d="M135.176,153.31a5.987,5.987,0,0,0,11.974,0V120.17a5.987,5.987,0,0,0-11.974,0Z" fill="#aa4797" stroke="#fff" stroke-miterlimit="10" stroke-width="0.722"/>
      <path id="Path_1657" data-name="Path 1657" d="M125.427,153.31a5.987,5.987,0,1,0,11.974,0V120.17a5.987,5.987,0,0,0-11.974,0Z" fill="#aa4797" stroke="#fff" stroke-miterlimit="10" stroke-width="0.722"/>
      <path id="Path_1658" data-name="Path 1658" d="M130.439,158.958a5.987,5.987,0,0,0,11.974,0V125.817a5.987,5.987,0,0,0-11.974,0Z" fill="#aa4797" stroke="#fff" stroke-miterlimit="10" stroke-width="0.722"/>
      <path id="Path_1659" data-name="Path 1659" d="M119.44,158.958a5.987,5.987,0,0,0,11.974,0V125.817a5.987,5.987,0,1,0-11.974,0Z" fill="#aa4797" stroke="#fff" stroke-miterlimit="10" stroke-width="0.722"/>
      <path id="Path_1660" data-name="Path 1660" d="M153.419,158.958a5.987,5.987,0,0,1-11.974,0V125.817a5.987,5.987,0,1,1,11.974,0Z" fill="#aa4797" stroke="#fff" stroke-miterlimit="10" stroke-width="0.722"/>
      <path id="Path_1661" data-name="Path 1661" d="M135.176,166.057a5.987,5.987,0,0,0,11.974,0V132.916a5.987,5.987,0,0,0-11.974,0Z" fill="#55234b" stroke="#fff" stroke-miterlimit="10" stroke-width="0.722"/>
      <path id="Path_1662" data-name="Path 1662" d="M125.427,166.057a5.987,5.987,0,0,0,11.974,0V132.916a5.987,5.987,0,1,0-11.974,0Z" fill="#55234b" stroke="#fff" stroke-miterlimit="10" stroke-width="0.722"/>
      <path id="Path_1663" data-name="Path 1663" d="M193.285,84.724c2.624-10.44-12.21-23.167-33.132-28.426s-40.012-1.059-42.636,9.381S129.726,88.845,150.649,94.1,190.66,95.164,193.285,84.724Z" fill="#aa4797"/>
      <path id="Path_1664" data-name="Path 1664" d="M160.162,47.381c20.923-5.259,35.757-17.986,33.132-28.426s-21.712-14.64-42.635-9.381S114.9,27.56,117.527,38,139.24,52.64,160.162,47.381Z" fill="#aa4797"/>
      <path id="Path_1665" data-name="Path 1665" d="M141.871,71.091a20.214,20.214,0,1,0-20.214-20.214A20.214,20.214,0,0,0,141.871,71.091Z" fill="#fff" stroke="#aa4797" stroke-miterlimit="10" stroke-width="0.722"/>
      <path id="Path_1666" data-name="Path 1666" d="M138.419,54.858a2.465,2.465,0,0,1,.771-1.9,3.668,3.668,0,0,1,1.992-.9l2.275-.338q.694-.094.695-.658a1.07,1.07,0,0,0-.413-.865,1.717,1.717,0,0,0-1.147-.338,1.786,1.786,0,0,0-1.259.432,1.635,1.635,0,0,0-.508,1.072l-2.218-.47a3.253,3.253,0,0,1,1.184-2.124,4.907,4.907,0,0,1,5.828.075,3.412,3.412,0,0,1,.977,2.519V55.91a8.526,8.526,0,0,0,.113,1.466h-2.294a5.253,5.253,0,0,1-.094-1.109A3.013,3.013,0,0,1,141.6,57.64a3.245,3.245,0,0,1-2.312-.827A2.616,2.616,0,0,1,138.419,54.858Zm3.7.921a2.132,2.132,0,0,0,1.448-.489,2.09,2.09,0,0,0,.582-1.654v-.413l-2.086.32q-1.147.169-1.147,1.165a1.051,1.051,0,0,0,.32.771A1.236,1.236,0,0,0,142.122,55.779Z" fill="#73726d"/>
      <path id="Path_1667" data-name="Path 1667" d="M131.106,57.659A7.048,7.048,0,0,1,126.275,45.7a6.674,6.674,0,0,1,4.794-1.936,6.156,6.156,0,0,1,4.1,1.3,5.812,5.812,0,0,1,2.011,3.12l-2.444.771a3.586,3.586,0,0,0-1.184-1.9,3.639,3.639,0,0,0-2.481-.79,4.071,4.071,0,0,0-2.876,1.166,4.967,4.967,0,0,0-.019,6.5,4.062,4.062,0,0,0,2.932,1.184,3.63,3.63,0,0,0,2.482-.808,3.936,3.936,0,0,0,1.259-1.917l2.425.733a5.764,5.764,0,0,1-.677,1.579,6.3,6.3,0,0,1-1.184,1.447,5.494,5.494,0,0,1-1.861,1.09A6.944,6.944,0,0,1,131.106,57.659Z" fill="#73726d"/>
      <path id="Path_1668" data-name="Path 1668" d="M154.24,47.262h2.06V45.136h1.222v2.126h2.071V48.45h-2.071v2.137H156.3V48.45h-2.06Z" fill="#73726d"/>
      <path id="Path_1669" data-name="Path 1669" d="M149.672,46.727l-1.429-.044a2.228,2.228,0,0,1-.054-.491,2.254,2.254,0,0,1,.7-1.668,2.548,2.548,0,0,1,1.886-.7,2.574,2.574,0,0,1,1.853.665,2.122,2.122,0,0,1,.7,1.614A2.5,2.5,0,0,1,151.95,48.3l-1.362.829a1.441,1.441,0,0,0-.611.643h3.391v1.3h-5.234a3.941,3.941,0,0,1,.382-1.734,3.3,3.3,0,0,1,1.287-1.287l1.166-.7a1.437,1.437,0,0,0,.84-1.221.936.936,0,0,0-.284-.687,1.037,1.037,0,0,0-.785-.283,1.07,1.07,0,0,0-.839.327,1.252,1.252,0,0,0-.284.85A1.436,1.436,0,0,0,149.672,46.727Z" fill="#73726d"/>
      <path id="Path_1670" data-name="Path 1670" d="M200.172,439.262H28.555a.939.939,0,0,1,0-1.878H200.172a.939.939,0,0,1,0,1.878Z" fill="#72726e"/>
      <path id="Path_1671" data-name="Path 1671" d="M200.172,467.745H28.555a.939.939,0,0,1,0-1.878H200.172a.939.939,0,1,1,0,1.878Z" fill="#72726e"/>
      <path id="Path_1672" data-name="Path 1672" d="M99.544,428.827a.591.591,0,0,1-.195-.022.939.939,0,0,1-.722-1.112c2.253-10.587.549-18.473-1.285-23.225a25.383,25.383,0,0,0-4.564-7.872.94.94,0,1,1,1.35-1.307c.448.462,10.869,11.519,6.334,32.794A.942.942,0,0,1,99.544,428.827Z" fill="#72726e"/>
      <path id="Path_1673" data-name="Path 1673" d="M87.123,503.492c-2.614,0-5.38-3.445-8.074-6.8-2.116-2.629-4.514-5.612-6.074-5.785a.922.922,0,0,0-.729.224c-3.676,2.961.2,10.522.246,10.6a.942.942,0,0,1-1.668.874c-.188-.368-4.615-9.013.246-12.934a2.753,2.753,0,0,1,2.109-.628c2.333.252,4.759,3.271,7.33,6.47,2.5,3.106,5.6,6.977,7.265,5.872,1.553-1.033.729-3.539-.715-7.251-1.473-3.784-3.142-8.074.354-10.045a2.99,2.99,0,0,1,2.549-.318c1.849.671,2.824,3.242,3.943,6.218,1.769,4.672,3.243,7.936,6.326,7.359a2.4,2.4,0,0,0,1.994-1.409c1.321-3.155-2.788-10.384-4.478-12.9a.941.941,0,1,1,1.56-1.054c.679,1.011,6.594,10.031,4.651,14.675a4.252,4.252,0,0,1-3.38,2.534c-4.846.918-6.839-4.325-8.435-8.543-.838-2.224-1.791-4.737-2.831-5.113a1.135,1.135,0,0,0-.982.188c-1.935,1.09-1.069,3.77.469,7.727,1.379,3.539,2.939,7.554,0,9.5a3.014,3.014,0,0,1-1.7.534Z" fill="#72726e"/>
      <path id="Path_1674" data-name="Path 1674" d="M93.449,463.78a5.987,5.987,0,1,1-11.974,0V430.639a5.987,5.987,0,1,1,11.974,0Z" fill="#aa4797" stroke="#fff" stroke-miterlimit="10" stroke-width="0.722"/>
      <path id="Path_1675" data-name="Path 1675" d="M103.2,463.78a5.987,5.987,0,1,1-11.974,0V430.639a5.987,5.987,0,1,1,11.974,0Z" fill="#aa4797" stroke="#fff" stroke-miterlimit="10" stroke-width="0.722"/>
      <path id="Path_1676" data-name="Path 1676" d="M98.187,469.427a5.987,5.987,0,1,1-11.974,0v-33.14a5.987,5.987,0,1,1,11.974,0Z" fill="#aa4797" stroke="#fff" stroke-miterlimit="10" stroke-width="0.722"/>
      <path id="Path_1677" data-name="Path 1677" d="M109.185,469.427a5.987,5.987,0,1,1-11.973,0v-33.14a5.987,5.987,0,1,1,11.973,0Z" fill="#aa4797" stroke="#fff" stroke-miterlimit="10" stroke-width="0.722"/>
      <path id="Path_1678" data-name="Path 1678" d="M75.207,469.427a5.987,5.987,0,1,0,11.974,0v-33.14a5.987,5.987,0,1,0-11.974,0Z" fill="#aa4797" stroke="#fff" stroke-miterlimit="10" stroke-width="0.722"/>
      <path id="Path_1679" data-name="Path 1679" d="M93.449,476.526a5.987,5.987,0,1,1-11.974,0v-33.14a5.987,5.987,0,1,1,11.974,0Z" fill="#55234b" stroke="#fff" stroke-miterlimit="10" stroke-width="0.722"/>
      <path id="Path_1680" data-name="Path 1680" d="M103.2,476.526a5.987,5.987,0,1,1-11.974,0v-33.14a5.987,5.987,0,1,1,11.974,0Z" fill="#55234b" stroke="#fff" stroke-miterlimit="10" stroke-width="0.722"/>
      <path id="Path_1681" data-name="Path 1681" d="M77.942,404.6c20.923-5.26,35.757-17.987,33.132-28.427s-21.713-14.64-42.636-9.38-35.756,17.986-33.132,28.426S57.02,409.859,77.942,404.6Z" fill="#ff28d6"/>
      <path id="Path_1682" data-name="Path 1682" d="M111.1,348.435c2.625-10.44-12.209-23.167-33.132-28.426S37.954,318.95,35.33,329.39s12.209,23.167,33.132,28.426S108.473,358.875,111.1,348.435Z" fill="#ff28d6"/>
      <path id="Path_1683" data-name="Path 1683" d="M193.3,395.177c2.624-10.44-12.21-23.167-33.133-28.426s-40.011-1.059-42.635,9.381,12.209,23.167,33.132,28.426S190.674,405.617,193.3,395.177Z" fill="#ff28d6"/>
      <path id="Path_1684" data-name="Path 1684" d="M160.144,357.857c20.923-5.259,35.757-17.986,33.133-28.426s-21.713-14.64-42.636-9.381-35.756,17.986-33.132,28.427S139.222,363.116,160.144,357.857Z" fill="#ff28d6"/>
      <path id="Path_1685" data-name="Path 1685" d="M78.471,406.7c10.716-2.694,19.978-7.322,26.278-12.728,6.19-5.31,10.047-11.881,8.427-18.328s-8.127-10.413-16.092-12.165C88.976,361.7,78.627,362,67.911,364.692s-19.978,7.321-26.279,12.727c-6.19,5.31-10.047,11.881-8.426,18.328S41.332,406.16,49.3,407.912C57.405,409.7,67.754,409.394,78.471,406.7ZM113.2,348.963c1.62-6.446-2.237-13.017-8.427-18.328-6.3-5.406-15.562-10.033-26.279-12.727s-21.065-3-29.173-1.212c-7.965,1.753-14.471,5.719-16.091,12.166s2.237,13.017,8.426,18.328c6.3,5.406,15.563,10.033,26.279,12.727s21.065,3,29.173,1.212C105.072,359.376,111.578,355.41,113.2,348.963ZM195.4,395.7c1.62-6.446-2.237-13.017-8.427-18.328-6.3-5.406-15.562-10.033-26.278-12.727s-21.066-3-29.174-1.212c-7.965,1.753-14.471,5.719-16.091,12.166s2.236,13.017,8.426,18.328c6.3,5.406,15.563,10.033,26.279,12.727s21.065,3,29.173,1.212C187.273,406.118,193.779,402.152,195.4,395.7Zm-34.727-35.747c10.716-2.693,19.978-7.321,26.278-12.727,6.19-5.31,10.047-11.881,8.427-18.328s-8.127-10.413-16.092-12.166c-8.108-1.783-18.457-1.482-29.173,1.212s-19.978,7.322-26.279,12.727c-6.19,5.311-10.047,11.882-8.426,18.329s8.126,10.413,16.091,12.165C139.607,362.954,149.956,362.652,160.673,359.958Z" fill="none" stroke="rgba(170,71,151,0.3)" stroke-width="4.333"/>
      <path id="Path_1686" data-name="Path 1686" d="M77.942,404.6c20.923-5.26,35.757-17.987,33.133-28.427s-21.713-14.64-42.636-9.38-35.756,17.986-33.132,28.426S57.02,409.859,77.942,404.6Z" fill="#aa4797"/>
      <path id="Path_1687" data-name="Path 1687" d="M111.1,348.435c2.625-10.44-12.209-23.167-33.132-28.426S37.954,318.95,35.33,329.39s12.209,23.167,33.132,28.426S108.473,358.875,111.1,348.435Z" fill="#aa4797"/>
      <path id="Path_1688" data-name="Path 1688" d="M86.755,381.56a20.214,20.214,0,1,0-20.214-20.213A20.213,20.213,0,0,0,86.755,381.56Z" fill="#fff" stroke="#aa4797" stroke-miterlimit="10" stroke-width="0.722"/>
      <path id="Path_1689" data-name="Path 1689" d="M83.31,365.327a2.464,2.464,0,0,1,.771-1.9,3.678,3.678,0,0,1,1.993-.9l2.275-.338q.7-.094.7-.658a1.069,1.069,0,0,0-.414-.865,1.719,1.719,0,0,0-1.147-.338,1.788,1.788,0,0,0-1.259.432,1.637,1.637,0,0,0-.508,1.072l-2.218-.47a3.253,3.253,0,0,1,1.184-2.124,4.907,4.907,0,0,1,5.827.075,3.41,3.41,0,0,1,.978,2.519v4.549a8.506,8.506,0,0,0,.113,1.466H89.306a5.2,5.2,0,0,1-.094-1.109,3.013,3.013,0,0,1-2.726,1.372,3.244,3.244,0,0,1-2.312-.827A2.617,2.617,0,0,1,83.31,365.327Zm3.7.921a2.13,2.13,0,0,0,1.448-.488,2.091,2.091,0,0,0,.583-1.655v-.413l-2.087.319q-1.147.17-1.147,1.166a1.05,1.05,0,0,0,.32.771A1.24,1.24,0,0,0,87.013,366.248Z" fill="#73726d"/>
      <path id="Path_1690" data-name="Path 1690" d="M76,368.128a6.946,6.946,0,1,1-.038-13.892,6.159,6.159,0,0,1,4.1,1.3,5.812,5.812,0,0,1,2.011,3.121l-2.444.771a3.59,3.59,0,0,0-1.184-1.9,3.642,3.642,0,0,0-2.481-.789,4.073,4.073,0,0,0-2.876,1.165,4.967,4.967,0,0,0-.019,6.5A4.063,4.063,0,0,0,76,365.591a3.628,3.628,0,0,0,2.481-.809,3.934,3.934,0,0,0,1.259-1.917l2.425.733a5.781,5.781,0,0,1-.677,1.579,6.313,6.313,0,0,1-1.184,1.447,5.484,5.484,0,0,1-1.861,1.091A6.961,6.961,0,0,1,76,368.128Z" fill="#73726d"/>
      <path id="Path_1691" data-name="Path 1691" d="M99.123,357.731h2.061v-2.126H102.4v2.126h2.072v1.189H102.4v2.137h-1.221V358.92H99.123Z" fill="#73726d"/>
      <path id="Path_1692" data-name="Path 1692" d="M94.555,357.2l-1.428-.044a2.2,2.2,0,0,1-.054-.49,2.253,2.253,0,0,1,.7-1.668,2.546,2.546,0,0,1,1.886-.7,2.577,2.577,0,0,1,1.854.665,2.124,2.124,0,0,1,.7,1.614,2.5,2.5,0,0,1-1.374,2.191l-1.363.829a1.44,1.44,0,0,0-.611.643h3.391v1.3H93.018A3.928,3.928,0,0,1,93.4,359.8a3.31,3.31,0,0,1,1.286-1.287l1.167-.7a1.436,1.436,0,0,0,.84-1.221.936.936,0,0,0-.284-.687,1.038,1.038,0,0,0-.785-.283,1.071,1.071,0,0,0-.84.327,1.253,1.253,0,0,0-.284.851A1.464,1.464,0,0,0,94.555,357.2Z" fill="#73726d"/>
      <path id="Path_1693" data-name="Path 1693" d="M129.088,428.827a.941.941,0,0,1-.917-.744c-4.535-21.275,5.886-32.339,6.334-32.794a.94.94,0,1,1,1.35,1.307,25.382,25.382,0,0,0-4.564,7.872c-1.827,4.752-3.539,12.645-1.285,23.225a.939.939,0,0,1-.723,1.112A.925.925,0,0,1,129.088,428.827Z" fill="#72726e"/>
      <path id="Path_1694" data-name="Path 1694" d="M141.5,503.492a3.03,3.03,0,0,1-1.7-.534c-2.932-1.943-1.373-5.958,0-9.5,1.538-3.965,2.4-6.637.469-7.727a1.136,1.136,0,0,0-.982-.188c-1.04.376-1.986,2.9-2.824,5.113-1.6,4.218-3.582,9.453-8.435,8.543a4.278,4.278,0,0,1-3.38-2.534c-1.942-4.644,3.972-13.664,4.651-14.675a.941.941,0,1,1,1.56,1.054c-1.69,2.521-5.8,9.75-4.477,12.9a2.4,2.4,0,0,0,1.993,1.409c3.062.585,4.557-2.687,6.326-7.359,1.127-2.976,2.094-5.547,3.943-6.218a2.965,2.965,0,0,1,2.549.318c3.5,1.971,1.827,6.261.354,10.052-1.444,3.712-2.275,6.218-.715,7.251,1.668,1.1,4.774-2.766,7.273-5.871,2.57-3.2,5-6.218,7.33-6.471a2.775,2.775,0,0,1,2.108.628c4.861,3.922.434,12.566.246,12.934a.938.938,0,1,1-1.661-.873c.036-.073,3.907-7.641.245-10.6a.922.922,0,0,0-.729-.224c-1.56.166-3.957,3.149-6.066,5.778-2.694,3.35-5.46,6.8-8.074,6.8Z" fill="#72726e"/>
      <path id="Path_1695" data-name="Path 1695" d="M135.176,463.78a5.987,5.987,0,0,0,11.974,0V430.639a5.987,5.987,0,0,0-11.974,0Z" fill="#aa4797" stroke="#fff" stroke-miterlimit="10" stroke-width="0.722"/>
      <path id="Path_1696" data-name="Path 1696" d="M125.427,463.78a5.987,5.987,0,1,0,11.974,0V430.639a5.987,5.987,0,1,0-11.974,0Z" fill="#aa4797" stroke="#fff" stroke-miterlimit="10" stroke-width="0.722"/>
      <path id="Path_1697" data-name="Path 1697" d="M130.446,469.427a5.987,5.987,0,1,0,11.974,0v-33.14a5.987,5.987,0,1,0-11.974,0Z" fill="#aa4797" stroke="#fff" stroke-miterlimit="10" stroke-width="0.722"/>
      <path id="Path_1698" data-name="Path 1698" d="M119.44,469.427a5.987,5.987,0,0,0,11.974,0v-33.14a5.987,5.987,0,0,0-11.974,0Z" fill="#aa4797" stroke="#fff" stroke-miterlimit="10" stroke-width="0.722"/>
      <path id="Path_1699" data-name="Path 1699" d="M153.419,469.427a5.987,5.987,0,1,1-11.974,0v-33.14a5.987,5.987,0,0,1,11.974,0Z" fill="#aa4797" stroke="#fff" stroke-miterlimit="10" stroke-width="0.722"/>
      <path id="Path_1700" data-name="Path 1700" d="M135.176,476.526a5.987,5.987,0,0,0,11.974,0v-33.14a5.987,5.987,0,0,0-11.974,0Z" fill="#55234b" stroke="#fff" stroke-miterlimit="10" stroke-width="0.722"/>
      <path id="Path_1701" data-name="Path 1701" d="M125.427,476.526a5.987,5.987,0,1,0,11.974,0v-33.14a5.987,5.987,0,1,0-11.974,0Z" fill="#55234b" stroke="#fff" stroke-miterlimit="10" stroke-width="0.722"/>
      <path id="Path_1702" data-name="Path 1702" d="M193.3,395.177c2.624-10.44-12.21-23.167-33.133-28.426s-40.011-1.059-42.635,9.381,12.209,23.167,33.132,28.426S190.674,405.617,193.3,395.177Z" fill="#aa4797"/>
      <path id="Path_1703" data-name="Path 1703" d="M160.144,357.857c20.923-5.259,35.757-17.986,33.133-28.426s-21.713-14.64-42.636-9.381-35.756,17.986-33.132,28.427S139.222,363.116,160.144,357.857Z" fill="#aa4797"/>
      <path id="Path_1704" data-name="Path 1704" d="M141.871,381.56a20.214,20.214,0,1,0-20.214-20.213A20.214,20.214,0,0,0,141.871,381.56Z" fill="#fff" stroke="#aa4797" stroke-miterlimit="10" stroke-width="0.722"/>
      <path id="Path_1705" data-name="Path 1705" d="M138.419,365.327a2.464,2.464,0,0,1,.771-1.9,3.675,3.675,0,0,1,1.992-.9l2.275-.338q.694-.094.695-.658a1.071,1.071,0,0,0-.413-.865,1.72,1.72,0,0,0-1.147-.338,1.787,1.787,0,0,0-1.259.432,1.639,1.639,0,0,0-.508,1.072l-2.218-.47a3.252,3.252,0,0,1,1.184-2.124,4.908,4.908,0,0,1,5.828.075,3.412,3.412,0,0,1,.977,2.519v4.549a8.525,8.525,0,0,0,.113,1.466h-2.294a5.246,5.246,0,0,1-.094-1.109,3.012,3.012,0,0,1-2.725,1.372,3.243,3.243,0,0,1-2.312-.827A2.615,2.615,0,0,1,138.419,365.327Zm3.7.921a2.131,2.131,0,0,0,1.448-.488,2.092,2.092,0,0,0,.582-1.655v-.413l-2.086.319q-1.147.17-1.147,1.166a1.051,1.051,0,0,0,.32.771A1.238,1.238,0,0,0,142.122,366.248Z" fill="#73726d"/>
      <path id="Path_1706" data-name="Path 1706" d="M131.106,368.128a6.946,6.946,0,1,1-.037-13.892,6.16,6.16,0,0,1,4.1,1.3,5.813,5.813,0,0,1,2.011,3.121l-2.444.771a3.587,3.587,0,0,0-1.184-1.9,3.641,3.641,0,0,0-2.481-.789,4.071,4.071,0,0,0-2.876,1.165,4.967,4.967,0,0,0-.019,6.5,4.061,4.061,0,0,0,2.932,1.185,3.63,3.63,0,0,0,2.482-.809,3.937,3.937,0,0,0,1.259-1.917l2.425.733a5.763,5.763,0,0,1-.677,1.579,6.289,6.289,0,0,1-1.184,1.447,5.487,5.487,0,0,1-1.861,1.091A6.96,6.96,0,0,1,131.106,368.128Z" fill="#73726d"/>
      <path id="Path_1707" data-name="Path 1707" d="M154.24,357.731h2.06v-2.126h1.222v2.126h2.071v1.189h-2.071v2.137H156.3V358.92h-2.06Z" fill="#73726d"/>
      <path id="Path_1708" data-name="Path 1708" d="M149.672,357.2l-1.429-.044a2.217,2.217,0,0,1-.054-.49,2.254,2.254,0,0,1,.7-1.668,2.545,2.545,0,0,1,1.886-.7,2.576,2.576,0,0,1,1.853.665,2.122,2.122,0,0,1,.7,1.614,2.5,2.5,0,0,1-1.374,2.191l-1.362.829a1.439,1.439,0,0,0-.611.643h3.391v1.3h-5.234a3.939,3.939,0,0,1,.382-1.733,3.3,3.3,0,0,1,1.287-1.287l1.166-.7a1.436,1.436,0,0,0,.84-1.221.936.936,0,0,0-.284-.687,1.037,1.037,0,0,0-.785-.283,1.07,1.07,0,0,0-.839.327,1.253,1.253,0,0,0-.284.851A1.437,1.437,0,0,0,149.672,357.2Z" fill="#73726d"/>
      <path id="Path_1709" data-name="Path 1709" d="M114.378,369.912l2.917,8.984h9.454l-7.648,5.553,2.917,8.991-7.64-5.553-7.648,5.553,2.925-8.991-7.648-5.553h9.453Z" fill="#ff28d6"/>
      <path id="Path_1710" data-name="Path 1710" d="M200.172,741.131H28.555a.939.939,0,0,1,0-1.878H200.172a.939.939,0,1,1,0,1.878Z" fill="#72726e"/>
      <path id="Path_1711" data-name="Path 1711" d="M200.172,769.613H28.555a.939.939,0,0,1,0-1.878H200.172a.939.939,0,1,1,0,1.878Z" fill="#72726e"/>
      <path id="Path_1712" data-name="Path 1712" d="M99.544,730.7a.618.618,0,0,1-.195-.021.94.94,0,0,1-.722-1.113c2.253-10.587.549-18.473-1.285-23.225a25.367,25.367,0,0,0-4.564-7.871.94.94,0,0,1,1.35-1.308c.448.463,10.869,11.519,6.334,32.794A.941.941,0,0,1,99.544,730.7Z" fill="#72726e"/>
      <path id="Path_1713" data-name="Path 1713" d="M87.123,805.361c-2.614,0-5.38-3.445-8.074-6.8-2.116-2.629-4.514-5.611-6.074-5.785a.926.926,0,0,0-.729.224c-3.676,2.961.2,10.522.246,10.6a.942.942,0,0,1-1.668.874c-.188-.369-4.615-9.013.246-12.935a2.761,2.761,0,0,1,2.109-.628c2.333.253,4.759,3.272,7.33,6.471,2.5,3.1,5.6,6.976,7.265,5.871,1.553-1.033.729-3.539-.715-7.251-1.473-3.784-3.142-8.073.354-10.045a2.993,2.993,0,0,1,2.549-.318c1.849.672,2.824,3.243,3.943,6.218,1.769,4.673,3.243,7.937,6.326,7.359a2.4,2.4,0,0,0,1.994-1.408c1.321-3.156-2.788-10.385-4.478-12.9a.941.941,0,1,1,1.56-1.054c.679,1.011,6.594,10.031,4.651,14.674a4.251,4.251,0,0,1-3.38,2.535c-4.846.917-6.839-4.326-8.435-8.543-.838-2.225-1.791-4.738-2.831-5.113a1.133,1.133,0,0,0-.982.187c-1.935,1.091-1.069,3.77.469,7.728,1.379,3.538,2.939,7.554,0,9.5a3.007,3.007,0,0,1-1.7.535Z" fill="#72726e"/>
      <path id="Path_1714" data-name="Path 1714" d="M93.449,765.648a5.987,5.987,0,1,1-11.974,0v-33.14a5.987,5.987,0,1,1,11.974,0Z" fill="#aa4797" stroke="#fff" stroke-miterlimit="10" stroke-width="0.722"/>
      <path id="Path_1715" data-name="Path 1715" d="M103.2,765.648a5.987,5.987,0,1,1-11.974,0v-33.14a5.987,5.987,0,1,1,11.974,0Z" fill="#aa4797" stroke="#fff" stroke-miterlimit="10" stroke-width="0.722"/>
      <path id="Path_1716" data-name="Path 1716" d="M98.187,771.3a5.987,5.987,0,1,1-11.974,0V738.155a5.987,5.987,0,1,1,11.974,0Z" fill="#aa4797" stroke="#fff" stroke-miterlimit="10" stroke-width="0.722"/>
      <path id="Path_1717" data-name="Path 1717" d="M109.185,771.3a5.987,5.987,0,1,1-11.973,0V738.155a5.987,5.987,0,1,1,11.973,0Z" fill="#aa4797" stroke="#fff" stroke-miterlimit="10" stroke-width="0.722"/>
      <path id="Path_1718" data-name="Path 1718" d="M75.207,771.3a5.987,5.987,0,1,0,11.974,0V738.155a5.987,5.987,0,1,0-11.974,0Z" fill="#aa4797" stroke="#fff" stroke-miterlimit="10" stroke-width="0.722"/>
      <path id="Path_1719" data-name="Path 1719" d="M93.449,778.4a5.987,5.987,0,1,1-11.974,0V745.254a5.987,5.987,0,1,1,11.974,0Z" fill="#55234b" stroke="#fff" stroke-miterlimit="10" stroke-width="0.722"/>
      <path id="Path_1720" data-name="Path 1720" d="M103.2,778.4a5.987,5.987,0,1,1-11.974,0V745.254a5.987,5.987,0,1,1,11.974,0Z" fill="#55234b" stroke="#fff" stroke-miterlimit="10" stroke-width="0.722"/>
      <path id="Path_1721" data-name="Path 1721" d="M77.942,706.468c20.923-5.259,35.757-17.986,33.133-28.426s-21.713-14.64-42.636-9.381-35.756,17.986-33.132,28.426S57.02,711.727,77.942,706.468Z" fill="#aa4797"/>
      <path id="Path_1722" data-name="Path 1722" d="M111.1,650.3c2.625-10.44-12.209-23.167-33.132-28.426s-40.011-1.06-42.636,9.38,12.209,23.167,33.132,28.426S108.473,660.744,111.1,650.3Z" fill="#aa4797"/>
      <path id="Path_1723" data-name="Path 1723" d="M86.755,683.429a20.214,20.214,0,1,0-20.214-20.214A20.213,20.213,0,0,0,86.755,683.429Z" fill="#fff" stroke="#aa4797" stroke-miterlimit="10" stroke-width="0.722"/>
      <path id="Path_1724" data-name="Path 1724" d="M83.31,667.2a2.465,2.465,0,0,1,.771-1.9,3.67,3.67,0,0,1,1.993-.9l2.275-.338q.7-.094.7-.658a1.069,1.069,0,0,0-.414-.865,1.713,1.713,0,0,0-1.147-.338,1.788,1.788,0,0,0-1.259.432,1.633,1.633,0,0,0-.508,1.071l-2.218-.47a3.253,3.253,0,0,1,1.184-2.124,4.908,4.908,0,0,1,5.827.075,3.411,3.411,0,0,1,.978,2.519v4.55a8.506,8.506,0,0,0,.113,1.466H89.306a5.213,5.213,0,0,1-.094-1.109,3.013,3.013,0,0,1-2.726,1.372,3.248,3.248,0,0,1-2.312-.827A2.618,2.618,0,0,1,83.31,667.2Zm3.7.921a2.13,2.13,0,0,0,1.448-.489,2.088,2.088,0,0,0,.583-1.654v-.414l-2.087.32q-1.147.169-1.147,1.166a1.05,1.05,0,0,0,.32.77A1.235,1.235,0,0,0,87.013,668.117Z" fill="#73726d"/>
      <path id="Path_1725" data-name="Path 1725" d="M76,670A6.946,6.946,0,1,1,75.96,656.1a6.154,6.154,0,0,1,4.1,1.3,5.812,5.812,0,0,1,2.011,3.121l-2.444.77a3.584,3.584,0,0,0-1.184-1.9,3.637,3.637,0,0,0-2.481-.79,4.074,4.074,0,0,0-2.876,1.166,4.968,4.968,0,0,0-.019,6.5A4.066,4.066,0,0,0,76,667.459a3.628,3.628,0,0,0,2.481-.808,3.932,3.932,0,0,0,1.259-1.918l2.425.733a5.787,5.787,0,0,1-.677,1.58,6.335,6.335,0,0,1-1.184,1.447,5.483,5.483,0,0,1-1.861,1.09A6.939,6.939,0,0,1,76,670Z" fill="#73726d"/>
      <path id="Path_1726" data-name="Path 1726" d="M99.123,659.6h2.061v-2.126H102.4V659.6h2.072v1.188H102.4v2.137h-1.221v-2.137H99.123Z" fill="#73726d"/>
      <path id="Path_1727" data-name="Path 1727" d="M94.555,659.066l-1.428-.044a2.208,2.208,0,0,1-.054-.491,2.253,2.253,0,0,1,.7-1.668,2.55,2.55,0,0,1,1.886-.7,2.577,2.577,0,0,1,1.854.665,2.126,2.126,0,0,1,.7,1.614,2.5,2.5,0,0,1-1.374,2.192l-1.363.828a1.441,1.441,0,0,0-.611.644h3.391v1.3H93.018a3.936,3.936,0,0,1,.382-1.734,3.3,3.3,0,0,1,1.286-1.286l1.167-.7a1.436,1.436,0,0,0,.84-1.221.936.936,0,0,0-.284-.687,1.038,1.038,0,0,0-.785-.283,1.071,1.071,0,0,0-.84.327,1.25,1.25,0,0,0-.284.85A1.466,1.466,0,0,0,94.555,659.066Z" fill="#73726d"/>
      <path id="Path_1728" data-name="Path 1728" d="M129.088,730.7a.94.94,0,0,1-.917-.744c-4.535-21.275,5.886-32.339,6.334-32.794a.94.94,0,1,1,1.35,1.308,25.367,25.367,0,0,0-4.564,7.871c-1.827,4.752-3.539,12.646-1.285,23.225a.94.94,0,0,1-.723,1.113A.925.925,0,0,1,129.088,730.7Z" fill="#72726e"/>
      <path id="Path_1729" data-name="Path 1729" d="M141.5,805.361a3.023,3.023,0,0,1-1.7-.535c-2.932-1.942-1.373-5.958,0-9.5,1.538-3.965,2.4-6.637.469-7.728a1.134,1.134,0,0,0-.982-.187c-1.04.375-1.986,2.9-2.824,5.113-1.6,4.217-3.582,9.453-8.435,8.543a4.276,4.276,0,0,1-3.38-2.535c-1.942-4.643,3.972-13.663,4.651-14.674a.941.941,0,0,1,1.56,1.054c-1.69,2.52-5.8,9.749-4.477,12.9a2.4,2.4,0,0,0,1.993,1.408c3.062.585,4.557-2.686,6.326-7.359,1.127-2.975,2.094-5.546,3.943-6.218a2.972,2.972,0,0,1,2.549.318c3.5,1.972,1.827,6.261.354,10.053-1.444,3.712-2.275,6.218-.715,7.25,1.668,1.1,4.774-2.766,7.273-5.871,2.57-3.2,5-6.218,7.33-6.471a2.775,2.775,0,0,1,2.108.629c4.861,3.921.434,12.566.246,12.934a.938.938,0,1,1-1.661-.874c.036-.072,3.907-7.641.245-10.6a.922.922,0,0,0-.729-.224c-1.56.166-3.957,3.148-6.066,5.777-2.694,3.351-5.46,6.8-8.074,6.8Z" fill="#72726e"/>
      <path id="Path_1730" data-name="Path 1730" d="M135.176,765.648a5.987,5.987,0,0,0,11.974,0v-33.14a5.987,5.987,0,0,0-11.974,0Z" fill="#aa4797" stroke="#fff" stroke-miterlimit="10" stroke-width="0.722"/>
      <path id="Path_1731" data-name="Path 1731" d="M125.427,765.648a5.987,5.987,0,1,0,11.974,0v-33.14a5.987,5.987,0,1,0-11.974,0Z" fill="#aa4797" stroke="#fff" stroke-miterlimit="10" stroke-width="0.722"/>
      <path id="Path_1732" data-name="Path 1732" d="M130.446,771.3a5.987,5.987,0,1,0,11.974,0V738.155a5.987,5.987,0,1,0-11.974,0Z" fill="#aa4797" stroke="#fff" stroke-miterlimit="10" stroke-width="0.722"/>
      <path id="Path_1733" data-name="Path 1733" d="M119.44,771.3a5.987,5.987,0,0,0,11.974,0V738.155a5.987,5.987,0,0,0-11.974,0Z" fill="#aa4797" stroke="#fff" stroke-miterlimit="10" stroke-width="0.722"/>
      <path id="Path_1734" data-name="Path 1734" d="M153.419,771.3a5.987,5.987,0,0,1-11.974,0V738.155a5.987,5.987,0,0,1,11.974,0Z" fill="#aa4797" stroke="#fff" stroke-miterlimit="10" stroke-width="0.722"/>
      <path id="Path_1735" data-name="Path 1735" d="M135.176,778.4a5.987,5.987,0,0,0,11.974,0V745.254a5.987,5.987,0,0,0-11.974,0Z" fill="#55234b" stroke="#fff" stroke-miterlimit="10" stroke-width="0.722"/>
      <path id="Path_1736" data-name="Path 1736" d="M125.427,778.4a5.987,5.987,0,1,0,11.974,0V745.254a5.987,5.987,0,1,0-11.974,0Z" fill="#55234b" stroke="#fff" stroke-miterlimit="10" stroke-width="0.722"/>
      <path id="Path_1737" data-name="Path 1737" d="M193.3,697.046c2.624-10.44-12.21-23.167-33.133-28.426s-40.011-1.06-42.635,9.38,12.209,23.167,33.132,28.426S190.674,707.486,193.3,697.046Z" fill="#aa4797"/>
      <path id="Path_1738" data-name="Path 1738" d="M160.144,659.726c20.923-5.26,35.757-17.986,33.133-28.426s-21.713-14.64-42.636-9.381-35.756,17.986-33.132,28.426S139.222,664.985,160.144,659.726Z" fill="#aa4797"/>
      <path id="Path_1739" data-name="Path 1739" d="M141.871,683.429a20.214,20.214,0,1,0-20.214-20.214A20.214,20.214,0,0,0,141.871,683.429Z" fill="#fff" stroke="#aa4797" stroke-miterlimit="10" stroke-width="0.722"/>
      <path id="Path_1740" data-name="Path 1740" d="M138.419,667.2a2.465,2.465,0,0,1,.771-1.9,3.667,3.667,0,0,1,1.992-.9l2.275-.338q.694-.094.695-.658a1.071,1.071,0,0,0-.413-.865,1.714,1.714,0,0,0-1.147-.338,1.787,1.787,0,0,0-1.259.432,1.634,1.634,0,0,0-.508,1.071l-2.218-.47a3.252,3.252,0,0,1,1.184-2.124,4.908,4.908,0,0,1,5.828.075,3.413,3.413,0,0,1,.977,2.519v4.55a8.525,8.525,0,0,0,.113,1.466h-2.294a5.259,5.259,0,0,1-.094-1.109,3.012,3.012,0,0,1-2.725,1.372,3.247,3.247,0,0,1-2.312-.827A2.617,2.617,0,0,1,138.419,667.2Zm3.7.921a2.132,2.132,0,0,0,1.448-.489,2.09,2.09,0,0,0,.582-1.654v-.414l-2.086.32q-1.147.169-1.147,1.166a1.05,1.05,0,0,0,.32.77A1.234,1.234,0,0,0,142.122,668.117Z" fill="#73726d"/>
      <path id="Path_1741" data-name="Path 1741" d="M131.106,670a6.946,6.946,0,1,1-.037-13.892,6.155,6.155,0,0,1,4.1,1.3,5.813,5.813,0,0,1,2.011,3.121l-2.444.77a3.581,3.581,0,0,0-1.184-1.9,3.636,3.636,0,0,0-2.481-.79,4.072,4.072,0,0,0-2.876,1.166,4.967,4.967,0,0,0-.019,6.5,4.064,4.064,0,0,0,2.932,1.184,3.63,3.63,0,0,0,2.482-.808,3.935,3.935,0,0,0,1.259-1.918l2.425.733a5.769,5.769,0,0,1-.677,1.58,6.31,6.31,0,0,1-1.184,1.447,5.486,5.486,0,0,1-1.861,1.09A6.937,6.937,0,0,1,131.106,670Z" fill="#73726d"/>
      <path id="Path_1742" data-name="Path 1742" d="M154.24,659.6h2.06v-2.126h1.222V659.6h2.071v1.188h-2.071v2.137H156.3v-2.137h-2.06Z" fill="#73726d"/>
      <path id="Path_1743" data-name="Path 1743" d="M149.672,659.066l-1.429-.044a2.225,2.225,0,0,1-.054-.491,2.254,2.254,0,0,1,.7-1.668,2.549,2.549,0,0,1,1.886-.7,2.576,2.576,0,0,1,1.853.665,2.123,2.123,0,0,1,.7,1.614,2.5,2.5,0,0,1-1.374,2.192l-1.362.828a1.441,1.441,0,0,0-.611.644h3.391v1.3h-5.234a3.947,3.947,0,0,1,.382-1.734,3.3,3.3,0,0,1,1.287-1.286l1.166-.7a1.436,1.436,0,0,0,.84-1.221.936.936,0,0,0-.284-.687,1.037,1.037,0,0,0-.785-.283,1.07,1.07,0,0,0-.839.327,1.251,1.251,0,0,0-.284.85A1.439,1.439,0,0,0,149.672,659.066Z" fill="#73726d"/>
      <path id="Path_1744" data-name="Path 1744" d="M151.635,745.095H76.016a2.639,2.639,0,0,0-2.549,2.72v14.344a2.639,2.639,0,0,0,2.549,2.72h75.619a2.639,2.639,0,0,0,2.549-2.72V747.815A2.639,2.639,0,0,0,151.635,745.095Z" transform="translate(0 -1)" fill="#4fadc8"/>
      <path id="Path_1745" data-name="Path 1745" d="M114.378,671.78l2.917,8.984h9.454l-7.648,5.554,2.917,8.991-7.64-5.554-7.648,5.554,2.925-8.991-7.648-5.554h9.453Z" fill="#ff28d6"/>
      <rect id="Rectangle_142237" data-name="Rectangle 142237" width="42.608" height="172.599" transform="translate(248.789 13.36)" fill="#fff" stroke="#6f4d98" stroke-width="0.722"/>
      <rect id="Rectangle_142238" data-name="Rectangle 142238" width="42.608" height="172.599" transform="translate(303.674 13.36)" fill="#fff" stroke="#a13f8d" stroke-width="0.722"/>
      <rect id="Rectangle_142239" data-name="Rectangle 142239" width="42.608" height="172.599" transform="translate(358.559 13.36)" fill="#fff" stroke="#73726d" stroke-width="0.722"/>
      <rect id="Rectangle_142240" data-name="Rectangle 142240" width="43.33" height="86.661" transform="translate(248.428 99.66)" fill="#6f4d98"/>
      <rect id="Rectangle_142241" data-name="Rectangle 142241" width="43.33" height="86.661" transform="translate(303.313 99.66)" fill="#a13f8d"/>
      <rect id="Rectangle_142242" data-name="Rectangle 142242" width="43.33" height="86.661" transform="translate(358.198 99.66)" fill="#73726d"/>
      <rect id="Rectangle_142243" data-name="Rectangle 142243" width="42.608" height="172.599" rx="1.083" transform="translate(248.789 13.36)" fill="#fff" stroke="#6f4d98" stroke-width="0.722"/>
      <rect id="Rectangle_142244" data-name="Rectangle 142244" width="42.608" height="172.599" rx="1.083" transform="translate(303.674 13.36)" fill="#fff" stroke="#a13f8d" stroke-width="0.722"/>
      <rect id="Rectangle_142245" data-name="Rectangle 142245" width="42.608" height="172.599" rx="1.083" transform="translate(358.559 13.36)" fill="#fff" stroke="#73726d" stroke-width="0.722"/>
      <rect id="Rectangle_142246" data-name="Rectangle 142246" width="43.33" height="86.661" rx="1.444" transform="translate(248.428 99.66)" fill="#6f4d98"/>
      <rect id="Rectangle_142247" data-name="Rectangle 142247" width="43.33" height="86.661" rx="1.444" transform="translate(303.313 99.66)" fill="#a13f8d"/>
      <rect id="Rectangle_142248" data-name="Rectangle 142248" width="43.33" height="86.661" rx="1.444" transform="translate(358.198 99.66)" fill="#73726d"/>
      <rect id="Rectangle_142249" data-name="Rectangle 142249" width="42.608" height="172.599" rx="1.083" transform="translate(248.789 315.951)" fill="#fff" stroke="#6f4d98" stroke-width="0.722"/>
      <rect id="Rectangle_142250" data-name="Rectangle 142250" width="42.608" height="172.599" rx="1.083" transform="translate(303.674 315.951)" fill="#fff" stroke="#a13f8d" stroke-width="0.722"/>
      <rect id="Rectangle_142251" data-name="Rectangle 142251" width="42.608" height="172.599" rx="1.083" transform="translate(358.559 315.951)" fill="#fff" stroke="#73726d" stroke-width="0.722"/>
      <rect id="Rectangle_142252" data-name="Rectangle 142252" width="43.33" height="33.22" rx="1.444" transform="translate(248.428 455.691)" fill="#6f4d98"/>
      <rect id="Rectangle_142253" data-name="Rectangle 142253" width="43.33" height="33.22" rx="1.444" transform="translate(303.313 455.691)" fill="#a13f8d"/>
      <rect id="Rectangle_142254" data-name="Rectangle 142254" width="43.33" height="132.88" rx="1.444" transform="translate(358.198 356.032)" fill="#73726d"/>
      <rect id="Rectangle_142255" data-name="Rectangle 142255" width="42.608" height="172.599" rx="1.083" transform="translate(248.789 618.542)" fill="#fff" stroke="#6f4d98" stroke-width="0.722"/>
      <rect id="Rectangle_142256" data-name="Rectangle 142256" width="42.608" height="172.599" rx="1.083" transform="translate(303.674 618.542)" fill="#fff" stroke="#a13f8d" stroke-width="0.722"/>
      <rect id="Rectangle_142257" data-name="Rectangle 142257" width="42.608" height="172.599" rx="1.083" transform="translate(358.559 618.542)" fill="#fff" stroke="#73726d" stroke-width="0.722"/>
      <path id="Path_1746" data-name="Path 1746" d="M248.428,706.286a1.444,1.444,0,0,1,1.444-1.445h40.442a1.445,1.445,0,0,1,1.444,1.445v83.772a1.444,1.444,0,0,1-1.444,1.444H249.872a1.443,1.443,0,0,1-1.444-1.444Z" fill="url(#linear-gradient)"/>
      <path id="Path_1747" data-name="Path 1747" d="M248.428,706.286a2.168,2.168,0,0,1,.075-.568l.257.107A.575.575,0,0,0,248.428,706.286Zm1.029-1-.268-.648.052-.043a2.149,2.149,0,0,1,1.353-.475v1.445h-.722c-.1,0-.2,0-.293.014Zm2.582.279h1.444v-1.445h-1.444v1.445Zm2.888-1.445v1.445h1.445v-1.445Zm2.889,0v1.445h1.444v-1.445Zm2.889,0v1.445h1.444v-1.445Zm2.888,0v1.445h1.445v-1.445Zm2.889,0v1.445h1.444v-1.445Zm2.889,0v1.445h1.444v-1.445Zm2.888,0v1.445H273.7v-1.445Zm2.889,0v1.445h1.444v-1.445Zm2.889,0v1.445h1.444v-1.445Zm2.888,0v1.445h1.445v-1.445Zm2.889,0v1.445h1.445v-1.445Zm2.889,0v1.445h1.444v-1.445Zm2.889,0v1.445h.722c.1,0,.2,0,.292.014l.122-.293.269-.648-.052-.043a2.149,2.149,0,0,0-1.353-.475Zm2.091,1.6-.257.107a.577.577,0,0,1,.332.461A2.169,2.169,0,0,0,291.683,705.718Z" fill="#6f4d98" fill-rule="evenodd"/>
      <path id="Path_1748" data-name="Path 1748" d="M303.313,706.286a1.445,1.445,0,0,1,1.444-1.445H345.2a1.444,1.444,0,0,1,1.444,1.445v83.772A1.443,1.443,0,0,1,345.2,791.5H304.757a1.444,1.444,0,0,1-1.444-1.444Z" fill="url(#linear-gradient-2)"/>
      <path id="Path_1749" data-name="Path 1749" d="M303.313,706.286a2.168,2.168,0,0,1,.075-.568l.257.107A.577.577,0,0,0,303.313,706.286Zm1.03-1-.269-.648.052-.043a2.149,2.149,0,0,1,1.353-.475v1.445h-.722c-.1,0-.2,0-.292.014Zm2.581.279h1.444v-1.445h-1.444v1.445Zm2.888-1.445v1.445h1.445v-1.445Zm2.889,0v1.445h1.444v-1.445Zm2.889,0v1.445h1.444v-1.445Zm2.889,0v1.445h1.444v-1.445Zm2.888,0v1.445h1.445v-1.445Zm2.889,0v1.445H325.7v-1.445Zm2.889,0v1.445h1.444v-1.445Zm2.888,0v1.445h1.445v-1.445Zm2.889,0v1.445h1.444v-1.445Zm2.889,0v1.445h1.444v-1.445Zm2.888,0v1.445h1.445v-1.445Zm2.889,0v1.445h1.444v-1.445Zm2.889,0v1.445h.722c.1,0,.2,0,.293.014l.121-.293.269-.648-.052-.043a2.149,2.149,0,0,0-1.353-.475Zm2.091,1.6-.257.107a.575.575,0,0,1,.332.461A2.168,2.168,0,0,0,346.568,705.718Z" fill="#a13f8d" fill-rule="evenodd"/>
      <path id="Path_1750" data-name="Path 1750" d="M324.256,744.561H325.7a1.445,1.445,0,0,0,1.445-1.444V729.4a1.445,1.445,0,0,0-1.445-1.444h-1.444a1.444,1.444,0,0,0-1.444,1.444v13.722A1.444,1.444,0,0,0,324.256,744.561Z" fill="#4fadc8"/>
      <path id="Path_1751" data-name="Path 1751" d="M331.054,729.4a1.445,1.445,0,0,0,1.059-2.427l-6.077-6.543a1.442,1.442,0,0,0-2.116,0l-6.076,6.543A1.444,1.444,0,0,0,318.9,729.4Z" fill="#4fadc8"/>
      <rect id="Rectangle_142259" data-name="Rectangle 142259" width="43.33" height="33.22" rx="1.444" transform="translate(248.428 758.282)" fill="#6f4d98"/>
      <rect id="Rectangle_142260" data-name="Rectangle 142260" width="43.33" height="33.22" rx="1.444" transform="translate(303.313 758.282)" fill="#a13f8d"/>
      <path id="Path_1752" data-name="Path 1752" d="M358.2,660.067a1.445,1.445,0,0,1,1.444-1.445h40.442a1.445,1.445,0,0,1,1.445,1.445V790.058a1.444,1.444,0,0,1-1.445,1.444H359.642a1.444,1.444,0,0,1-1.444-1.444Z" fill="url(#linear-gradient-3)"/>
      <rect id="Rectangle_142258" data-name="Rectangle 142258" width="43.33" height="86.661" rx="1.444" transform="translate(358.198 704.841)" fill="#73726d"/>
      <path id="Path_1753" data-name="Path 1753" d="M358.273,659.5l.257.107a.577.577,0,0,0-.332.461A2.168,2.168,0,0,1,358.273,659.5Zm.955-.434-.269-.647.052-.043a2.149,2.149,0,0,1,1.354-.475v1.444h-.723c-.1,0-.2.006-.292.015Zm2.581.279h1.444V657.9h-1.444v1.444ZM364.7,657.9v1.444h1.444V657.9Zm2.888,0v1.444h1.445V657.9Zm2.889,0v1.444h1.444V657.9Zm2.889,0v1.444h1.444V657.9Zm2.888,0v1.444H377.7V657.9Zm2.889,0v1.444h1.445V657.9Zm2.889,0v1.444h1.444V657.9Zm2.889,0v1.444h1.444V657.9Zm2.888,0v1.444h1.445V657.9Zm2.889,0v1.444h1.444V657.9Zm2.889,0v1.444h1.444V657.9Zm2.888,0v1.444h1.445V657.9Zm2.889,0v1.444h.722c.1,0,.2.006.293.015l.122-.294.268-.647-.052-.043a2.149,2.149,0,0,0-1.353-.475Zm2.092,1.6-.257.107a.577.577,0,0,1,.332.461A2.211,2.211,0,0,0,401.454,659.5Z" fill="#73726d" fill-rule="evenodd"/>
      <path id="Path_1754" data-name="Path 1754" d="M380.585,669.455h-1.444A1.444,1.444,0,0,0,377.7,670.9v13.722a1.444,1.444,0,0,0,1.444,1.444h1.444a1.445,1.445,0,0,0,1.445-1.444V670.9A1.445,1.445,0,0,0,380.585,669.455Z" fill="#4fadc8"/>
      <path id="Path_1755" data-name="Path 1755" d="M373.787,684.621a1.444,1.444,0,0,0-1.058,2.427l6.076,6.543a1.444,1.444,0,0,0,2.117,0L387,687.048a1.445,1.445,0,0,0-1.059-2.427Z" fill="#4fadc8"/>
      <path id="Path_1756" data-name="Path 1756" d="M269.371,744.561h1.444a1.444,1.444,0,0,0,1.444-1.444V729.4a1.444,1.444,0,0,0-1.444-1.444h-1.444a1.445,1.445,0,0,0-1.445,1.444v13.722A1.445,1.445,0,0,0,269.371,744.561Z" fill="#4fadc8"/>
      <path id="Path_1757" data-name="Path 1757" d="M276.169,729.4a1.444,1.444,0,0,0,1.058-2.427l-6.076-6.543a1.444,1.444,0,0,0-2.117,0l-6.076,6.543a1.445,1.445,0,0,0,1.059,2.427Z" fill="#4fadc8"/>
    </g>
    <path id="Path_1764" data-name="Path 1764" d="M7.728,16.192c2.64,0,4.5-2.112,4.5-5.488,0-3.344-1.856-5.392-4.5-5.392S3.248,7.344,3.248,10.7C3.248,14.08,5.088,16.192,7.728,16.192Zm0-1.184c-1.872,0-3.088-1.68-3.088-4.3C4.64,8.1,5.856,6.5,7.728,6.5s3.1,1.6,3.1,4.208C10.832,13.328,9.6,15.008,7.728,15.008Zm8.9,1.184a3.287,3.287,0,0,0,2.56-1.408h.048L19.344,16h1.088V8.224H19.1v5.5c-.72.912-1.28,1.312-2.064,1.312-1.024,0-1.472-.624-1.472-2.064V8.224H14.24v4.928C14.24,15.136,14.976,16.192,16.624,16.192ZM23.056,16h1.328V11.008C24.912,9.7,25.7,9.232,26.352,9.232a2.269,2.269,0,0,1,.7.1l.288-1.136a1.838,1.838,0,0,0-.832-.16,2.7,2.7,0,0,0-2.208,1.6h-.048l-.112-1.408H23.056Zm10.56.192a4.022,4.022,0,0,0,2.56-1.12h.048l.128.928H37.44V11.216c0-1.92-.816-3.184-2.7-3.184A5.637,5.637,0,0,0,31.68,9.04l.512.9a4.334,4.334,0,0,1,2.32-.8c1.264,0,1.584.944,1.6,1.92-3.328.368-4.768,1.2-4.768,2.928A2.108,2.108,0,0,0,33.616,16.192Zm.368-1.088c-.752,0-1.344-.336-1.344-1.2,0-1.008.848-1.6,3.472-1.9v2.112A3.179,3.179,0,0,1,33.984,15.1Zm5.9,4.176h1.328V16.656l-.032-1.36a3.564,3.564,0,0,0,2.144.9C45.1,16.192,46.7,14.64,46.7,12c0-2.416-1.088-3.968-3.088-3.968a4.063,4.063,0,0,0-2.48,1.088h-.048l-.112-.9H39.888ZM43.1,15.072a3.007,3.007,0,0,1-1.888-.8V10.208A3.133,3.133,0,0,1,43.28,9.152c1.456,0,2.048,1.136,2.048,2.848C45.328,13.92,44.384,15.072,43.1,15.072Zm5.664,4.208H50.1V16.656l-.032-1.36a3.564,3.564,0,0,0,2.144.9c1.776,0,3.376-1.552,3.376-4.192,0-2.416-1.088-3.968-3.088-3.968a4.063,4.063,0,0,0-2.48,1.088h-.048l-.112-.9H48.768Zm3.216-4.208a3.007,3.007,0,0,1-1.888-.8V10.208A3.133,3.133,0,0,1,52.16,9.152c1.456,0,2.048,1.136,2.048,2.848C54.208,13.92,53.264,15.072,51.984,15.072ZM57.648,16h1.328V11.008C59.5,9.7,60.288,9.232,60.944,9.232a2.269,2.269,0,0,1,.7.1l.288-1.136a1.838,1.838,0,0,0-.832-.16,2.7,2.7,0,0,0-2.208,1.6h-.048l-.112-1.408H57.648Zm8.432.192c1.9,0,3.616-1.488,3.616-4.064,0-2.608-1.712-4.1-3.616-4.1s-3.6,1.488-3.6,4.1C62.48,14.7,64.176,16.192,66.08,16.192Zm0-1.1c-1.328,0-2.224-1.184-2.224-2.96,0-1.792.9-2.992,2.224-2.992,1.344,0,2.24,1.2,2.24,2.992C68.32,13.9,67.424,15.088,66.08,15.088Zm7.216,1.1a4.022,4.022,0,0,0,2.56-1.12H75.9l.128.928H77.12V11.216c0-1.92-.816-3.184-2.7-3.184A5.637,5.637,0,0,0,71.36,9.04l.512.9a4.334,4.334,0,0,1,2.32-.8c1.264,0,1.584.944,1.6,1.92-3.328.368-4.768,1.2-4.768,2.928A2.108,2.108,0,0,0,73.3,16.192Zm.368-1.088c-.752,0-1.344-.336-1.344-1.2,0-1.008.848-1.6,3.472-1.9v2.112A3.179,3.179,0,0,1,73.664,15.1Zm8.976,1.088a3.715,3.715,0,0,0,2.512-.992l-.576-.848a2.766,2.766,0,0,1-1.824.736c-1.424,0-2.384-1.184-2.384-2.96,0-1.792,1.024-2.992,2.432-2.992a2.2,2.2,0,0,1,1.552.64l.656-.832a3.161,3.161,0,0,0-2.272-.912,3.766,3.766,0,0,0-3.744,4.1C78.992,14.7,80.576,16.192,82.64,16.192ZM86.864,16h1.328V10.368A2.921,2.921,0,0,1,90.3,9.184c1.024,0,1.472.608,1.472,2.064V16H93.1V11.072c0-1.984-.736-3.04-2.384-3.04a3.652,3.652,0,0,0-2.576,1.28l.048-1.6v-3.1H86.864Zm13.7.192a4.022,4.022,0,0,0,2.56-1.12h.048L103.3,16h1.088V11.216c0-1.92-.816-3.184-2.7-3.184A5.637,5.637,0,0,0,98.624,9.04l.512.9a4.334,4.334,0,0,1,2.32-.8c1.264,0,1.584.944,1.6,1.92-3.328.368-4.768,1.2-4.768,2.928A2.107,2.107,0,0,0,100.56,16.192Zm.368-1.088c-.752,0-1.344-.336-1.344-1.2,0-1.008.848-1.6,3.472-1.9v2.112A3.179,3.179,0,0,1,100.928,15.1Zm5.9.9h1.328V8.224h-1.328Zm.672-9.376a.827.827,0,0,0,.88-.864.88.88,0,0,0-1.76,0A.827.827,0,0,0,107.5,6.624ZM110.784,16h1.328V10.368a2.857,2.857,0,0,1,1.936-1.184c.992,0,1.44.608,1.44,2.064V16h1.328V10.368a2.821,2.821,0,0,1,1.952-1.184c.976,0,1.44.608,1.44,2.064V16h1.328V11.072c0-1.984-.768-3.04-2.368-3.04a3.676,3.676,0,0,0-2.56,1.472,2.052,2.052,0,0,0-2.16-1.472,3.448,3.448,0,0,0-2.416,1.312h-.048l-.112-1.12h-1.088Zm15.3.192c1.84,0,2.848-1.056,2.848-2.32,0-1.408-1.168-1.936-2.384-2.368-.976-.336-1.648-.624-1.648-1.328,0-.576.432-1.12,1.424-1.12a2.9,2.9,0,0,1,1.792.624l.608-.768a3.736,3.736,0,0,0-2.416-.88c-1.7,0-2.688.96-2.688,2.208,0,1.28,1.12,1.84,2.288,2.256.88.32,1.744.656,1.744,1.456,0,.672-.5,1.2-1.52,1.2a3.411,3.411,0,0,1-2.336-.848l-.608.768A4.131,4.131,0,0,0,126.08,16.192Zm10.32,0a3.618,3.618,0,0,0,1.472-.336l-.272-.944a2.107,2.107,0,0,1-.9.192c-.88,0-1.2-.544-1.2-1.488V9.3h2.112V8.224H135.5v-2.5h-1.1l-.16,2.5-1.216.08V9.3h1.152v4.288C134.176,15.136,134.736,16.192,136.4,16.192Zm5.776,0c1.9,0,3.616-1.488,3.616-4.064,0-2.608-1.712-4.1-3.616-4.1s-3.6,1.488-3.6,4.1C138.576,14.7,140.272,16.192,142.176,16.192Zm0-1.1c-1.328,0-2.224-1.184-2.224-2.96,0-1.792.9-2.992,2.224-2.992,1.344,0,2.24,1.2,2.24,2.992C144.416,13.9,143.52,15.088,142.176,15.088Zm10.88,1.1c1.84,0,2.848-1.056,2.848-2.32,0-1.408-1.168-1.936-2.384-2.368-.976-.336-1.648-.624-1.648-1.328,0-.576.432-1.12,1.424-1.12a2.9,2.9,0,0,1,1.792.624l.608-.768a3.736,3.736,0,0,0-2.416-.88c-1.7,0-2.688.96-2.688,2.208,0,1.28,1.12,1.84,2.288,2.256.88.32,1.744.656,1.744,1.456,0,.672-.5,1.2-1.52,1.2a3.411,3.411,0,0,1-2.336-.848l-.608.768A4.131,4.131,0,0,0,153.056,16.192Zm7.808,0a4.293,4.293,0,0,0,2.576-.8l-.464-.848a3.426,3.426,0,0,1-1.952.576,2.56,2.56,0,0,1-2.56-2.656H163.7a4.1,4.1,0,0,0,.064-.784c0-2.24-1.136-3.648-3.12-3.648-1.776,0-3.488,1.552-3.488,4.08C157.152,14.688,158.784,16.192,160.864,16.192Zm-2.4-4.752a2.348,2.348,0,0,1,2.208-2.352c1.184,0,1.9.816,1.9,2.352Zm8.592,4.752a1.683,1.683,0,0,0,.768-.144l-.176-.992a.941.941,0,0,1-.272.032c-.208,0-.384-.144-.384-.56V4.608h-1.328v9.824C165.664,15.552,166.064,16.192,167.056,16.192Zm5.824,0a4.293,4.293,0,0,0,2.576-.8l-.464-.848a3.426,3.426,0,0,1-1.952.576,2.56,2.56,0,0,1-2.56-2.656h5.232a4.1,4.1,0,0,0,.064-.784c0-2.24-1.136-3.648-3.12-3.648-1.776,0-3.488,1.552-3.488,4.08C169.168,14.688,170.8,16.192,172.88,16.192Zm-2.4-4.752a2.348,2.348,0,0,1,2.208-2.352c1.184,0,1.9.816,1.9,2.352Zm10.272,4.752a3.715,3.715,0,0,0,2.512-.992l-.576-.848a2.766,2.766,0,0,1-1.824.736c-1.424,0-2.384-1.184-2.384-2.96,0-1.792,1.024-2.992,2.432-2.992a2.2,2.2,0,0,1,1.552.64l.656-.832a3.161,3.161,0,0,0-2.272-.912,3.766,3.766,0,0,0-3.744,4.1C177.1,14.7,178.688,16.192,180.752,16.192Zm6.512,0a3.618,3.618,0,0,0,1.472-.336l-.272-.944a2.107,2.107,0,0,1-.9.192c-.88,0-1.2-.544-1.2-1.488V9.3h2.112V8.224h-2.112v-2.5h-1.1l-.16,2.5-1.216.08V9.3h1.152v4.288C185.04,15.136,185.6,16.192,187.264,16.192ZM190.24,16h1.328V8.224H190.24Zm.672-9.376a.827.827,0,0,0,.88-.864.88.88,0,0,0-1.76,0A.827.827,0,0,0,190.912,6.624ZM195.872,16h1.552l2.752-7.776h-1.312l-1.456,4.4c-.24.768-.5,1.552-.72,2.3h-.064c-.24-.752-.48-1.536-.72-2.3l-1.456-4.4h-1.376Zm8.88.192a4.293,4.293,0,0,0,2.576-.8l-.464-.848a3.426,3.426,0,0,1-1.952.576,2.56,2.56,0,0,1-2.56-2.656h5.232a4.1,4.1,0,0,0,.064-.784c0-2.24-1.136-3.648-3.12-3.648-1.776,0-3.488,1.552-3.488,4.08C201.04,14.688,202.672,16.192,204.752,16.192Zm-2.4-4.752a2.348,2.348,0,0,1,2.208-2.352c1.184,0,1.9.816,1.9,2.352Zm8.592,4.752a1.683,1.683,0,0,0,.768-.144l-.176-.992a.941.941,0,0,1-.272.032c-.208,0-.384-.144-.384-.56V4.608h-1.328v9.824C209.552,15.552,209.952,16.192,210.944,16.192Zm2.832,3.152c1.552,0,2.368-1.168,2.912-2.7l2.928-8.416h-1.3l-1.392,4.288c-.208.688-.432,1.488-.64,2.192h-.064c-.256-.72-.512-1.52-.768-2.192l-1.568-4.288h-1.376l3.12,7.792-.176.576c-.32.96-.88,1.648-1.744,1.648a1.812,1.812,0,0,1-.576-.1l-.288,1.04A2.608,2.608,0,0,0,213.776,19.344ZM224.32,16h1.328V10.368a2.857,2.857,0,0,1,1.936-1.184c.992,0,1.44.608,1.44,2.064V16h1.328V10.368A2.821,2.821,0,0,1,232.3,9.184c.976,0,1.44.608,1.44,2.064V16h1.328V11.072c0-1.984-.768-3.04-2.368-3.04a3.676,3.676,0,0,0-2.56,1.472,2.052,2.052,0,0,0-2.16-1.472,3.448,3.448,0,0,0-2.416,1.312h-.048l-.112-1.12H224.32Zm16.288.192c1.9,0,3.616-1.488,3.616-4.064,0-2.608-1.712-4.1-3.616-4.1s-3.6,1.488-3.6,4.1C237.008,14.7,238.7,16.192,240.608,16.192Zm0-1.1c-1.328,0-2.224-1.184-2.224-2.96,0-1.792.9-2.992,2.224-2.992,1.344,0,2.24,1.2,2.24,2.992C242.848,13.9,241.952,15.088,240.608,15.088Zm8.3,1.1a3.508,3.508,0,0,0,2.352-1.1h.048l.112.912h1.088V4.608h-1.328V7.6l.064,1.328a3.2,3.2,0,0,0-2.176-.9c-1.776,0-3.376,1.568-3.376,4.1C245.7,14.72,246.96,16.192,248.912,16.192Zm.288-1.12c-1.36,0-2.128-1.1-2.128-2.96,0-1.776.992-2.96,2.224-2.96a2.683,2.683,0,0,1,1.888.8v4.064A2.661,2.661,0,0,1,249.2,15.072Zm8.208,1.12a3.287,3.287,0,0,0,2.56-1.408h.048L260.128,16h1.088V8.224h-1.328v5.5c-.72.912-1.28,1.312-2.064,1.312-1.024,0-1.472-.624-1.472-2.064V8.224h-1.328v4.928C255.024,15.136,255.76,16.192,257.408,16.192Zm7.824,0a1.683,1.683,0,0,0,.768-.144l-.176-.992a.941.941,0,0,1-.272.032c-.208,0-.384-.144-.384-.56V4.608H263.84v9.824C263.84,15.552,264.24,16.192,265.232,16.192Zm4.48,0a4.022,4.022,0,0,0,2.56-1.12h.048l.128.928h1.088V11.216c0-1.92-.816-3.184-2.7-3.184a5.637,5.637,0,0,0-3.056,1.008l.512.9a4.334,4.334,0,0,1,2.32-.8c1.264,0,1.584.944,1.6,1.92-3.328.368-4.768,1.2-4.768,2.928A2.108,2.108,0,0,0,269.712,16.192Zm.368-1.088c-.752,0-1.344-.336-1.344-1.2,0-1.008.848-1.6,3.472-1.9v2.112A3.179,3.179,0,0,1,270.08,15.1Zm8.128,1.088a3.618,3.618,0,0,0,1.472-.336l-.272-.944a2.107,2.107,0,0,1-.9.192c-.88,0-1.2-.544-1.2-1.488V9.3h2.112V8.224h-2.112v-2.5h-1.1l-.16,2.5-1.216.08V9.3h1.152v4.288C275.984,15.136,276.544,16.192,278.208,16.192Zm5.888,0a4.293,4.293,0,0,0,2.576-.8l-.464-.848a3.426,3.426,0,0,1-1.952.576,2.56,2.56,0,0,1-2.56-2.656h5.232a4.1,4.1,0,0,0,.064-.784c0-2.24-1.136-3.648-3.12-3.648-1.776,0-3.488,1.552-3.488,4.08C280.384,14.688,282.016,16.192,284.1,16.192Zm-2.4-4.752A2.348,2.348,0,0,1,283.9,9.088c1.184,0,1.9.816,1.9,2.352ZM32.008,38.192a3.618,3.618,0,0,0,1.472-.336l-.272-.944a2.107,2.107,0,0,1-.9.192c-.88,0-1.2-.544-1.2-1.488V31.3h2.112V30.224H31.112v-2.5h-1.1l-.16,2.5-1.216.08V31.3h1.152v4.288C29.784,37.136,30.344,38.192,32.008,38.192ZM34.984,38h1.328V32.368a2.921,2.921,0,0,1,2.112-1.184c1.024,0,1.472.608,1.472,2.064V38h1.328V33.072c0-1.984-.736-3.04-2.384-3.04a3.652,3.652,0,0,0-2.576,1.28l.048-1.6v-3.1H34.984Zm11.84.192a4.293,4.293,0,0,0,2.576-.8l-.464-.848a3.426,3.426,0,0,1-1.952.576,2.56,2.56,0,0,1-2.56-2.656h5.232a4.1,4.1,0,0,0,.064-.784c0-2.24-1.136-3.648-3.12-3.648-1.776,0-3.488,1.552-3.488,4.08C43.112,36.688,44.744,38.192,46.824,38.192Zm-2.4-4.752a2.348,2.348,0,0,1,2.208-2.352c1.184,0,1.9.816,1.9,2.352Zm14.5,4.752a4.059,4.059,0,0,0,3.216-1.52l-.736-.8a3.12,3.12,0,0,1-2.432,1.136c-1.984,0-3.232-1.648-3.232-4.288,0-2.608,1.312-4.224,3.28-4.224a2.884,2.884,0,0,1,2.144.944l.736-.832a3.894,3.894,0,0,0-2.9-1.3c-2.672,0-4.656,2.064-4.656,5.44C54.344,36.176,56.3,38.192,58.92,38.192Zm6.832,0a4.022,4.022,0,0,0,2.56-1.12h.048l.128.928h1.088V33.216c0-1.92-.816-3.184-2.7-3.184a5.637,5.637,0,0,0-3.056,1.008l.512.9a4.334,4.334,0,0,1,2.32-.8c1.264,0,1.584.944,1.6,1.92-3.328.368-4.768,1.2-4.768,2.928A2.108,2.108,0,0,0,65.752,38.192ZM66.12,37.1c-.752,0-1.344-.336-1.344-1.2,0-1.008.848-1.6,3.472-1.9v2.112A3.179,3.179,0,0,1,66.12,37.1Zm8.944,1.088c2.208,0,3.584-1.328,3.584-2.992a2.908,2.908,0,0,0-2.16-2.8l-1.5-.656c-.816-.336-1.728-.72-1.728-1.728,0-.928.768-1.52,1.936-1.52a3.409,3.409,0,0,1,2.368.976l.736-.9a4.378,4.378,0,0,0-3.1-1.264c-1.9,0-3.3,1.184-3.3,2.784a2.939,2.939,0,0,0,2.112,2.7l1.52.672c.976.432,1.744.768,1.744,1.84,0,1.008-.816,1.7-2.192,1.7a4.171,4.171,0,0,1-2.944-1.264l-.752.88A4.928,4.928,0,0,0,75.064,38.192ZM80.7,38H82.04V33.568h1.888L86.456,38h1.52L85.3,33.424a2.862,2.862,0,0,0,2.352-2.96c0-2.192-1.536-2.96-3.68-2.96H80.7Zm1.344-5.52V28.592h1.744c1.632,0,2.528.5,2.528,1.872,0,1.344-.9,2.016-2.528,2.016Zm7.408,8.24a3.157,3.157,0,0,0,2.112-2.992c0-.976-.416-1.568-1.12-1.568a.92.92,0,0,0-.976.928.885.885,0,0,0,.944.928A.656.656,0,0,0,90.584,38a2.161,2.161,0,0,1-1.456,1.952ZM98.136,38h1.6l1.04-4.176a17.367,17.367,0,0,0,.5-2.3h.064c.176.912.32,1.584.512,2.3L102.9,38h1.68l2.1-7.776h-1.264l-1.136,4.512c-.176.7-.3,1.376-.464,2.208h-.064c-.16-.832-.336-1.5-.512-2.208l-1.184-4.512h-1.424l-1.168,4.512c-.176.7-.32,1.376-.48,2.208H98.92c-.128-.832-.288-1.5-.464-2.208L97.32,30.224H95.96Zm10.24,0H109.7V30.224h-1.328Zm.672-9.376a.827.827,0,0,0,.88-.864.88.88,0,0,0-1.76,0A.827.827,0,0,0,109.048,28.624Zm5.728,9.568a3.618,3.618,0,0,0,1.472-.336l-.272-.944a2.107,2.107,0,0,1-.9.192c-.88,0-1.2-.544-1.2-1.488V31.3h2.112V30.224H113.88v-2.5h-1.1l-.16,2.5-1.216.08V31.3h1.152v4.288C112.552,37.136,113.112,38.192,114.776,38.192ZM117.752,38h1.328V32.368a2.921,2.921,0,0,1,2.112-1.184c1.024,0,1.472.608,1.472,2.064V38h1.328V33.072c0-1.984-.736-3.04-2.384-3.04a3.652,3.652,0,0,0-2.576,1.28l.048-1.6v-3.1h-1.328Zm14.352.192a3.618,3.618,0,0,0,1.472-.336l-.272-.944a2.107,2.107,0,0,1-.9.192c-.88,0-1.2-.544-1.2-1.488V31.3h2.112V30.224h-2.112v-2.5h-1.1l-.16,2.5-1.216.08V31.3h1.152v4.288C129.88,37.136,130.44,38.192,132.1,38.192ZM135.08,38h1.328V32.368a2.921,2.921,0,0,1,2.112-1.184c1.024,0,1.472.608,1.472,2.064V38h1.328V33.072c0-1.984-.736-3.04-2.384-3.04a3.652,3.652,0,0,0-2.576,1.28l.048-1.6v-3.1H135.08Zm11.84.192a4.293,4.293,0,0,0,2.576-.8l-.464-.848a3.426,3.426,0,0,1-1.952.576,2.56,2.56,0,0,1-2.56-2.656h5.232a4.1,4.1,0,0,0,.064-.784c0-2.24-1.136-3.648-3.12-3.648-1.776,0-3.488,1.552-3.488,4.08C143.208,36.688,144.84,38.192,146.92,38.192Zm-2.4-4.752a2.348,2.348,0,0,1,2.208-2.352c1.184,0,1.9.816,1.9,2.352Zm13.024,8.144c2.416,0,3.936-1.248,3.936-2.7,0-1.28-.912-1.856-2.72-1.856h-1.5c-1.04,0-1.36-.352-1.36-.832a1.135,1.135,0,0,1,.5-.928,2.8,2.8,0,0,0,4-2.432,2.206,2.206,0,0,0-.624-1.584h1.584V30.224h-2.7a3.1,3.1,0,0,0-1.1-.192,2.745,2.745,0,0,0-1.92,4.864v.064a1.821,1.821,0,0,0-.848,1.44,1.435,1.435,0,0,0,.688,1.264v.064a2.245,2.245,0,0,0-1.136,1.76C154.328,40.832,155.64,41.584,157.544,41.584Zm0-6.944A1.689,1.689,0,0,1,155.9,32.8a1.655,1.655,0,1,1,3.3,0A1.689,1.689,0,0,1,157.544,34.64Zm.192,6.016c-1.408,0-2.256-.512-2.256-1.344a1.638,1.638,0,0,1,.8-1.312,3.787,3.787,0,0,0,1.008.128h1.328c1.024,0,1.568.24,1.568.96C160.184,39.888,159.208,40.656,157.736,40.656Zm8.064-2.464c1.9,0,3.616-1.488,3.616-4.064,0-2.608-1.712-4.1-3.616-4.1s-3.6,1.488-3.6,4.1C162.2,36.7,163.9,38.192,165.8,38.192Zm0-1.1c-1.328,0-2.224-1.184-2.224-2.96,0-1.792.9-2.992,2.224-2.992,1.344,0,2.24,1.2,2.24,2.992C168.04,35.9,167.144,37.088,165.8,37.088Zm7.216,1.1a4.022,4.022,0,0,0,2.56-1.12h.048l.128.928h1.088V33.216c0-1.92-.816-3.184-2.7-3.184a5.637,5.637,0,0,0-3.056,1.008l.512.9a4.334,4.334,0,0,1,2.32-.8c1.264,0,1.584.944,1.6,1.92-3.328.368-4.768,1.2-4.768,2.928A2.108,2.108,0,0,0,173.016,38.192Zm.368-1.088c-.752,0-1.344-.336-1.344-1.2,0-1.008.848-1.6,3.472-1.9v2.112A3.179,3.179,0,0,1,173.384,37.1Zm7.3,1.088a1.683,1.683,0,0,0,.768-.144l-.176-.992a.941.941,0,0,1-.272.032c-.208,0-.384-.144-.384-.56v-9.92h-1.328v9.824C179.288,37.552,179.688,38.192,180.68,38.192Zm8.912,0c1.9,0,3.616-1.488,3.616-4.064,0-2.608-1.712-4.1-3.616-4.1s-3.6,1.488-3.6,4.1C185.992,36.7,187.688,38.192,189.592,38.192Zm0-1.1c-1.328,0-2.224-1.184-2.224-2.96,0-1.792.9-2.992,2.224-2.992,1.344,0,2.24,1.2,2.24,2.992C191.832,35.9,190.936,37.088,189.592,37.088Zm5.872.912h1.328V31.3h1.632V30.224h-1.632V29.008c0-.992.352-1.52,1.088-1.52a2.917,2.917,0,0,1,.864.16l.288-.976a3.391,3.391,0,0,0-1.3-.256c-1.552,0-2.272,1.008-2.272,2.592v1.216l-1.056.08V31.3h1.056Zm7.648,0h1.328V33.008c.528-1.312,1.312-1.776,1.968-1.776a2.269,2.269,0,0,1,.7.1l.288-1.136a1.838,1.838,0,0,0-.832-.16,2.7,2.7,0,0,0-2.208,1.6h-.048l-.112-1.408h-1.088Zm8.544.192a4.293,4.293,0,0,0,2.576-.8l-.464-.848a3.426,3.426,0,0,1-1.952.576,2.56,2.56,0,0,1-2.56-2.656h5.232a4.1,4.1,0,0,0,.064-.784c0-2.24-1.136-3.648-3.12-3.648-1.776,0-3.488,1.552-3.488,4.08C207.944,36.688,209.576,38.192,211.656,38.192Zm-2.4-4.752a2.348,2.348,0,0,1,2.208-2.352c1.184,0,1.9.816,1.9,2.352Zm9.232,4.752c1.84,0,2.848-1.056,2.848-2.32,0-1.408-1.168-1.936-2.384-2.368-.976-.336-1.648-.624-1.648-1.328,0-.576.432-1.12,1.424-1.12a2.9,2.9,0,0,1,1.792.624l.608-.768a3.736,3.736,0,0,0-2.416-.88c-1.7,0-2.688.96-2.688,2.208,0,1.28,1.12,1.84,2.288,2.256.88.32,1.744.656,1.744,1.456,0,.672-.5,1.2-1.52,1.2A3.411,3.411,0,0,1,216.2,36.3l-.608.768A4.131,4.131,0,0,0,218.488,38.192Zm6.8,0a3.618,3.618,0,0,0,1.472-.336l-.272-.944a2.107,2.107,0,0,1-.9.192c-.88,0-1.2-.544-1.2-1.488V31.3H226.5V30.224h-2.112v-2.5h-1.1l-.16,2.5-1.216.08V31.3h1.152v4.288C223.064,37.136,223.624,38.192,225.288,38.192Zm5.776,0c1.9,0,3.616-1.488,3.616-4.064,0-2.608-1.712-4.1-3.616-4.1s-3.6,1.488-3.6,4.1C227.464,36.7,229.16,38.192,231.064,38.192Zm0-1.1c-1.328,0-2.224-1.184-2.224-2.96,0-1.792.9-2.992,2.224-2.992,1.344,0,2.24,1.2,2.24,2.992C233.3,35.9,232.408,37.088,231.064,37.088Zm5.648.912h1.328V33.008c.528-1.312,1.312-1.776,1.968-1.776a2.269,2.269,0,0,1,.7.1L241,30.192a1.838,1.838,0,0,0-.832-.16,2.7,2.7,0,0,0-2.208,1.6h-.048l-.112-1.408h-1.088Zm5.568,0h1.328V30.224H242.28Zm.672-9.376a.827.827,0,0,0,.88-.864.88.88,0,0,0-1.76,0A.827.827,0,0,0,242.952,28.624ZM246.232,38h1.328V32.368a2.921,2.921,0,0,1,2.112-1.184c1.024,0,1.472.608,1.472,2.064V38h1.328V33.072c0-1.984-.736-3.04-2.384-3.04a3.665,3.665,0,0,0-2.608,1.312h-.048l-.112-1.12h-1.088Zm11.376,3.584c2.416,0,3.936-1.248,3.936-2.7,0-1.28-.912-1.856-2.72-1.856h-1.5c-1.04,0-1.36-.352-1.36-.832a1.135,1.135,0,0,1,.5-.928,2.8,2.8,0,0,0,4-2.432,2.206,2.206,0,0,0-.624-1.584h1.584V30.224h-2.7a3.1,3.1,0,0,0-1.1-.192,2.745,2.745,0,0,0-1.92,4.864v.064a1.821,1.821,0,0,0-.848,1.44,1.435,1.435,0,0,0,.688,1.264v.064a2.245,2.245,0,0,0-1.136,1.76C254.392,40.832,255.7,41.584,257.608,41.584Zm0-6.944a1.689,1.689,0,0,1-1.648-1.84,1.655,1.655,0,1,1,3.3,0A1.689,1.689,0,0,1,257.608,34.64Zm.192,6.016c-1.408,0-2.256-.512-2.256-1.344a1.638,1.638,0,0,1,.8-1.312,3.787,3.787,0,0,0,1.008.128h1.328c1.024,0,1.568.24,1.568.96C260.248,39.888,259.272,40.656,257.8,40.656ZM31.192,63.28H32.52V60.656l-.032-1.36a3.564,3.564,0,0,0,2.144.9c1.776,0,3.376-1.552,3.376-4.192,0-2.416-1.088-3.968-3.088-3.968a4.063,4.063,0,0,0-2.48,1.088h-.048l-.112-.9H31.192Zm3.216-4.208a3.007,3.007,0,0,1-1.888-.8V54.208a3.133,3.133,0,0,1,2.064-1.056c1.456,0,2.048,1.136,2.048,2.848C36.632,57.92,35.688,59.072,34.408,59.072ZM40.072,60H41.4V54.368a2.921,2.921,0,0,1,2.112-1.184c1.024,0,1.472.608,1.472,2.064V60h1.328V55.072c0-1.984-.736-3.04-2.384-3.04a3.652,3.652,0,0,0-2.576,1.28l.048-1.6v-3.1H40.072Zm8.848,3.344c1.552,0,2.368-1.168,2.912-2.7l2.928-8.416h-1.3l-1.392,4.288c-.208.688-.432,1.488-.64,2.192h-.064c-.256-.72-.512-1.52-.768-2.192l-1.568-4.288H47.656l3.12,7.792-.176.576c-.32.96-.88,1.648-1.744,1.648a1.812,1.812,0,0,1-.576-.1l-.288,1.04A2.608,2.608,0,0,0,48.92,63.344ZM58.3,60.192c1.84,0,2.848-1.056,2.848-2.32,0-1.408-1.168-1.936-2.384-2.368-.976-.336-1.648-.624-1.648-1.328,0-.576.432-1.12,1.424-1.12a2.9,2.9,0,0,1,1.792.624l.608-.768a3.736,3.736,0,0,0-2.416-.88c-1.7,0-2.688.96-2.688,2.208,0,1.28,1.12,1.84,2.288,2.256.88.32,1.744.656,1.744,1.456,0,.672-.5,1.2-1.52,1.2a3.411,3.411,0,0,1-2.336-.848l-.608.768A4.131,4.131,0,0,0,58.3,60.192ZM62.968,60H64.3V52.224H62.968Zm.672-9.376a.827.827,0,0,0,.88-.864.88.88,0,0,0-1.76,0A.827.827,0,0,0,63.64,50.624Zm6.3,9.568c1.9,0,3.616-1.488,3.616-4.064,0-2.608-1.712-4.1-3.616-4.1s-3.6,1.488-3.6,4.1C66.344,58.7,68.04,60.192,69.944,60.192Zm0-1.1c-1.328,0-2.224-1.184-2.224-2.96,0-1.792.9-2.992,2.224-2.992,1.344,0,2.24,1.2,2.24,2.992C72.184,57.9,71.288,59.088,69.944,59.088Zm7.04,1.1a1.683,1.683,0,0,0,.768-.144l-.176-.992a.941.941,0,0,1-.272.032c-.208,0-.384-.144-.384-.56v-9.92H75.592v9.824C75.592,59.552,75.992,60.192,76.984,60.192Zm5.712,0c1.9,0,3.616-1.488,3.616-4.064,0-2.608-1.712-4.1-3.616-4.1s-3.6,1.488-3.6,4.1C79.1,58.7,80.792,60.192,82.7,60.192Zm0-1.1c-1.328,0-2.224-1.184-2.224-2.96,0-1.792.9-2.992,2.224-2.992,1.344,0,2.24,1.2,2.24,2.992C84.936,57.9,84.04,59.088,82.7,59.088Zm8.272,4.5c2.416,0,3.936-1.248,3.936-2.7,0-1.28-.912-1.856-2.72-1.856h-1.5c-1.04,0-1.36-.352-1.36-.832a1.135,1.135,0,0,1,.5-.928,2.8,2.8,0,0,0,4-2.432,2.206,2.206,0,0,0-.624-1.584h1.584V52.224h-2.7a3.1,3.1,0,0,0-1.1-.192,2.745,2.745,0,0,0-1.92,4.864v.064A1.821,1.821,0,0,0,88.2,58.4a1.435,1.435,0,0,0,.688,1.264v.064a2.245,2.245,0,0,0-1.136,1.76C87.752,62.832,89.064,63.584,90.968,63.584Zm0-6.944A1.689,1.689,0,0,1,89.32,54.8a1.655,1.655,0,1,1,3.3,0A1.689,1.689,0,0,1,90.968,56.64Zm.192,6.016c-1.408,0-2.256-.512-2.256-1.344A1.638,1.638,0,0,1,89.7,60a3.787,3.787,0,0,0,1.008.128H92.04c1.024,0,1.568.24,1.568.96C93.608,61.888,92.632,62.656,91.16,62.656ZM96.424,60h1.328V52.224H96.424Zm.672-9.376a.827.827,0,0,0,.88-.864.88.88,0,0,0-1.76,0A.827.827,0,0,0,97.1,50.624Zm6.352,9.568a3.715,3.715,0,0,0,2.512-.992l-.576-.848a2.766,2.766,0,0,1-1.824.736c-1.424,0-2.384-1.184-2.384-2.96,0-1.792,1.024-2.992,2.432-2.992a2.2,2.2,0,0,1,1.552.64l.656-.832a3.161,3.161,0,0,0-2.272-.912,3.766,3.766,0,0,0-3.744,4.1C99.8,58.7,101.384,60.192,103.448,60.192Zm5.856,0a4.022,4.022,0,0,0,2.56-1.12h.048l.128.928h1.088V55.216c0-1.92-.816-3.184-2.7-3.184a5.637,5.637,0,0,0-3.056,1.008l.512.9a4.334,4.334,0,0,1,2.32-.8c1.264,0,1.584.944,1.6,1.92-3.328.368-4.768,1.2-4.768,2.928A2.108,2.108,0,0,0,109.3,60.192Zm.368-1.088c-.752,0-1.344-.336-1.344-1.2,0-1.008.848-1.6,3.472-1.9v2.112A3.179,3.179,0,0,1,109.672,59.1Zm7.3,1.088a1.683,1.683,0,0,0,.768-.144l-.176-.992a.941.941,0,0,1-.272.032c-.208,0-.384-.144-.384-.56v-9.92h-1.328v9.824C115.576,59.552,115.976,60.192,116.968,60.192ZM122.856,60h1.328V54.368a2.857,2.857,0,0,1,1.936-1.184c.992,0,1.44.608,1.44,2.064V60h1.328V54.368a2.821,2.821,0,0,1,1.952-1.184c.976,0,1.44.608,1.44,2.064V60h1.328V55.072c0-1.984-.768-3.04-2.368-3.04a3.676,3.676,0,0,0-2.56,1.472,2.052,2.052,0,0,0-2.16-1.472,3.448,3.448,0,0,0-2.416,1.312h-.048l-.112-1.12h-1.088Zm13.264,0h1.328V52.224H136.12Zm.672-9.376a.827.827,0,0,0,.88-.864.88.88,0,0,0-1.76,0A.827.827,0,0,0,136.792,50.624ZM140.072,60H141.4V54.368a2.921,2.921,0,0,1,2.112-1.184c1.024,0,1.472.608,1.472,2.064V60h1.328V55.072c0-1.984-.736-3.04-2.384-3.04a3.665,3.665,0,0,0-2.608,1.312h-.048l-.112-1.12h-1.088Zm11.888.192a4.293,4.293,0,0,0,2.576-.8l-.464-.848a3.426,3.426,0,0,1-1.952.576,2.56,2.56,0,0,1-2.56-2.656h5.232a4.1,4.1,0,0,0,.064-.784c0-2.24-1.136-3.648-3.12-3.648-1.776,0-3.488,1.552-3.488,4.08C148.248,58.688,149.88,60.192,151.96,60.192Zm-2.4-4.752a2.348,2.348,0,0,1,2.208-2.352c1.184,0,1.9.816,1.9,2.352Zm7.2,4.56h1.328V55.008c.528-1.312,1.312-1.776,1.968-1.776a2.269,2.269,0,0,1,.7.1l.288-1.136a1.838,1.838,0,0,0-.832-.16,2.7,2.7,0,0,0-2.208,1.6h-.048l-.112-1.408H156.76Zm6.976.192a4.022,4.022,0,0,0,2.56-1.12h.048l.128.928h1.088V55.216c0-1.92-.816-3.184-2.7-3.184A5.637,5.637,0,0,0,161.8,53.04l.512.9a4.334,4.334,0,0,1,2.32-.8c1.264,0,1.584.944,1.6,1.92-3.328.368-4.768,1.2-4.768,2.928A2.108,2.108,0,0,0,163.736,60.192ZM164.1,59.1c-.752,0-1.344-.336-1.344-1.2,0-1.008.848-1.6,3.472-1.9v2.112A3.179,3.179,0,0,1,164.1,59.1Zm7.3,1.088a1.683,1.683,0,0,0,.768-.144l-.176-.992a.941.941,0,0,1-.272.032c-.208,0-.384-.144-.384-.56v-9.92h-1.328v9.824C170.008,59.552,170.408,60.192,171.4,60.192ZM177.288,60h1.328V54.368a2.921,2.921,0,0,1,2.112-1.184c1.024,0,1.472.608,1.472,2.064V60h1.328V55.072c0-1.984-.736-3.04-2.384-3.04a3.652,3.652,0,0,0-2.576,1.28l.048-1.6v-3.1h-1.328Zm11.728.192c1.9,0,3.616-1.488,3.616-4.064,0-2.608-1.712-4.1-3.616-4.1s-3.6,1.488-3.6,4.1C185.416,58.7,187.112,60.192,189.016,60.192Zm0-1.1c-1.328,0-2.224-1.184-2.224-2.96,0-1.792.9-2.992,2.224-2.992,1.344,0,2.24,1.2,2.24,2.992C191.256,57.9,190.36,59.088,189.016,59.088Zm5.648.912h1.328V54.368a2.857,2.857,0,0,1,1.936-1.184c.992,0,1.44.608,1.44,2.064V60H200.7V54.368a2.821,2.821,0,0,1,1.952-1.184c.976,0,1.44.608,1.44,2.064V60h1.328V55.072c0-1.984-.768-3.04-2.368-3.04a3.676,3.676,0,0,0-2.56,1.472,2.052,2.052,0,0,0-2.16-1.472,3.448,3.448,0,0,0-2.416,1.312h-.048l-.112-1.12h-1.088Zm16.4.192a4.293,4.293,0,0,0,2.576-.8l-.464-.848a3.426,3.426,0,0,1-1.952.576,2.56,2.56,0,0,1-2.56-2.656H213.9a4.1,4.1,0,0,0,.064-.784c0-2.24-1.136-3.648-3.12-3.648-1.776,0-3.488,1.552-3.488,4.08C207.352,58.688,208.984,60.192,211.064,60.192Zm-2.4-4.752a2.348,2.348,0,0,1,2.208-2.352c1.184,0,1.9.816,1.9,2.352Zm10.224,4.752c1.9,0,3.616-1.488,3.616-4.064,0-2.608-1.712-4.1-3.616-4.1s-3.6,1.488-3.6,4.1C215.288,58.7,216.984,60.192,218.888,60.192Zm0-1.1c-1.328,0-2.224-1.184-2.224-2.96,0-1.792.9-2.992,2.224-2.992,1.344,0,2.24,1.2,2.24,2.992C221.128,57.9,220.232,59.088,218.888,59.088Zm7.68,1.1c1.84,0,2.848-1.056,2.848-2.32,0-1.408-1.168-1.936-2.384-2.368-.976-.336-1.648-.624-1.648-1.328,0-.576.432-1.12,1.424-1.12a2.9,2.9,0,0,1,1.792.624l.608-.768a3.736,3.736,0,0,0-2.416-.88c-1.7,0-2.688.96-2.688,2.208,0,1.28,1.12,1.84,2.288,2.256.88.32,1.744.656,1.744,1.456,0,.672-.5,1.2-1.52,1.2a3.411,3.411,0,0,1-2.336-.848l-.608.768A4.131,4.131,0,0,0,226.568,60.192Zm6.8,0a3.618,3.618,0,0,0,1.472-.336l-.272-.944a2.107,2.107,0,0,1-.9.192c-.88,0-1.2-.544-1.2-1.488V53.3h2.112V52.224h-2.112v-2.5h-1.1l-.16,2.5-1.216.08V53.3h1.152v4.288C231.144,59.136,231.7,60.192,233.368,60.192Zm4.432,0a4.022,4.022,0,0,0,2.56-1.12h.048l.128.928h1.088V55.216c0-1.92-.816-3.184-2.7-3.184a5.637,5.637,0,0,0-3.056,1.008l.512.9a4.334,4.334,0,0,1,2.32-.8c1.264,0,1.584.944,1.6,1.92-3.328.368-4.768,1.2-4.768,2.928A2.108,2.108,0,0,0,237.8,60.192Zm.368-1.088c-.752,0-1.344-.336-1.344-1.2,0-1.008.848-1.6,3.472-1.9v2.112A3.179,3.179,0,0,1,238.168,59.1Zm7.936,1.088c1.84,0,2.848-1.056,2.848-2.32,0-1.408-1.168-1.936-2.384-2.368-.976-.336-1.648-.624-1.648-1.328,0-.576.432-1.12,1.424-1.12a2.9,2.9,0,0,1,1.792.624l.608-.768a3.736,3.736,0,0,0-2.416-.88c-1.7,0-2.688.96-2.688,2.208,0,1.28,1.12,1.84,2.288,2.256.88.32,1.744.656,1.744,1.456,0,.672-.5,1.2-1.52,1.2a3.411,3.411,0,0,1-2.336-.848l-.608.768A4.131,4.131,0,0,0,246.1,60.192ZM250.776,60H252.1V52.224h-1.328Zm.672-9.376a.827.827,0,0,0,.88-.864.88.88,0,0,0-1.76,0A.827.827,0,0,0,251.448,50.624Zm5.312,9.568c1.84,0,2.848-1.056,2.848-2.32,0-1.408-1.168-1.936-2.384-2.368-.976-.336-1.648-.624-1.648-1.328,0-.576.432-1.12,1.424-1.12a2.9,2.9,0,0,1,1.792.624l.608-.768a3.736,3.736,0,0,0-2.416-.88c-1.7,0-2.688.96-2.688,2.208,0,1.28,1.12,1.84,2.288,2.256.88.32,1.744.656,1.744,1.456,0,.672-.5,1.2-1.52,1.2a3.411,3.411,0,0,1-2.336-.848l-.608.768A4.131,4.131,0,0,0,256.76,60.192Z" transform="translate(1073 2307)"/>
    <path id="Path_1765" data-name="Path 1765" d="M8.968,12H10.84V9.408h.924c1.644,0,3.072-.816,3.072-2.688,0-1.92-1.4-2.532-3.12-2.532H8.968ZM10.84,7.932V5.664h.768c.912,0,1.4.276,1.4,1.056s-.432,1.212-1.356,1.212ZM17.536,12H19.4V5.748H21.52V4.188H15.412v1.56h2.124Zm5.184,0h1.872V8.784h2.58V12h1.86V4.188h-1.86V7.164h-2.58V4.188H22.72Z" transform="translate(1241 1465)"/>
    <path id="Path_1766" data-name="Path 1766" d="M14.828,12.144C16.712,12.144,17.8,11,17.8,9.7a2.14,2.14,0,0,0-1.548-2.124l-.972-.4c-.7-.276-1.188-.432-1.188-.888,0-.408.372-.636.948-.636a2.788,2.788,0,0,1,1.56.576l.972-1.212a3.748,3.748,0,0,0-2.532-.972,2.572,2.572,0,0,0-2.832,2.364A2.272,2.272,0,0,0,13.8,8.544l1,.432c.684.276,1.1.42,1.1.876,0,.42-.324.684-1.032.684A3.118,3.118,0,0,1,12.9,9.792L11.912,11A4.167,4.167,0,0,0,14.828,12.144Zm6.816,0a3.845,3.845,0,0,0,2.148-.672l-.6-1.116a2.589,2.589,0,0,1-1.284.372A1.372,1.372,0,0,1,20.42,9.576h3.516a4.328,4.328,0,0,0,.072-.816c0-1.62-.84-2.868-2.568-2.868a2.933,2.933,0,0,0-2.82,3.12A2.907,2.907,0,0,0,21.644,12.144ZM20.4,8.328A1.1,1.1,0,0,1,21.488,7.3c.672,0,.936.444.936,1.032ZM25.2,12h1.848V8.592a1.462,1.462,0,0,1,1.3-1.08,2.38,2.38,0,0,1,.612.072L29.3,6.012a1.557,1.557,0,0,0-.72-.12,1.992,1.992,0,0,0-1.692,1.176H26.84l-.132-1.032H25.2Zm6.66.144a2.319,2.319,0,0,0,1.86-.96h.048L33.9,12h1.512V6.036h-1.86V9.948a1.135,1.135,0,0,1-1,.612c-.48,0-.7-.24-.7-1.068V6.036H30v3.7C30,11.22,30.548,12.144,31.856,12.144ZM36.92,12h1.848V8a1.5,1.5,0,0,1,.96-.54c.48,0,.7.252.7,1.08V12h1.86V8a1.469,1.469,0,0,1,.96-.54c.468,0,.7.252.7,1.08V12h1.848V8.3c0-1.488-.576-2.412-1.872-2.412a2.589,2.589,0,0,0-1.86.984,1.648,1.648,0,0,0-1.644-.984,2.467,2.467,0,0,0-1.8.888h-.048l-.132-.744H36.92ZM22.81,25.144a3.248,3.248,0,0,0,2.532-1.152l-.972-1.1a1.986,1.986,0,0,1-1.5.648c-1.092,0-1.824-.9-1.824-2.46,0-1.512.828-2.424,1.86-2.424a1.837,1.837,0,0,1,1.344.54l.984-1.128a3.27,3.27,0,0,0-2.376-1.02,3.776,3.776,0,0,0-3.72,4.1C19.138,23.788,20.818,25.144,22.81,25.144Zm5.052,0a2.5,2.5,0,0,0,1.7-.744h.048l.132.6h1.512V21.616c0-1.872-.864-2.724-2.4-2.724a4.853,4.853,0,0,0-2.568.78l.648,1.2a3.19,3.19,0,0,1,1.56-.5.785.785,0,0,1,.912.78c-2.352.24-3.324.924-3.324,2.184A1.729,1.729,0,0,0,27.862,25.144ZM28.5,23.7c-.408,0-.636-.168-.636-.516,0-.42.36-.744,1.548-.9v.948A1.242,1.242,0,0,1,28.5,23.7ZM32.213,21H35.37v-.91h-.952c-.2,0-.511.028-.742.049.749-.728,1.477-1.449,1.477-2.247a1.382,1.382,0,0,0-1.491-1.421,1.823,1.823,0,0,0-1.477.735l.56.56a1.113,1.113,0,0,1,.77-.441.563.563,0,0,1,.6.637c0,.616-.812,1.407-1.9,2.373Zm4.928-.651h.791V19.068h1.232v-.756H37.932V17.031h-.791v1.281H35.916v.756h1.225Z" transform="translate(1288 1452)"/>
    <path id="Path_1767" data-name="Path 1767" d="M18.338,12.144c2.076,0,3.12-1.176,3.12-3.816V4.188H19.67V8.532c0,1.488-.468,2-1.332,2s-1.3-.516-1.3-2V4.188h-1.86v4.14C15.182,10.968,16.262,12.144,18.338,12.144ZM23.078,12h1.848V8.592a1.462,1.462,0,0,1,1.3-1.08,2.38,2.38,0,0,1,.612.072l.348-1.572a1.557,1.557,0,0,0-.72-.12A1.992,1.992,0,0,0,24.77,7.068h-.048L24.59,6.036H23.078Zm4.86,0h1.848V6.036H27.938Zm.924-6.8a.958.958,0,1,0-1.044-.96A.95.95,0,0,0,28.862,5.2ZM31.3,12h1.848V8a1.49,1.49,0,0,1,1.044-.54c.48,0,.7.252.7,1.08V12h1.86V8.3c0-1.488-.552-2.412-1.848-2.412a2.686,2.686,0,0,0-1.908.888h-.048l-.132-.744H31.3Zm9.588.144a3.845,3.845,0,0,0,2.148-.672l-.6-1.116a2.589,2.589,0,0,1-1.284.372,1.372,1.372,0,0,1-1.488-1.152h3.516a4.328,4.328,0,0,0,.072-.816c0-1.62-.84-2.868-2.568-2.868a2.933,2.933,0,0,0-2.82,3.12A2.907,2.907,0,0,0,40.886,12.144ZM39.638,8.328A1.1,1.1,0,0,1,40.73,7.3c.672,0,.936.444.936,1.032ZM22.81,25.144a3.248,3.248,0,0,0,2.532-1.152l-.972-1.1a1.986,1.986,0,0,1-1.5.648c-1.092,0-1.824-.9-1.824-2.46,0-1.512.828-2.424,1.86-2.424a1.837,1.837,0,0,1,1.344.54l.984-1.128a3.27,3.27,0,0,0-2.376-1.02,3.776,3.776,0,0,0-3.72,4.1C19.138,23.788,20.818,25.144,22.81,25.144Zm5.052,0a2.5,2.5,0,0,0,1.7-.744h.048l.132.6h1.512V21.616c0-1.872-.864-2.724-2.4-2.724a4.853,4.853,0,0,0-2.568.78l.648,1.2a3.19,3.19,0,0,1,1.56-.5.785.785,0,0,1,.912.78c-2.352.24-3.324.924-3.324,2.184A1.729,1.729,0,0,0,27.862,25.144ZM28.5,23.7c-.408,0-.636-.168-.636-.516,0-.42.36-.744,1.548-.9v.948A1.242,1.242,0,0,1,28.5,23.7ZM32.213,21H35.37v-.91h-.952c-.2,0-.511.028-.742.049.749-.728,1.477-1.449,1.477-2.247a1.382,1.382,0,0,0-1.491-1.421,1.823,1.823,0,0,0-1.477.735l.56.56a1.113,1.113,0,0,1,.77-.441.563.563,0,0,1,.6.637c0,.616-.812,1.407-1.9,2.373Zm4.928-.651h.791V19.068h1.232v-.756H37.932V17.031h-.791v1.281H35.916v.756h1.225Z" transform="translate(1344 1452)"/>
    <path id="Path_1768" data-name="Path 1768" d="M8.968,12H10.84V9.408h.924c1.644,0,3.072-.816,3.072-2.688,0-1.92-1.4-2.532-3.12-2.532H8.968ZM10.84,7.932V5.664h.768c.912,0,1.4.276,1.4,1.056s-.432,1.212-1.356,1.212ZM17.536,12H19.4V5.748H21.52V4.188H15.412v1.56h2.124Zm5.184,0h1.872V8.784h2.58V12h1.86V4.188h-1.86V7.164h-2.58V4.188H22.72Z" transform="translate(1241 1762)"/>
    <path id="Path_1769" data-name="Path 1769" d="M14.828,12.144C16.712,12.144,17.8,11,17.8,9.7a2.14,2.14,0,0,0-1.548-2.124l-.972-.4c-.7-.276-1.188-.432-1.188-.888,0-.408.372-.636.948-.636a2.788,2.788,0,0,1,1.56.576l.972-1.212a3.748,3.748,0,0,0-2.532-.972,2.572,2.572,0,0,0-2.832,2.364A2.272,2.272,0,0,0,13.8,8.544l1,.432c.684.276,1.1.42,1.1.876,0,.42-.324.684-1.032.684A3.118,3.118,0,0,1,12.9,9.792L11.912,11A4.167,4.167,0,0,0,14.828,12.144Zm6.816,0a3.845,3.845,0,0,0,2.148-.672l-.6-1.116a2.589,2.589,0,0,1-1.284.372A1.372,1.372,0,0,1,20.42,9.576h3.516a4.328,4.328,0,0,0,.072-.816c0-1.62-.84-2.868-2.568-2.868a2.933,2.933,0,0,0-2.82,3.12A2.907,2.907,0,0,0,21.644,12.144ZM20.4,8.328A1.1,1.1,0,0,1,21.488,7.3c.672,0,.936.444.936,1.032ZM25.2,12h1.848V8.592a1.462,1.462,0,0,1,1.3-1.08,2.38,2.38,0,0,1,.612.072L29.3,6.012a1.557,1.557,0,0,0-.72-.12,1.992,1.992,0,0,0-1.692,1.176H26.84l-.132-1.032H25.2Zm6.66.144a2.319,2.319,0,0,0,1.86-.96h.048L33.9,12h1.512V6.036h-1.86V9.948a1.135,1.135,0,0,1-1,.612c-.48,0-.7-.24-.7-1.068V6.036H30v3.7C30,11.22,30.548,12.144,31.856,12.144ZM36.92,12h1.848V8a1.5,1.5,0,0,1,.96-.54c.48,0,.7.252.7,1.08V12h1.86V8a1.469,1.469,0,0,1,.96-.54c.468,0,.7.252.7,1.08V12h1.848V8.3c0-1.488-.576-2.412-1.872-2.412a2.589,2.589,0,0,0-1.86.984,1.648,1.648,0,0,0-1.644-.984,2.467,2.467,0,0,0-1.8.888h-.048l-.132-.744H36.92ZM22.81,25.144a3.248,3.248,0,0,0,2.532-1.152l-.972-1.1a1.986,1.986,0,0,1-1.5.648c-1.092,0-1.824-.9-1.824-2.46,0-1.512.828-2.424,1.86-2.424a1.837,1.837,0,0,1,1.344.54l.984-1.128a3.27,3.27,0,0,0-2.376-1.02,3.776,3.776,0,0,0-3.72,4.1C19.138,23.788,20.818,25.144,22.81,25.144Zm5.052,0a2.5,2.5,0,0,0,1.7-.744h.048l.132.6h1.512V21.616c0-1.872-.864-2.724-2.4-2.724a4.853,4.853,0,0,0-2.568.78l.648,1.2a3.19,3.19,0,0,1,1.56-.5.785.785,0,0,1,.912.78c-2.352.24-3.324.924-3.324,2.184A1.729,1.729,0,0,0,27.862,25.144ZM28.5,23.7c-.408,0-.636-.168-.636-.516,0-.42.36-.744,1.548-.9v.948A1.242,1.242,0,0,1,28.5,23.7ZM32.213,21H35.37v-.91h-.952c-.2,0-.511.028-.742.049.749-.728,1.477-1.449,1.477-2.247a1.382,1.382,0,0,0-1.491-1.421,1.823,1.823,0,0,0-1.477.735l.56.56a1.113,1.113,0,0,1,.77-.441.563.563,0,0,1,.6.637c0,.616-.812,1.407-1.9,2.373Zm4.928-.651h.791V19.068h1.232v-.756H37.932V17.031h-.791v1.281H35.916v.756h1.225Z" transform="translate(1288 1749)"/>
    <path id="Path_1770" data-name="Path 1770" d="M18.338,12.144c2.076,0,3.12-1.176,3.12-3.816V4.188H19.67V8.532c0,1.488-.468,2-1.332,2s-1.3-.516-1.3-2V4.188h-1.86v4.14C15.182,10.968,16.262,12.144,18.338,12.144ZM23.078,12h1.848V8.592a1.462,1.462,0,0,1,1.3-1.08,2.38,2.38,0,0,1,.612.072l.348-1.572a1.557,1.557,0,0,0-.72-.12A1.992,1.992,0,0,0,24.77,7.068h-.048L24.59,6.036H23.078Zm4.86,0h1.848V6.036H27.938Zm.924-6.8a.958.958,0,1,0-1.044-.96A.95.95,0,0,0,28.862,5.2ZM31.3,12h1.848V8a1.49,1.49,0,0,1,1.044-.54c.48,0,.7.252.7,1.08V12h1.86V8.3c0-1.488-.552-2.412-1.848-2.412a2.686,2.686,0,0,0-1.908.888h-.048l-.132-.744H31.3Zm9.588.144a3.845,3.845,0,0,0,2.148-.672l-.6-1.116a2.589,2.589,0,0,1-1.284.372,1.372,1.372,0,0,1-1.488-1.152h3.516a4.328,4.328,0,0,0,.072-.816c0-1.62-.84-2.868-2.568-2.868a2.933,2.933,0,0,0-2.82,3.12A2.907,2.907,0,0,0,40.886,12.144ZM39.638,8.328A1.1,1.1,0,0,1,40.73,7.3c.672,0,.936.444.936,1.032ZM22.81,25.144a3.248,3.248,0,0,0,2.532-1.152l-.972-1.1a1.986,1.986,0,0,1-1.5.648c-1.092,0-1.824-.9-1.824-2.46,0-1.512.828-2.424,1.86-2.424a1.837,1.837,0,0,1,1.344.54l.984-1.128a3.27,3.27,0,0,0-2.376-1.02,3.776,3.776,0,0,0-3.72,4.1C19.138,23.788,20.818,25.144,22.81,25.144Zm5.052,0a2.5,2.5,0,0,0,1.7-.744h.048l.132.6h1.512V21.616c0-1.872-.864-2.724-2.4-2.724a4.853,4.853,0,0,0-2.568.78l.648,1.2a3.19,3.19,0,0,1,1.56-.5.785.785,0,0,1,.912.78c-2.352.24-3.324.924-3.324,2.184A1.729,1.729,0,0,0,27.862,25.144ZM28.5,23.7c-.408,0-.636-.168-.636-.516,0-.42.36-.744,1.548-.9v.948A1.242,1.242,0,0,1,28.5,23.7ZM32.213,21H35.37v-.91h-.952c-.2,0-.511.028-.742.049.749-.728,1.477-1.449,1.477-2.247a1.382,1.382,0,0,0-1.491-1.421,1.823,1.823,0,0,0-1.477.735l.56.56a1.113,1.113,0,0,1,.77-.441.563.563,0,0,1,.6.637c0,.616-.812,1.407-1.9,2.373Zm4.928-.651h.791V19.068h1.232v-.756H37.932V17.031h-.791v1.281H35.916v.756h1.225Z" transform="translate(1344 1749)"/>
    <path id="Path_1771" data-name="Path 1771" d="M8.968,12H10.84V9.408h.924c1.644,0,3.072-.816,3.072-2.688,0-1.92-1.4-2.532-3.12-2.532H8.968ZM10.84,7.932V5.664h.768c.912,0,1.4.276,1.4,1.056s-.432,1.212-1.356,1.212ZM17.536,12H19.4V5.748H21.52V4.188H15.412v1.56h2.124Zm5.184,0h1.872V8.784h2.58V12h1.86V4.188h-1.86V7.164h-2.58V4.188H22.72Z" transform="translate(1241 2063)"/>
    <path id="Path_1772" data-name="Path 1772" d="M14.828,12.144C16.712,12.144,17.8,11,17.8,9.7a2.14,2.14,0,0,0-1.548-2.124l-.972-.4c-.7-.276-1.188-.432-1.188-.888,0-.408.372-.636.948-.636a2.788,2.788,0,0,1,1.56.576l.972-1.212a3.748,3.748,0,0,0-2.532-.972,2.572,2.572,0,0,0-2.832,2.364A2.272,2.272,0,0,0,13.8,8.544l1,.432c.684.276,1.1.42,1.1.876,0,.42-.324.684-1.032.684A3.118,3.118,0,0,1,12.9,9.792L11.912,11A4.167,4.167,0,0,0,14.828,12.144Zm6.816,0a3.845,3.845,0,0,0,2.148-.672l-.6-1.116a2.589,2.589,0,0,1-1.284.372A1.372,1.372,0,0,1,20.42,9.576h3.516a4.328,4.328,0,0,0,.072-.816c0-1.62-.84-2.868-2.568-2.868a2.933,2.933,0,0,0-2.82,3.12A2.907,2.907,0,0,0,21.644,12.144ZM20.4,8.328A1.1,1.1,0,0,1,21.488,7.3c.672,0,.936.444.936,1.032ZM25.2,12h1.848V8.592a1.462,1.462,0,0,1,1.3-1.08,2.38,2.38,0,0,1,.612.072L29.3,6.012a1.557,1.557,0,0,0-.72-.12,1.992,1.992,0,0,0-1.692,1.176H26.84l-.132-1.032H25.2Zm6.66.144a2.319,2.319,0,0,0,1.86-.96h.048L33.9,12h1.512V6.036h-1.86V9.948a1.135,1.135,0,0,1-1,.612c-.48,0-.7-.24-.7-1.068V6.036H30v3.7C30,11.22,30.548,12.144,31.856,12.144ZM36.92,12h1.848V8a1.5,1.5,0,0,1,.96-.54c.48,0,.7.252.7,1.08V12h1.86V8a1.469,1.469,0,0,1,.96-.54c.468,0,.7.252.7,1.08V12h1.848V8.3c0-1.488-.576-2.412-1.872-2.412a2.589,2.589,0,0,0-1.86.984,1.648,1.648,0,0,0-1.644-.984,2.467,2.467,0,0,0-1.8.888h-.048l-.132-.744H36.92ZM22.81,25.144a3.248,3.248,0,0,0,2.532-1.152l-.972-1.1a1.986,1.986,0,0,1-1.5.648c-1.092,0-1.824-.9-1.824-2.46,0-1.512.828-2.424,1.86-2.424a1.837,1.837,0,0,1,1.344.54l.984-1.128a3.27,3.27,0,0,0-2.376-1.02,3.776,3.776,0,0,0-3.72,4.1C19.138,23.788,20.818,25.144,22.81,25.144Zm5.052,0a2.5,2.5,0,0,0,1.7-.744h.048l.132.6h1.512V21.616c0-1.872-.864-2.724-2.4-2.724a4.853,4.853,0,0,0-2.568.78l.648,1.2a3.19,3.19,0,0,1,1.56-.5.785.785,0,0,1,.912.78c-2.352.24-3.324.924-3.324,2.184A1.729,1.729,0,0,0,27.862,25.144ZM28.5,23.7c-.408,0-.636-.168-.636-.516,0-.42.36-.744,1.548-.9v.948A1.242,1.242,0,0,1,28.5,23.7ZM32.213,21H35.37v-.91h-.952c-.2,0-.511.028-.742.049.749-.728,1.477-1.449,1.477-2.247a1.382,1.382,0,0,0-1.491-1.421,1.823,1.823,0,0,0-1.477.735l.56.56a1.113,1.113,0,0,1,.77-.441.563.563,0,0,1,.6.637c0,.616-.812,1.407-1.9,2.373Zm4.928-.651h.791V19.068h1.232v-.756H37.932V17.031h-.791v1.281H35.916v.756h1.225Z" transform="translate(1288 2050)"/>
    <path id="Path_1773" data-name="Path 1773" d="M18.338,12.144c2.076,0,3.12-1.176,3.12-3.816V4.188H19.67V8.532c0,1.488-.468,2-1.332,2s-1.3-.516-1.3-2V4.188h-1.86v4.14C15.182,10.968,16.262,12.144,18.338,12.144ZM23.078,12h1.848V8.592a1.462,1.462,0,0,1,1.3-1.08,2.38,2.38,0,0,1,.612.072l.348-1.572a1.557,1.557,0,0,0-.72-.12A1.992,1.992,0,0,0,24.77,7.068h-.048L24.59,6.036H23.078Zm4.86,0h1.848V6.036H27.938Zm.924-6.8a.958.958,0,1,0-1.044-.96A.95.95,0,0,0,28.862,5.2ZM31.3,12h1.848V8a1.49,1.49,0,0,1,1.044-.54c.48,0,.7.252.7,1.08V12h1.86V8.3c0-1.488-.552-2.412-1.848-2.412a2.686,2.686,0,0,0-1.908.888h-.048l-.132-.744H31.3Zm9.588.144a3.845,3.845,0,0,0,2.148-.672l-.6-1.116a2.589,2.589,0,0,1-1.284.372,1.372,1.372,0,0,1-1.488-1.152h3.516a4.328,4.328,0,0,0,.072-.816c0-1.62-.84-2.868-2.568-2.868a2.933,2.933,0,0,0-2.82,3.12A2.907,2.907,0,0,0,40.886,12.144ZM39.638,8.328A1.1,1.1,0,0,1,40.73,7.3c.672,0,.936.444.936,1.032ZM22.81,25.144a3.248,3.248,0,0,0,2.532-1.152l-.972-1.1a1.986,1.986,0,0,1-1.5.648c-1.092,0-1.824-.9-1.824-2.46,0-1.512.828-2.424,1.86-2.424a1.837,1.837,0,0,1,1.344.54l.984-1.128a3.27,3.27,0,0,0-2.376-1.02,3.776,3.776,0,0,0-3.72,4.1C19.138,23.788,20.818,25.144,22.81,25.144Zm5.052,0a2.5,2.5,0,0,0,1.7-.744h.048l.132.6h1.512V21.616c0-1.872-.864-2.724-2.4-2.724a4.853,4.853,0,0,0-2.568.78l.648,1.2a3.19,3.19,0,0,1,1.56-.5.785.785,0,0,1,.912.78c-2.352.24-3.324.924-3.324,2.184A1.729,1.729,0,0,0,27.862,25.144ZM28.5,23.7c-.408,0-.636-.168-.636-.516,0-.42.36-.744,1.548-.9v.948A1.242,1.242,0,0,1,28.5,23.7ZM32.213,21H35.37v-.91h-.952c-.2,0-.511.028-.742.049.749-.728,1.477-1.449,1.477-2.247a1.382,1.382,0,0,0-1.491-1.421,1.823,1.823,0,0,0-1.477.735l.56.56a1.113,1.113,0,0,1,.77-.441.563.563,0,0,1,.6.637c0,.616-.812,1.407-1.9,2.373Zm4.928-.651h.791V19.068h1.232v-.756H37.932V17.031h-.791v1.281H35.916v.756h1.225Z" transform="translate(1344 2050)"/>
    <path id="Path_1774" data-name="Path 1774" d="M-19.943-3.459h-3.846v2.036h4.383V0h-6V-7.917H-19.6v1.4h-4.189v1.681h3.846Zm4.458-1.262a1.066,1.066,0,0,0-1.069.661,2.269,2.269,0,0,0-.15.892V0h-1.525V-5.844h1.477v.854a2.6,2.6,0,0,1,.559-.65A1.941,1.941,0,0,1-15-5.994a2.26,2.26,0,0,1,1.485.475,1.933,1.933,0,0,1,.577,1.576V0H-14.5V-3.561a1.625,1.625,0,0,0-.124-.709A.869.869,0,0,0-15.485-4.721Zm9.029.967H-8.024a1.358,1.358,0,0,0-.22-.591.923.923,0,0,0-.8-.354,1.054,1.054,0,0,0-1.058.768,3.211,3.211,0,0,0-.15,1.085A2.953,2.953,0,0,0-10.1-1.81a1.021,1.021,0,0,0,1.031.73.909.909,0,0,0,.763-.29,1.444,1.444,0,0,0,.274-.752h1.563A2.561,2.561,0,0,1-6.977-.8,2.454,2.454,0,0,1-9.109.2a2.494,2.494,0,0,1-2.079-.838,3.39,3.39,0,0,1-.666-2.175,3.44,3.44,0,0,1,.736-2.347,2.561,2.561,0,0,1,2.03-.838,3.057,3.057,0,0,1,1.8.494A2.3,2.3,0,0,1-6.456-3.754Zm1.273-1.466A2.5,2.5,0,0,1-3.1-5.994a3.7,3.7,0,0,1,1.708.381A1.464,1.464,0,0,1-.645-4.173v2.686q0,.279.011.677A.851.851,0,0,0-.542-.4a.549.549,0,0,0,.226.177V0H-1.982a1.7,1.7,0,0,1-.1-.333q-.027-.156-.043-.354a3.145,3.145,0,0,1-.73.585A2.2,2.2,0,0,1-3.969.183,1.921,1.921,0,0,1-5.282-.271,1.619,1.619,0,0,1-5.8-1.558a1.67,1.67,0,0,1,.833-1.563A3.7,3.7,0,0,1-3.625-3.5l.521-.064A2.389,2.389,0,0,0-2.5-3.7.46.46,0,0,0-2.17-4.13a.516.516,0,0,0-.25-.5,1.56,1.56,0,0,0-.733-.137.955.955,0,0,0-.768.269,1.116,1.116,0,0,0-.215.537H-5.613A2.246,2.246,0,0,1-5.183-5.221Zm1.139,4.114a.8.8,0,0,0,.526.177,1.559,1.559,0,0,0,.91-.29,1.237,1.237,0,0,0,.432-1.058v-.569a1.663,1.663,0,0,1-.293.148,2.448,2.448,0,0,1-.406.1l-.344.064a2.22,2.22,0,0,0-.693.209.7.7,0,0,0-.354.65A.672.672,0,0,0-4.044-1.106ZM.747-7.917H2.277V0H.747Zm8.035,6.2A1.942,1.942,0,0,1,8.239-.661,2.658,2.658,0,0,1,6.134.193a2.969,2.969,0,0,1-1.971-.72,2.9,2.9,0,0,1-.854-2.342A3.255,3.255,0,0,1,4.079-5.2a2.635,2.635,0,0,1,2-.811A3.068,3.068,0,0,1,7.4-5.736a2.305,2.305,0,0,1,.967.865,2.95,2.95,0,0,1,.446,1.208A7.8,7.8,0,0,1,8.857-2.5H4.85A1.455,1.455,0,0,0,5.4-1.268a1.3,1.3,0,0,0,.763.22,1.1,1.1,0,0,0,.768-.269,1.276,1.276,0,0,0,.285-.4ZM7.267-3.513A1.333,1.333,0,0,0,6.9-4.434a1.142,1.142,0,0,0-.819-.314,1.04,1.04,0,0,0-.824.333,1.662,1.662,0,0,0-.368.9Zm5.564-.929a1.27,1.27,0,0,0-1.241.6A2.34,2.34,0,0,0,11.414-2.8V0H9.872V-5.854h1.461v1.021a3.236,3.236,0,0,1,.618-.8,1.682,1.682,0,0,1,1.117-.36q.043,0,.073,0l.132.008v1.568q-.145-.016-.258-.021T12.832-4.442ZM19.18-1.719a1.942,1.942,0,0,1-.542,1.058,2.658,2.658,0,0,1-2.105.854,2.969,2.969,0,0,1-1.971-.72,2.9,2.9,0,0,1-.854-2.342A3.255,3.255,0,0,1,14.478-5.2a2.635,2.635,0,0,1,2-.811,3.068,3.068,0,0,1,1.316.274,2.305,2.305,0,0,1,.967.865,2.95,2.95,0,0,1,.446,1.208,7.8,7.8,0,0,1,.048,1.16H15.249A1.455,1.455,0,0,0,15.8-1.268a1.3,1.3,0,0,0,.763.22,1.1,1.1,0,0,0,.768-.269,1.276,1.276,0,0,0,.285-.4ZM17.666-3.513a1.333,1.333,0,0,0-.368-.921,1.142,1.142,0,0,0-.819-.314,1.04,1.04,0,0,0-.824.333,1.662,1.662,0,0,0-.368.9Zm5.3,2.422V.054l-.725.027A1.946,1.946,0,0,1,20.759-.3a1.119,1.119,0,0,1-.258-.811v-3.6h-.816V-5.8H20.5V-7.434h1.515V-5.8h.951v1.09h-.951v3.094a.7.7,0,0,0,.091.448,1,1,0,0,0,.559.089l.148,0Z" transform="translate(1109 2229)" fill="#fff"/>
    <path id="Path_1775" data-name="Path 1775" d="M-40.594,0H-43l-4.7-8.18V0h-2.242V-11.516h2.523l4.586,8.039v-8.039h2.242Zm9.164-7.437a4.969,4.969,0,0,1,1.078,3.2A4.936,4.936,0,0,1-31.43-1.035,3.961,3.961,0,0,1-34.7.3a3.961,3.961,0,0,1-3.273-1.332,4.936,4.936,0,0,1-1.078-3.207,4.969,4.969,0,0,1,1.078-3.2A3.934,3.934,0,0,1-34.7-8.789,3.934,3.934,0,0,1-31.43-7.437Zm-3.281.531a1.779,1.779,0,0,0-1.5.691,3.2,3.2,0,0,0-.527,1.973,3.217,3.217,0,0,0,.527,1.977,1.775,1.775,0,0,0,1.5.7,1.765,1.765,0,0,0,1.5-.7,3.235,3.235,0,0,0,.523-1.977,3.217,3.217,0,0,0-.523-1.973A1.769,1.769,0,0,0-34.711-6.906Zm10.234.445a1.847,1.847,0,0,0-1.8.875,3.4,3.4,0,0,0-.258,1.516V0h-2.242V-8.516h2.125v1.484a4.707,4.707,0,0,1,.9-1.164,2.446,2.446,0,0,1,1.625-.523q.062,0,.105,0l.191.012v2.281q-.211-.023-.375-.031T-24.477-6.461Zm6.727.289a1.091,1.091,0,0,0-1.1-.617,1.315,1.315,0,0,0-1.281.617,2.378,2.378,0,0,0-.18,1.047V0H-22.57V-8.5h2.164v1.242a3.583,3.583,0,0,1,.781-.945,2.673,2.673,0,0,1,1.68-.5,2.657,2.657,0,0,1,1.578.43,2.5,2.5,0,0,1,.734,1.023,2.831,2.831,0,0,1,1.086-1.1A3.314,3.314,0,0,1-13.016-8.7a2.964,2.964,0,0,1,1.109.219,2.475,2.475,0,0,1,.992.766,2.446,2.446,0,0,1,.484,1.094,7.56,7.56,0,0,1,.078,1.258L-10.367,0h-2.281V-5.422a1.78,1.78,0,0,0-.156-.8A1.11,1.11,0,0,0-13.9-6.812a1.28,1.28,0,0,0-1.273.766,2.4,2.4,0,0,0-.18.977V0h-2.242V-5.07A2.848,2.848,0,0,0-17.75-6.172Zm9.766-1.422A3.636,3.636,0,0,1-4.953-8.719a5.385,5.385,0,0,1,2.484.555A2.13,2.13,0,0,1-1.383-6.07v3.906q0,.406.016.984a1.238,1.238,0,0,0,.133.594.8.8,0,0,0,.328.258V0H-3.328a2.48,2.48,0,0,1-.141-.484Q-3.508-.711-3.531-1a4.575,4.575,0,0,1-1.062.852A3.2,3.2,0,0,1-6.219.266a2.794,2.794,0,0,1-1.91-.66,2.355,2.355,0,0,1-.754-1.871A2.429,2.429,0,0,1-7.672-4.539a5.377,5.377,0,0,1,1.953-.547l.758-.094a3.475,3.475,0,0,0,.883-.2A.669.669,0,0,0-3.6-6.008a.751.751,0,0,0-.363-.723,2.269,2.269,0,0,0-1.066-.2,1.389,1.389,0,0,0-1.117.391,1.624,1.624,0,0,0-.312.781H-8.609A3.268,3.268,0,0,1-7.984-7.594Zm1.656,5.984a1.163,1.163,0,0,0,.766.258,2.268,2.268,0,0,0,1.324-.422,1.8,1.8,0,0,0,.629-1.539v-.828a2.42,2.42,0,0,1-.426.215,3.561,3.561,0,0,1-.59.152l-.5.094a3.229,3.229,0,0,0-1.008.3,1.021,1.021,0,0,0-.516.945A.978.978,0,0,0-6.328-1.609ZM.641-11.516H2.867V0H.641ZM17.789-.859a4.694,4.694,0,0,1-3.3,1.18,4.967,4.967,0,0,1-3.906-1.594A6.379,6.379,0,0,1,9.164-5.664a6.324,6.324,0,0,1,1.617-4.648,4.819,4.819,0,0,1,3.578-1.422,4.839,4.839,0,0,1,4.25,1.906,4.127,4.127,0,0,1,.8,2.148H17a3.25,3.25,0,0,0-.6-1.25,2.447,2.447,0,0,0-1.945-.75,2.412,2.412,0,0,0-2.07,1.059,5.089,5.089,0,0,0-.758,3,4.467,4.467,0,0,0,.8,2.9,2.53,2.53,0,0,0,2.035.965,2.328,2.328,0,0,0,1.93-.828A3.6,3.6,0,0,0,17-3.922h2.383A5.179,5.179,0,0,1,17.789-.859Zm3.57-6.734a3.636,3.636,0,0,1,3.031-1.125,5.385,5.385,0,0,1,2.484.555A2.13,2.13,0,0,1,27.961-6.07v3.906q0,.406.016.984a1.238,1.238,0,0,0,.133.594.8.8,0,0,0,.328.258V0H26.016a2.48,2.48,0,0,1-.141-.484Q25.836-.711,25.813-1a4.575,4.575,0,0,1-1.062.852,3.2,3.2,0,0,1-1.625.414,2.794,2.794,0,0,1-1.91-.66,2.355,2.355,0,0,1-.754-1.871,2.429,2.429,0,0,1,1.211-2.273,5.377,5.377,0,0,1,1.953-.547l.758-.094a3.475,3.475,0,0,0,.883-.2.669.669,0,0,0,.477-.633.751.751,0,0,0-.363-.723,2.269,2.269,0,0,0-1.066-.2,1.389,1.389,0,0,0-1.117.391,1.624,1.624,0,0,0-.312.781H20.734A3.268,3.268,0,0,1,21.359-7.594Zm1.656,5.984a1.163,1.163,0,0,0,.766.258,2.268,2.268,0,0,0,1.324-.422,1.8,1.8,0,0,0,.629-1.539v-.828a2.42,2.42,0,0,1-.426.215,3.561,3.561,0,0,1-.59.152l-.5.094a3.229,3.229,0,0,0-1.008.3,1.021,1.021,0,0,0-.516.945A.978.978,0,0,0,23.016-1.609ZM34.3-1.664a4.237,4.237,0,0,0,1.383-.187,1.336,1.336,0,0,0,1.008-1.336.986.986,0,0,0-.5-.883,5.377,5.377,0,0,0-1.57-.539L33.4-4.883a7.7,7.7,0,0,1-2.484-.883A2.808,2.808,0,0,1,29.75-8.258a3.328,3.328,0,0,1,1.125-2.57,4.757,4.757,0,0,1,3.3-1.023,5.024,5.024,0,0,1,3.105.965,3.445,3.445,0,0,1,1.348,2.8H36.32a1.652,1.652,0,0,0-.906-1.477,3.039,3.039,0,0,0-1.4-.289,2.611,2.611,0,0,0-1.484.375,1.194,1.194,0,0,0-.555,1.047.991.991,0,0,0,.547.922,6.694,6.694,0,0,0,1.5.477l1.984.477a5.13,5.13,0,0,1,1.969.836,2.816,2.816,0,0,1,1.031,2.352A3.319,3.319,0,0,1,37.8-.746,5.057,5.057,0,0,1,34.391.3,5.531,5.531,0,0,1,30.852-.73a3.414,3.414,0,0,1-1.289-2.824h2.3a2.365,2.365,0,0,0,.43,1.18A2.472,2.472,0,0,0,34.3-1.664ZM45.68-4.516H43.2V0H40.844V-11.516h5.648a5.262,5.262,0,0,1,1.863.3,2.911,2.911,0,0,1,1.105.8,3.565,3.565,0,0,1,.594.969,3.157,3.157,0,0,1,.219,1.211,3.45,3.45,0,0,1-.414,1.613A2.314,2.314,0,0,1,48.492-5.5a2.15,2.15,0,0,1,1.129.91,3.789,3.789,0,0,1,.332,1.8v.773a5.916,5.916,0,0,0,.063,1.07.961.961,0,0,0,.438.656V0H47.8q-.109-.383-.156-.617a5.67,5.67,0,0,1-.1-.992l-.016-1.07a2.091,2.091,0,0,0-.4-1.469A2.135,2.135,0,0,0,45.68-4.516Zm1.461-2.094a1.283,1.283,0,0,0,.719-1.3,1.431,1.431,0,0,0-.7-1.406,2.628,2.628,0,0,0-1.172-.2H43.2v3.094h2.727A3.039,3.039,0,0,0,47.141-6.609Z" transform="translate(1108 1464)" fill="#a13f8d"/>
    <path id="Path_1776" data-name="Path 1776" d="M-13.82-2.367h-4.242L-18.859,0h-2.516l4.109-11.516h2.719L-10.469,0h-2.609Zm-.672-1.984L-15.93-8.883l-1.484,4.531ZM-4.047,0H-9.008V-11.516h4.961a6.053,6.053,0,0,1,1.781.25A3.8,3.8,0,0,1-.3-9.8a5.125,5.125,0,0,1,.82,1.859A8.926,8.926,0,0,1,.734-6.039,7.654,7.654,0,0,1-.187-2.148,4.16,4.16,0,0,1-4.047,0Zm1.789-8.578a2.339,2.339,0,0,0-2.2-.937H-6.672V-2h2.219A2.4,2.4,0,0,0-2.078-3.68a5.924,5.924,0,0,0,.367-2.2A5.46,5.46,0,0,0-2.258-8.578ZM9.414,0V-5.141h-4.5V0H2.531V-11.516H4.914v4.391h4.5v-4.391H11.8V0Zm9.523,0H16.656V-7.812H13.992V-9.328a9.869,9.869,0,0,0,1.477-.141,2.083,2.083,0,0,0,1.094-.594A1.955,1.955,0,0,0,17-10.875a1.865,1.865,0,0,0,.086-.453h1.852Z" transform="translate(1108 1777)" fill="#a13f8d"/>
    <path id="Path_1777" data-name="Path 1777" d="M-22.937-2.367H-27.18L-27.977,0h-2.516l4.109-11.516h2.719L-19.586,0H-22.2Zm-.672-1.984-1.437-4.531-1.484,4.531ZM-13.164,0h-4.961V-11.516h4.961a6.053,6.053,0,0,1,1.781.25A3.8,3.8,0,0,1-9.422-9.8,5.125,5.125,0,0,1-8.6-7.945a8.926,8.926,0,0,1,.219,1.906A7.654,7.654,0,0,1-9.3-2.148,4.16,4.16,0,0,1-13.164,0Zm1.789-8.578a2.339,2.339,0,0,0-2.2-.937h-2.219V-2h2.219A2.4,2.4,0,0,0-11.2-3.68a5.924,5.924,0,0,0,.367-2.2A5.46,5.46,0,0,0-11.375-8.578ZM.3,0V-5.141H-4.2V0H-6.586V-11.516H-4.2v4.391H.3v-4.391H2.688V0ZM9.82,0H7.539V-7.812H4.875V-9.328a9.869,9.869,0,0,0,1.477-.141,2.083,2.083,0,0,0,1.094-.594,1.955,1.955,0,0,0,.438-.812,1.865,1.865,0,0,0,.086-.453H9.82ZM22.938-3.219V0H20.883V-3.219h-3.2V-5.258h3.2v-3.2h2.055v3.2h3.2v2.039ZM-26.8,13.5a2.824,2.824,0,0,1-.789,1.539,3.866,3.866,0,0,1-3.062,1.242,4.318,4.318,0,0,1-2.867-1.047,4.222,4.222,0,0,1-1.242-3.406,4.734,4.734,0,0,1,1.121-3.391,3.833,3.833,0,0,1,2.91-1.18,4.463,4.463,0,0,1,1.914.4,3.353,3.353,0,0,1,1.406,1.258,4.292,4.292,0,0,1,.648,1.758,11.352,11.352,0,0,1,.07,1.688h-5.828a2.116,2.116,0,0,0,.8,1.8,1.9,1.9,0,0,0,1.109.32,1.6,1.6,0,0,0,1.117-.391,1.855,1.855,0,0,0,.414-.586Zm-2.2-2.609a1.938,1.938,0,0,0-.535-1.34,1.662,1.662,0,0,0-1.191-.457,1.512,1.512,0,0,0-1.2.484,2.418,2.418,0,0,0-.535,1.313Zm7.82-1.758a1.55,1.55,0,0,0-1.555.961,3.3,3.3,0,0,0-.219,1.3V16H-25.18V7.5h2.148V8.742a3.78,3.78,0,0,1,.813-.945,2.824,2.824,0,0,1,1.742-.516,3.287,3.287,0,0,1,2.16.691,2.811,2.811,0,0,1,.84,2.293V16h-2.281V10.82a2.364,2.364,0,0,0-.18-1.031A1.264,1.264,0,0,0-21.187,9.133Zm13.133,1.406h-2.281a1.976,1.976,0,0,0-.32-.859,1.343,1.343,0,0,0-1.164-.516,1.533,1.533,0,0,0-1.539,1.117,4.671,4.671,0,0,0-.219,1.578,4.3,4.3,0,0,0,.219,1.508,1.486,1.486,0,0,0,1.5,1.063,1.323,1.323,0,0,0,1.109-.422,2.1,2.1,0,0,0,.4-1.094h2.273a3.725,3.725,0,0,1-.734,1.922,3.57,3.57,0,0,1-3.1,1.461,3.628,3.628,0,0,1-3.023-1.219,4.932,4.932,0,0,1-.969-3.164A5,5,0,0,1-14.836,8.5a3.726,3.726,0,0,1,2.953-1.219A4.447,4.447,0,0,1-9.262,8,3.343,3.343,0,0,1-8.055,10.539ZM-6.2,8.406A3.636,3.636,0,0,1-3.172,7.281a5.385,5.385,0,0,1,2.484.555A2.13,2.13,0,0,1,.4,9.93v3.906q0,.406.016.984a1.238,1.238,0,0,0,.133.594.8.8,0,0,0,.328.258V16H-1.547a2.48,2.48,0,0,1-.141-.484q-.039-.227-.062-.516a4.575,4.575,0,0,1-1.062.852,3.2,3.2,0,0,1-1.625.414,2.794,2.794,0,0,1-1.91-.66A2.355,2.355,0,0,1-7.1,13.734a2.429,2.429,0,0,1,1.211-2.273,5.377,5.377,0,0,1,1.953-.547l.758-.094a3.475,3.475,0,0,0,.883-.2.669.669,0,0,0,.477-.633.751.751,0,0,0-.363-.723,2.269,2.269,0,0,0-1.066-.2,1.389,1.389,0,0,0-1.117.391,1.624,1.624,0,0,0-.312.781H-6.828A3.268,3.268,0,0,1-6.2,8.406Zm1.656,5.984a1.163,1.163,0,0,0,.766.258,2.268,2.268,0,0,0,1.324-.422,1.8,1.8,0,0,0,.629-1.539v-.828a2.42,2.42,0,0,1-.426.215,3.561,3.561,0,0,1-.59.152l-.5.094a3.229,3.229,0,0,0-1.008.3,1.021,1.021,0,0,0-.516.945A.978.978,0,0,0-4.547,14.391ZM2.422,4.484H4.648V16H2.422ZM14.109,13.5a2.824,2.824,0,0,1-.789,1.539,3.866,3.866,0,0,1-3.062,1.242,4.318,4.318,0,0,1-2.867-1.047,4.222,4.222,0,0,1-1.242-3.406A4.734,4.734,0,0,1,7.27,8.438a3.833,3.833,0,0,1,2.91-1.18,4.463,4.463,0,0,1,1.914.4A3.353,3.353,0,0,1,13.5,8.914a4.292,4.292,0,0,1,.648,1.758,11.352,11.352,0,0,1,.07,1.688H8.391a2.116,2.116,0,0,0,.8,1.8,1.9,1.9,0,0,0,1.109.32,1.6,1.6,0,0,0,1.117-.391,1.855,1.855,0,0,0,.414-.586Zm-2.2-2.609a1.938,1.938,0,0,0-.535-1.34,1.662,1.662,0,0,0-1.191-.457,1.512,1.512,0,0,0-1.2.484,2.418,2.418,0,0,0-.535,1.313ZM20,9.539a1.847,1.847,0,0,0-1.8.875,3.4,3.4,0,0,0-.258,1.516V16H15.7V7.484H17.82V8.969a4.707,4.707,0,0,1,.9-1.164,2.446,2.446,0,0,1,1.625-.523q.062,0,.105,0l.191.012V9.578q-.211-.023-.375-.031T20,9.539ZM29.234,13.5a2.824,2.824,0,0,1-.789,1.539,3.866,3.866,0,0,1-3.062,1.242,4.318,4.318,0,0,1-2.867-1.047,4.222,4.222,0,0,1-1.242-3.406,4.734,4.734,0,0,1,1.121-3.391,3.833,3.833,0,0,1,2.91-1.18,4.463,4.463,0,0,1,1.914.4,3.353,3.353,0,0,1,1.406,1.258,4.292,4.292,0,0,1,.648,1.758,11.352,11.352,0,0,1,.07,1.688H23.516a2.116,2.116,0,0,0,.8,1.8,1.9,1.9,0,0,0,1.109.32,1.6,1.6,0,0,0,1.117-.391,1.855,1.855,0,0,0,.414-.586Zm-2.2-2.609a1.938,1.938,0,0,0-.535-1.34A1.662,1.662,0,0,0,25.3,9.094a1.512,1.512,0,0,0-1.2.484,2.418,2.418,0,0,0-.535,1.313Zm7.711,3.523v1.664l-1.055.039a2.83,2.83,0,0,1-2.156-.547,1.628,1.628,0,0,1-.375-1.18V9.148H29.969V7.563h1.188V5.188h2.2V7.563h1.383V9.148H33.359v4.5a1.014,1.014,0,0,0,.133.652,1.462,1.462,0,0,0,.813.129q.1,0,.215,0T34.742,14.414Z" transform="translate(1108 2063)" fill="#a13f8d"/>
  </g>
</svg>
